{
.appVersion = "3337";
.formatVersion = 3;
DisplayStrings = (
"»",
"›"
);
axes = (
{
name = Weight;
tag = wght;
}
);
customParameters = (
{
name = "Name Table Entry";
value = "13; This Font Software is licensed under the SIL Open Font License, Version 1.1. This license is available with a FAQ at: https://openfontlicense.org";
},
{
name = fsType;
value = (
);
},
{
name = "Use Typo Metrics";
value = 1;
},
{
name = "Use Extension Kerning";
value = 1;
}
);
date = "2025-01-04 17:23:24 +0000";
familyName = "Epunda Sans";
featurePrefixes = (
{
automatic = 1;
code = "languagesystem DFLT dflt;

languagesystem latn dflt;
languagesystem latn AZE;
languagesystem latn CRT;
languagesystem latn KAZ;
languagesystem latn TAT;
languagesystem latn TRK;
languagesystem latn ROM;
languagesystem latn MOL;
languagesystem latn MAH;
languagesystem latn NLD;
";
name = Languagesystems;
}
);
features = (
{
automatic = 1;
code = "feature locl;
feature subs;
feature sinf;
feature sups;
feature numr;
feature dnom;
feature frac;
feature ordn;
feature lnum;
feature pnum;
feature tnum;
feature onum;
feature case;
feature fwid;
feature salt;
";
tag = aalt;
},
{
automatic = 1;
code = "lookup ccmp_Other_1 {
	@CombiningTopAccents = [acutecomb brevecomb caroncomb circumflexcomb commaturnedabovecomb dieresiscomb dotaccentcomb gravecomb hungarumlautcomb macroncomb ringcomb tildecomb];
	lookupflag UseMarkFilteringSet @CombiningTopAccents;
	sub i' @CombiningTopAccents by idotless;
	sub j' @CombiningTopAccents by jdotless;
} ccmp_Other_1;

lookup ccmp_latn_1 {
	lookupflag 0;
	sub fi by f i;
	sub fl by f l;
} ccmp_latn_1;

script latn;
lookup ccmp_latn_1;
";
tag = ccmp;
},
{
automatic = 1;
code = "script latn;
language AZE;
lookup locl_latn_0 {
	sub i by idotaccent;
} locl_latn_0;
language CRT;
lookup locl_latn_0;
language KAZ;
lookup locl_latn_0;
language TAT;
lookup locl_latn_0;
language TRK;
lookup locl_latn_0;

script latn;
language ROM;
lookup locl_latn_1 {
	sub Scedilla by Scommaaccent;

glyphs = (
{
glyphname = A;
kernLeft = KO_A;
kernRight = KO_A;
lastChange = "2025-01-04 17:26:05 +0000";
layers = (
{
anchors = (
{
name = bottom;
pos = (269,0);
},
{
name = ogonek;
pos = (523,0);
},
{
name = top;
pos = (269,637);
}
);
layerId = m01;
shapes = (
{
closed = 1;
nodes = (
(259,628,l),
(451,0,l),
(523,0,l),
(307,667,l),
(231,667,l),
(15,0,l),
(87,0,l),
(279,628,l)
);
},
{
closed = 1;
nodes = (
(113,158,l),
(425,158,l),
(425,218,l),
(113,218,l)
);
}
);
width = 538;
},
{
anchors = (
{
name = bottom;
pos = (290,0);
},
{
name = ogonek;
pos = (580,0);
},
{
name = top;
pos = (290,657);
}
);
layerId = m002;
shapes = (
{
closed = 1;
nodes = (
(240,667,l),
(393,0,l),
(580,0,l),
(380,667,l),
(200,667,l),
(0,0,l),
(187,0,l),
(340,667,l)
);
},
{
closed = 1;
nodes = (
(134,98,l),
(446,98,l),
(446,218,l),
(134,218,l)
);
}
);
width = 580;
}
);
unicode = 65;
userData = {
KernOnName = A;
};
},
{
glyphname = AE;
kernLeft = KO_AE;
kernRight = KO_E;
lastChange = "2022-10-21 19:55:41 +0000";
layers = (
{
anchors = (
{
name = bottom;
pos = (436,0);
},
{
name = top;
pos = (436,667);
}
);
layerId = m01;
shapes = (
{
closed = 1;
nodes = (
(463,628,l),
(451,0,l),
(523,0,l),
(523,667,l),
(447,667,l),
(15,0,l),
(87,0,l),
(483,628,l)
);
},
{
closed = 1;
nodes = (
(164,158,l),
(476,158,l),
(495,218,l),
(183,218,l)
);
},
{
closed = 1;
nodes = (
(451,0,l),
(830,0,l),
(830,60,l),
(514,60,l),
(514,320,l),
(781,320,l),
(781,380,l),
(514,380,l),
(514,607,l),
(831,607,l),
(831,667,l),
(451,667,l)
);
}
);
width = 872;
},
{
anchors = (
{
name = bottom;
pos = (454,0);
},
{
name = top;
pos = (454,667);
}
);
layerId = m002;
shapes = (
{
closed = 1;
nodes = (
(440,667,l),
(423,0,l),
(580,0,l),
(580,667,l),
(400,667,l),
(0,0,l),
(187,0,l),
(540,667,l)
);
},
{
closed = 1;
nodes = (
(163,98,l),
(475,98,l),
(511,218,l),
(199,218,l)
);
},
{
closed = 1;
nodes = (
(424,0,l),
(883,0,l),
(883,140,l),
(607,140,l),
(607,265,l),
(834,265,l),
(834,405,l),
(607,405,l),
(607,527,l),
(884,527,l),
(884,667,l),
(424,667,l)
);
}
);
width = 907;
}
);
metricLeft = "=A";
metricRight = "=E";
unicode = 198;
},
{
glyphname = B;
kernLeft = KO_H;
kernRight = KO_B;
lastChange = "2024-12-31 17:36:14 +0000";
layers = (
{
anchors = (
{
name = bottom;
pos = (272,0);
},
{
name = center;
pos = (272,334);
},
{
name = top;
pos = (272,657);
}
);
layerId = m01;
shapes = (
{
closed = 1;
nodes = (
(145,60,l),
(145,320,l),
(267,320,ls),
(389,320,o),
(450,279,o),
(450,191,cs),
(450,103,o),
(389,60,o),
(267,60,c)
);
},
{
closed = 1;
nodes = (
(373,616,o),
(425,577,o),
(425,498,cs),
(425,419,o),
(373,380,o),
(267,380,cs),
(145,380,l),
(145,613,l),
(145,613,o),
(192,616,o),
(267,616,cs)
);
},
{
closed = 1;
nodes = (
(437,0,o),
(522,63,o),
(522,191,cs),
(522,269,o),
(472,331,o),
(392,352,c),
(453,378,o),
(492,434,o),
(492,498,cs),
(492,612,o),
(411,676,o),
(267,676,cs),
(162,676,o),
(82,666,o),
(82,666,c),
(82,0,l),
(267,0,l)
);
}
);
width = 543;
},
{
anchors = (
{
name = bottom;
pos = (288,0);
},
{
name = center;
pos = (288,334);
},
{
name = top;
pos = (288,667);
}
);
layerId = m002;
shapes = (
{
closed = 1;
nodes = (
(227,120,l),
(227,290,l),
(269,290,ls),
(311,290,o),
(372,279,o),
(372,206,cs),
(372,133,o),
(311,120,o),
(269,120,c)
);
},
{
closed = 1;
nodes = (
(295,556,o),
(347,552,o),
(347,483,cs),
(347,414,o),
(295,410,o),
(269,410,cs),
(227,410,l),
(227,553,l),
(227,553,o),
(226,556,o),
(269,556,cs)
);
},
{
closed = 1;
nodes = (
(479,0,o),
(564,63,o),
(564,191,cs),
(564,269,o),
(514,331,o),
(434,352,c),
(495,378,o),
(534,434,o),
(534,498,cs),
(534,612,o),
(453,676,o),
(309,676,cs),
(164,676,o),
(45,666,o),
(45,666,c),
(45,0,l),
(309,0,l)
);
}
);
width = 575;
}
);
metricLeft = "=H";
metricRight = "=H/4";
unicode = 66;
userData = {
KernOnName = B;
};
},
{
glyphname = C;
kernLeft = KO_O;
kernRight = KO_C;
lastChange = "2024-12-31 17:36:14 +0000";
layers = (
{
anchors = (
{
name = bottom;
pos = (331,0);
},
{
name = top;
pos = (331,667);
}
);
layerId = m01;
shapes = (
{
closed = 1;
nodes = (
(382,614,o),
(428,596,o),
(474,576,c),
(503,628,l),
(453,654,o),
(396,674,o),
(331,674,cs),
(126,674,o),
(45,512,o),
(45,332,c),
(117,332,l),
(117,489,o),
(176,614,o),
(331,614,cs)
);
},
{
closed = 1;
nodes = (
(176,50,o),
(117,175,o),
(117,332,c),
(45,332,l),
(45,152,o),
(126,-10,o),
(331,-10,cs),
(396,-10,o),
(453,10,o),
(503,36,c),
(474,88,l),
(428,68,o),
(382,50,o),
(331,50,cs)
);
}
);
width = 528;
},
{
anchors = (
{
name = bottom;
pos = (341,0);
},
{
name = top;
pos = (341,667);
}
);
layerId = m002;
shapes = (
{
closed = 1;
nodes = (
(410,556,o),
(461,545,o),
(524,518,c),
(553,630,l),
(503,651,o),
(433,676,o),
(341,676,c),
(96,676,o),
(15,514,o),
(15,334,c),
(207,334,l),
(207,434,o),
(226,556,o),
(341,556,cs)
);
},
{
closed = 1;
nodes = (
(226,112,o),
(207,234,o),
(207,334,c),
(15,334,l),
(15,154,o),
(96,-9,o),
(341,-9,cs),
(433,-9,o),
(503,17,o),
(553,38,c),
(524,150,l),
(461,123,o),
(410,112,o),
(341,112,cs)
);
}
);
width = 553;
}
);
metricLeft = "=O";
unicode = 67;
userData = {
KernOnName = C;
};
},
{
glyphname = D;
kernLeft = KO_H;
kernRight = KO_O;
lastChange = "2024-12-31 17:36:14 +0000";
layers = (
{
anchors = (
{
name = bottom;
pos = (266,0);
},
{
name = center;
pos = (145,350);
},
{
name = top;
pos = (266,667);
}
);
layerId = m01;
shapes = (
{
closed = 1;
nodes = (
(277,0,l),
(482,0,o),
(567,156,o),
(567,336,cs),
(567,516,o),
(482,676,o),
(267,676,c),
(162,676,o),
(82,667,o),
(82,667,c),
(82,0,l)
);
},
{
closed = 1;
nodes = (
(145,612,l),
(145,612,o),
(192,616,o),
(267,616,cs),
(432,616,o),
(495,493,o),
(495,336,cs),
(495,179,o),
(432,60,o),
(277,60,cs),
(217,60,o),
(145,60,o),
(145,60,c)
);
}
);
width = 612;
},
{
anchors = (
{
name = bottom;
pos = (280,0);
},
{
name = center;
pos = (149,350);
},
{
name = top;
pos = (270,667);
}
);
layerId = m002;
shapes = (
{
closed = 1;
nodes = (
(280,0,l),
(525,0,o),
(610,156,o),
(610,336,cs),
(610,516,o),
(525,676,o),
(270,676,c),
(125,676,o),
(45,667,o),
(45,667,c),
(45,0,l)
);
},
{
closed = 1;
nodes = (
(238,555,l),
(238,555,o),
(245,556,o),
(270,556,cs),
(355,556,o),
(418,493,o),
(418,336,cs),
(418,179,o),
(355,120,o),
(280,120,cs),
(270,120,o),
(238,120,o),
(238,120,c)
);
}
);
width = 625;
}
);
metricLeft = "=H";
metricRight = "=O";
unicode = 68;
userData = {
KernOnName = D;
};
},
{
glyphname = E;
kernLeft = KO_H;
kernRight = KO_E;
lastChange = "2024-12-31 17:36:14 +0000";
layers = (
{
anchors = (
{
name = bottom;
pos = (272,0);
},
{
name = ogonek;
pos = (461,0);
},
{
name = top;
pos = (272,637);
},
{
name = topleft;
pos = (20,637);
}
);
layerId = m01;
shapes = (
{
closed = 1;
nodes = (
(82,0,l),
(461,0,l),
(461,60,l),
(145,60,l),
(145,320,l),
(402,320,l),
(412,380,l),
(145,380,l),
(145,607,l),
(462,607,l),
(462,667,l),
(82,667,l)
);
}
);
width = 503;
},
{
anchors = (
{
name = bottom;
pos = (275,0);
},
{
name = ogonek;
pos = (475,10);
},
{
name = top;
pos = (275,657);
},
{
name = topleft;
pos = (20,657);
}
);
layerId = m002;
shapes = (
{
closed = 1;
nodes = (
(45,0,l),
(504,0,l),
(504,140,l),
(228,140,l),
(228,265,l),
(435,265,l),
(455,405,l),
(228,405,l),
(228,527,l),
(505,527,l),
(505,667,l),
(45,667,l)
);
}
);
width = 528;
}
);
metricLeft = "=H";
metricRight = "=H/2";
unicode = 69;
userData = {
KernOnName = E;
};
},
{
glyphname = Schwa;
kernRight = KO_O;
lastChange = "2022-10-23 18:53:04 +0000";
layers = (
{
layerId = m01;
shapes = (
{
closed = 1;
nodes = (
(332,616,l),
(487,616,o),
(547,491,o),
(547,334,cs),
(547,177,o),
(487,50,o),
(332,50,cs),
(177,50,o),
(117,177,o),
(117,334,c),
(45,334,l),
(45,154,o),
(127,-10,o),
(332,-10,cs),
(537,-10,o),
(619,154,o),
(619,334,cs),
(619,514,o),
(537,676,o),
(332,676,c)
);
},
{
closed = 1;
nodes = (
(332,676,l),
(267,676,o),
(210,656,o),
(160,630,c),
(189,578,l),
(235,598,o),
(281,616,o),
(332,616,c)
);
},
{
closed = 1;
nodes = (
(45,334,l),
(76,320,l),
(560,320,l),
(560,380,l),
(45,380,l)
);
}
);
width = 664;
},
{
layerId = m002;
shapes = (
{
closed = 1;
nodes = (
(342,556,l),
(457,556,o),
(477,434,o),
(477,334,cs),
(477,234,o),
(457,110,o),
(342,110,cs),
(227,110,o),
(207,234,o),
(207,334,c),
(15,334,l),
(15,154,o),
(96,-10,o),
(342,-10,cs),
(587,-10,o),
(669,154,o),
(669,334,cs),
(669,514,o),
(587,676,o),
(342,676,c)
);
},
{
closed = 1;
nodes = (
(342,676,l),
(250,676,o),
(180,651,o),
(130,630,c),
(159,518,l),
(222,545,o),
(273,556,o),
(342,556,c)
);
},
{
closed = 1;
nodes = (
(15,334,l),
(92,280,l),
(551,280,l),
(551,420,l),
(15,420,l)
);
}
);
width = 684;
}
);
metricLeft = "=O";
metricRight = "=O";
unicode = 399;
},
{
glyphname = Ezh;
lastChange = "2024-04-20 20:08:35 +0000";
layers = (
{
anchors = (
{
name = bottom;
pos = (213,-10);
},
{
name = top;
pos = (234,637);
}
);
layerId = m01;
shapes = (
{
closed = 1;
nodes = (
(55,607,l),
(386,607,l),
(399,667,l),
(55,667,l)
);
},
{
closed = 1;
nodes = (
(213,50,l),
(162,50,o),
(116,68,o),
(70,88,c),
(41,36,l),
(91,10,o),
(148,-10,o),
(213,-10,c)
);
},
{
closed = 1;
nodes = (
(373,-10,o),
(447,77,o),
(447,194,cs),
(447,300,o),
(373,380,o),
(213,380,c),
(146,380,l),
(146,324,l),
(315,324,o),
(375,292,o),
(375,194,cs),
(375,106,o),
(315,50,o),
(213,50,c),
(213,-10,l)
);
},
{
closed = 1;
nodes = (
(411,607,l),
(411,667,l),
(369,667,l),
(146,380,l),
(199,350,l)
);
}
);
width = 468;
},
{
anchors = (
{
name = bottom;
pos = (195,-10);
},
{
name = top;
pos = (240,657);
}
);
layerId = m002;
shapes = (
{
closed = 1;
nodes = (
(38,547,l),
(434,547,l),
(434,667,l),
(38,667,l)
);
},
{
closed = 1;
nodes = (
(195,110,l),
(144,110,o),
(98,128,o),
(52,148,c),
(23,36,l),
(73,10,o),
(130,-10,o),
(195,-10,c)
);
},
{
closed = 1;
nodes = (
(395,-10,o),
(469,77,o),
(469,194,cs),
(469,300,o),
(395,410,o),
(215,410,c),
(63,410,l),
(63,295,l),
(241,295,o),
(277,252,o),
(277,194,cs),
(277,136,o),
(241,110,o),
(195,110,c),
(195,-10,l)
);
},
{
closed = 1;
nodes = (
(434,547,l),
(429,667,l),
(372,667,l),
(63,410,l),
(216,380,l)
);
}
);
width = 480;
}
);
metricLeft = "=B/2";
metricRight = "=B";
unicode = 439;
},
{
glyphname = F;
kernLeft = KO_H;
kernRight = KO_F;
lastChange = "2024-12-31 17:36:14 +0000";
layers = (
{
anchors = (
{
name = bottom;
pos = (242,0);
},
{
name = top;
pos = (242,667);
}
);
layerId = m01;
shapes = (
{
closed = 1;
nodes = (
(82,0,l),
(145,0,l),
(145,300,l),
(402,300,l),
(412,360,l),
(145,360,l),
(145,607,l),
(462,607,l),
(462,667,l),
(82,667,l)
);
}
);
width = 483;
},
{
anchors = (
{
name = bottom;
pos = (258,0);
},
{
name = top;
pos = (258,667);
}
);
layerId = m002;
shapes = (
{
closed = 1;
nodes = (
(45,0,l),
(228,0,l),
(228,250,l),
(435,250,l),
(455,390,l),
(228,390,l),
(228,527,l),
(505,527,l),
(505,667,l),
(45,667,l)
);
}
);
width = 516;
}
);
metricLeft = "=H";
metricRight = "=H/4";
unicode = 70;
userData = {
KernOnName = F;
};
},
{
glyphname = G;
kernLeft = KO_O;
kernRight = KO_G;
lastChange = "2024-12-31 17:36:14 +0000";
layers = (
{
anchors = (
{
name = bottom;
pos = (330,0);
},
{
name = top;
pos = (330,667);
}
);
layerId = m01;
shapes = (
{
closed = 1;
nodes = (
(382,616,o),
(428,598,o),
(474,578,c),
(503,630,l),
(453,656,o),
(396,676,o),
(331,676,cs),
(126,676,o),
(45,514,o),
(45,334,cs),
(45,154,o),
(126,-10,o),
(331,-10,cs),
(432,-10,o),
(520,37,o),
(520,37,c),
(457,69,l),
(414,56,o),
(374,50,o),
(331,50,cs),
(176,50,o),
(117,177,o),
(117,334,cs),
(117,491,o),
(176,616,o),
(331,616,cs)
);
},
{
closed = 1;
nodes = (
(520,37,l),
(520,370,l),
(457,370,l),
(457,69,l)
);
},
{
closed = 1;
nodes = (
(297,320,l),
(520,320,l),
(520,380,l),
(297,380,l)
);
}
);
width = 602;
},
{
anchors = (
{
name = bottom;
pos = (341,0);
},
{
name = top;
pos = (341,667);
}
);
layerId = m002;
shapes = (
{
closed = 1;
nodes = (
(410,556,o),
(461,545,o),
(524,518,c),
(553,630,l),
(503,651,o),
(433,676,o),
(341,676,cs),
(96,676,o),
(15,514,o),
(15,334,cs),
(15,154,o),
(96,-10,o),
(341,-10,cs),
(482,-10,o),
(570,37,o),
(570,37,c),
(467,149,l),
(425,136,o),
(386,120,o),
(341,120,cs),
(226,120,o),
(207,234,o),
(207,334,cs),
(207,434,o),
(226,556,o),
(341,556,cs)
);
},
{
closed = 1;
nodes = (
(570,37,l),
(570,393,l),
(387,393,l),
(387,89,l)
);
},
{
closed = 1;
nodes = (
(297,293,l),
(570,293,l),
(570,413,l),
(297,413,l)
);
}
);
width = 615;
}
);
metricLeft = "=O";
metricRight = "=H";
unicode = 71;
userData = {
KernOnName = G;
};
},
{
glyphname = Gstroke;
kernLeft = KO_O;
lastChange = "2022-10-23 20:09:31 +0000";
layers = (
{
anchors = (
{
name = bottom;
pos = (330,0);
},
{
name = top;
pos = (330,667);
}
);
layerId = m01;
shapes = (
{
closed = 1;
nodes = (
(382,616,o),
(428,598,o),
(474,578,c),
(503,630,l),
(453,656,o),
(396,676,o),
(331,676,cs),
(126,676,o),
(45,514,o),
(45,334,cs),
(45,154,o),
(126,-10,o),
(331,-10,cs),
(432,-10,o),
(520,37,o),
(520,37,c),
(457,69,l),
(414,56,o),
(374,50,o),
(331,50,cs),
(176,50,o),
(117,177,o),
(117,334,cs),
(117,491,o),
(176,616,o),
(331,616,cs)
);
},
{
closed = 1;
nodes = (
(520,37,l),
(520,380,l),
(457,380,l),
(457,69,l)
);
},
{
closed = 1;
nodes = (
(580,220,l),
(580,280,l),
(330,280,l),
(330,220,l)
);
}
);
width = 580;
},
{
anchors = (
{
name = bottom;
pos = (341,0);
},
{
name = top;
pos = (341,667);
}
);
layerId = m002;
shapes = (
{
closed = 1;
nodes = (
(410,556,o),
(461,545,o),
(524,518,c),
(553,630,l),
(503,651,o),
(433,676,o),
(341,676,cs),
(96,676,o),
(15,514,o),
(15,334,cs),
(15,154,o),
(96,-10,o),
(341,-10,cs),
(482,-10,o),
(570,37,o),
(570,37,c),
(467,149,l),
(425,136,o),
(386,120,o),
(341,120,cs),
(226,120,o),
(207,234,o),
(207,334,cs),
(207,434,o),
(226,556,o),
(341,556,cs)
);
},
{
closed = 1;
nodes = (
(570,37,l),
(570,413,l),
(387,413,l),
(387,89,l)
);
},
{
closed = 1;
nodes = (
(640,210,l),
(640,330,l),
(317,330,l),
(317,210,l)
);
}
);
width = 615;
}
);
metricLeft = "=O";
unicode = 484;
},
{
glyphname = H;
kernLeft = KO_H;
kernRight = KO_H;
lastChange = "2024-12-31 17:36:14 +0000";
layers = (
{
anchors = (
{
name = bottom;
pos = (309,0);
},
{
name = center;
pos = (309,334);
},
{
name = top;
pos = (309,637);
},
{
name = topleft;
pos = (20,667);
}
);
layerId = m01;
shapes = (
{
closed = 1;
nodes = (
(473,0,l),
(536,0,l),
(536,667,l),
(473,667,l),
(473,380,l),
(145,380,l),
(145,667,l),
(82,667,l),
(82,0,l),
(145,0,l),
(145,320,l),
(473,320,l)
);
}
);
width = 618;
},
{
anchors = (
{
name = bottom;
pos = (307,0);
},
{
name = center;
pos = (307,334);
},
{
name = top;
pos = (307,657);
},
{
name = topleft;
pos = (20,657);
}
);
layerId = m002;
shapes = (
{
closed = 1;
nodes = (
(386,0,l),
(569,0,l),
(569,667,l),
(386,667,l),
(386,420,l),
(228,420,l),
(228,667,l),
(45,667,l),
(45,0,l),
(228,0,l),
(228,280,l),
(386,280,l)
);
}
);
width = 614;
}
);
unicode = 72;
userData = {
KernOnName = H;
};
},
{
glyphname = Hbar;
lastChange = "2022-10-23 18:23:06 +0000";
layers = (
{
anchors = (
{
name = bottom;
pos = (309,0);
},
{
name = center;
pos = (309,334);
},
{
name = top;
pos = (309,637);
},
{
name = topleft;
pos = (20,667);
}
);
layerId = m01;
shapes = (
{
closed = 1;
nodes = (
(473,0,l),
(536,0,l),
(536,667,l),
(473,667,l),
(473,380,l),
(145,380,l),
(145,667,l),
(82,667,l),
(82,0,l),
(145,0,l),
(145,320,l),
(473,320,l)
);
},
{
closed = 1;
nodes = (
(618,494,l),
(618,554,l),
(0,554,l),
(0,494,l)
);
}
);
width = 618;
},
{
anchors = (
{
name = bottom;
pos = (307,0);
},
{
name = center;
pos = (307,334);
},
{
name = top;
pos = (307,657);
},
{
name = topleft;
pos = (20,657);
}
);
layerId = m002;
shapes = (
{
closed = 1;
nodes = (
(386,0,l),
(569,0,l),
(569,667,l),
(386,667,l),
(386,420,l),
(228,420,l),
(228,667,l),
(45,667,l),
(45,0,l),
(228,0,l),
(228,280,l),
(386,280,l)
);
},
{
closed = 1;
nodes = (
(618,484,l),
(618,604,l),
(0,604,l),
(0,484,l)
);
}
);
width = 614;
}
);
unicode = 294;
},
{
glyphname = I;
kernLeft = KO_H;
kernRight = KO_H;
lastChange = "2024-12-31 17:36:14 +0000";
layers = (
{
anchors = (
{
name = bottom;
pos = (114,0);
},
{
name = ogonek;
pos = (145,0);
},
{
name = top;
pos = (114,637);
},
{
name = topleft;
pos = (20,637);
}
);
layerId = m01;
shapes = (
{
closed = 1;
nodes = (
(145,0,l),
(145,667,l),
(82,667,l),
(82,0,l)
);
}
);
width = 227;
},
{
anchors = (
{
name = bottom;
pos = (136,0);
},
{
name = ogonek;
pos = (227,0);
},
{
name = top;
pos = (136,657);
},
{
name = topleft;
pos = (20,657);
}
);
layerId = m002;
shapes = (
{
closed = 1;
nodes = (
(227,0,l),
(227,667,l),
(45,667,l),
(45,0,l)
);
}
);
width = 272;
}
);
metricLeft = "=H";
metricRight = "=|";
unicode = 73;
userData = {
KernOnName = I;
};
},
{
glyphname = J;
kernLeft = KO_J;
kernRight = KO_J;
lastChange = "2024-12-31 17:36:14 +0000";
layers = (
{
anchors = (
{
name = bottom;
pos = (159,0);
},
{
name = top;
pos = (323,637);
}
);
layerId = m01;
shapes = (
{
closed = 1;
nodes = (
(354,667,l),
(292,667,l),
(292,208,ls),
(292,123,o),
(253,47,o),
(159,47,cs),
(105,47,o),
(75,62,o),
(45,83,c),
(18,41,l),
(56,8,o),
(100,-8,o),
(159,-8,cs),
(306,-8,o),
(354,95,o),
(354,224,cs)
);
}
);
width = 436;
},
{
anchors = (
{
name = bottom;
pos = (231,0);
},
{
name = top;
pos = (325,657);
}
);
layerId = m002;
shapes = (
{
closed = 1;
nodes = (
(416,667,l),
(234,667,l),
(234,208,ls),
(234,153,o),
(234,107,o),
(161,107,cs),
(114,107,o),
(55,123,o),
(27,143,c),
(0,41,l),
(32,14,o),
(111,-8,o),
(181,-8,cs),
(368,-8,o),
(416,95,o),
(416,224,cs)
);
}
);
width = 461;
}
);
metricRight = "=H";
unicode = 74;
userData = {
KernOnName = J;
};
},
{
glyphname = K;
kernLeft = KO_H;
kernRight = KO_K;
lastChange = "2024-12-31 17:39:23 +0000";
layers = (
{
anchors = (
{
name = bottom;
pos = (277,0);
},
{
name = top;
pos = (277,657);
}
);
layerId = m01;
shapes = (
{
closed = 1;
nodes = (
(454,0,l),
(532,0,l),
(269,380,l),
(194,380,l)
);
},
{
closed = 1;
nodes = (
(144,666,l),
(82,666,l),
(82,0,l),
(144,0,l)
);
},
{
closed = 1;
nodes = (
(113,208,l),
(522,667,l),
(437,667,l),
(113,300,l)
);
}
);
width = 553;
},
{
anchors = (
{
name = bottom;
pos = (293,0);
},
{
name = top;
pos = (293,657);
}
);
layerId = m002;
shapes = (
{
closed = 1;
nodes = (
(370,0,l),
(575,0,l),
(367,420,l),
(185,420,l)
);
},
{
closed = 1;
nodes = (
(227,666,l),
(45,666,l),
(45,0,l),
(227,0,l)
);
},
{
closed = 1;
nodes = (
(226,158,l),
(565,667,l),
(360,667,l),
(146,305,l)
);
}
);
width = 586;
}
);
metricLeft = "=H";
metricRight = "=H/4";
unicode = 75;
userData = {
KernOnName = K;
};
},
{
glyphname = L;
kernLeft = KO_H;
kernRight = KO_L;
lastChange = "2024-12-31 17:36:14 +0000";
layers = (
{
anchors = (
{
name = bottom;
pos = (224,0);
},
{
name = center;
pos = (224,334);
},
{
name = top;
pos = (224,637);
},
{
name = topright;
pos = (427,637);
}
);
layerId = m01;
shapes = (
{
closed = 1;
nodes = (
(145,667,l),
(82,667,l),
(82,0,l),
(145,0,l)
);
},
{
closed = 1;
nodes = (
(432,0,l),
(432,60,l),
(82,60,l),
(82,0,l)
);
}
);
width = 447;
},
{
anchors = (
{
name = bottom;
pos = (238,0);
},
{
name = center;
pos = (238,334);
},
{
name = top;
pos = (238,657);
},
{
name = topright;
pos = (455,657);
}
);
layerId = m002;
shapes = (
{
closed = 1;
nodes = (
(228,667,l),
(45,667,l),
(45,0,l),
(228,0,l)
);
},
{
closed = 1;
nodes = (
(475,0,l),
(475,120,l),
(45,120,l),
(45,0,l)
);
}
);
width = 475;
}
);
metricLeft = "=H";
unicode = 76;
userData = {
KernOnName = L;
};
},
{
glyphname = Lslash;
kernRight = KO_L;
lastChange = "2022-10-23 18:10:52 +0000";
layers = (
{
anchors = (
{
name = bottom;
pos = (224,0);
},
{
name = center;
pos = (224,334);
},
{
name = top;
pos = (224,637);
},
{
name = topright;
pos = (427,637);
}
);
layerId = m01;
shapes = (
{
closed = 1;
nodes = (
(145,667,l),
(82,667,l),
(82,0,l),
(145,0,l)
);
},
{
closed = 1;
nodes = (
(432,0,l),
(432,60,l),
(82,60,l),
(82,0,l)
);
},
{
closed = 1;
nodes = (
(-8,312,l),
(19,264,l),
(235,389,l),
(207,436,l)
);
}
);
width = 447;
},
{
anchors = (
{
name = bottom;
pos = (238,0);
},
{
name = center;
pos = (238,334);
},
{
name = top;
pos = (238,657);
},
{
name = topright;
pos = (455,657);
}
);
layerId = m002;
shapes = (
{
closed = 1;
nodes = (
(228,667,l),
(45,667,l),
(45,0,l),
(228,0,l)
);
},
{
closed = 1;
nodes = (
(475,0,l),
(475,120,l),
(45,120,l),
(45,0,l)
);
},
{
closed = 1;
nodes = (
(-54,310,l),
(6,205,l),
(327,391,l),
(267,495,l)
);
}
);
width = 475;
}
);
unicode = 321;
},
{
glyphname = M;
kernLeft = KO_M;
kernRight = KO_M;
lastChange = "2024-12-31 17:36:14 +0000";
layers = (
{
anchors = (
{
name = bottom;
pos = (394,0);
},
{
name = top;
pos = (394,667);
}
);
layerId = m01;
shapes = (
{
closed = 1;
nodes = (
(360,0,l),
(418,0,l),
(252,667,l),
(166,667,l),
(50,0,l),
(117,0,l),
(214,598,l)
);
},
{
closed = 1;
nodes = (
(670,0,l),
(738,0,l),
(622,667,l),
(536,667,l),
(370,0,l),
(427,0,l),
(574,598,l)
);
}
);
width = 788;
},
{
anchors = (
{
name = bottom;
pos = (400,0);
},
{
name = top;
pos = (400,667);
}
);
layerId = m002;
shapes = (
{
closed = 1;
nodes = (
(315,0,l),
(455,0,l),
(320,667,l),
(100,667,l),
(16,0,l),
(216,0,l),
(245,400,l)
);
},
{
closed = 1;
nodes = (
(584,0,l),
(784,0,l),
(700,667,l),
(480,667,l),
(345,0,l),
(485,0,l),
(555,400,l)
);
}
);
width = 800;
}
);
unicode = 77;
userData = {
KernOnName = M;
};
},
{
glyphname = N;
kernLeft = KO_H;
kernRight = KO_H;
lastChange = "2024-12-31 17:36:14 +0000";
layers = (
{
anchors = (
{
name = bottom;
pos = (309,0);
},
{
name = top;
pos = (309,637);
}
);
layerId = m01;
shapes = (
{
closed = 1;
nodes = (
(453,0,l),
(536,0,l),
(536,666,l),
(473,666,l),
(473,95,l),
(165,667,l),
(82,666,l),
(82,0,l),
(145,0,l),
(145,572,l)
);
}
);
width = 618;
},
{
anchors = (
{
name = bottom;
pos = (310,0);
},
{
name = top;
pos = (310,657);
}
);
layerId = m002;
shapes = (
{
closed = 1;
nodes = (
(420,0,l),
(575,0,l),
(575,666,l),
(420,666,l),
(420,305,l),
(200,667,l),
(45,666,l),
(45,0,l),
(200,0,l),
(200,360,l)
);
}
);
width = 620;
}
);
metricLeft = "=H";
metricRight = "=H";
unicode = 78;
userData = {
KernOnName = N;
};
},
{
glyphname = Eng;
kernLeft = KO_H;
kernRight = KO_H;
lastChange = "2022-10-23 19:17:53 +0000";
layers = (
{
anchors = (
{
name = bottom;
pos = (297,0);
},
{
name = top;
pos = (297,637);
}
);
layerId = m01;
shapes = (
{
closed = 1;
nodes = (
(473,0,l),
(536,0,l),
(536,666,l),
(473,666,l),
(473,115,l),
(165,667,l),
(82,666,l),
(82,0,l),
(145,0,l),
(145,572,l)
);
},
{
closed = 1;
nodes = (
(473,0,l),
(473,-83,o),
(441,-153,o),
(361,-153,c),
(361,-208,l),
(473,-208,o),
(536,-134,o),
(536,-2,cs),
(536,70,l)
);
}
);
width = 618;
},
{
anchors = (
{
name = bottom;
pos = (310,0);
},
{
name = top;
pos = (310,657);
}
);
layerId = m002;
shapes = (
{
closed = 1;
nodes = (
(420,0,l),
(575,0,l),
(575,666,l),
(420,666,l),
(420,305,l),
(200,667,l),
(45,666,l),
(45,0,l),
(200,0,l),
(200,360,l)
);
},
{
closed = 1;
nodes = (
(420,0,l),
(420,-63,o),
(395,-93,o),
(330,-93,c),
(330,-208,l),
(472,-208,o),
(575,-134,o),
(575,-2,cs),
(575,70,l)
);
}
);
width = 620;
}
);
metricLeft = "=H";
metricRight = "=H";
unicode = 330;
},
{
glyphname = O;
kernLeft = KO_O;
kernRight = KO_O;
lastChange = "2024-12-31 17:36:14 +0000";
layers = (
{
anchors = (
{
name = bottom;
pos = (332,0);
},
{
name = center;
pos = (332,334);
},
{
name = ogonek;
pos = (598,10);
},
{
name = top;
pos = (332,637);
},
{
name = topleft;
pos = (20,637);
},
{
name = topright;
pos = (644,597);
}
);
layerId = m01;
shapes = (
{
closed = 1;
nodes = (
(537,-10,o),
(619,154,o),
(619,334,cs),
(619,514,o),
(537,676,o),
(332,676,c),
(127,676,o),
(45,514,o),
(45,334,cs),
(45,154,o),
(127,-10,o),
(332,-10,cs)
);
},
{
closed = 1;
nodes = (
(177,50,o),
(117,177,o),
(117,334,cs),
(117,491,o),
(177,616,o),
(332,616,cs),
(487,616,o),
(547,491,o),
(547,334,cs),
(547,177,o),
(487,50,o),
(332,50,cs)
);
}
);
width = 664;
},
{
anchors = (
{
name = bottom;
pos = (342,0);
},
{
name = center;
pos = (342,334);
},
{
name = ogonek;
pos = (616,10);
},
{
name = top;
pos = (342,657);
},
{
name = topleft;
pos = (20,657);
},
{
name = topright;
pos = (664,657);
}
);
layerId = m002;
shapes = (
{
closed = 1;
nodes = (
(587,-10,o),
(669,154,o),
(669,334,cs),
(669,514,o),
(587,676,o),
(342,676,cs),
(96,676,o),
(15,514,o),
(15,334,cs),
(15,154,o),
(96,-10,o),
(342,-10,cs)
);
},
{
closed = 1;
nodes = (
(227,110,o),
(207,234,o),
(207,334,cs),
(207,434,o),
(227,556,o),
(342,556,cs),
(457,556,o),
(477,434,o),
(477,334,cs),
(477,234,o),
(457,110,o),
(342,110,cs)
);
}
);
width = 684;
}
);
unicode = 79;
userData = {
KernOnName = O;
};
},
{
glyphname = Oslash;
lastChange = "2022-10-23 19:35:21 +0000";
layers = (
{
anchors = (
{
name = bottom;
pos = (332,0);
},
{
name = top;
pos = (332,637);
}
);
layerId = m01;
shapes = (
{
closed = 1;
nodes = (
(537,-10,o),
(619,154,o),
(619,334,cs),
(619,514,o),
(537,676,o),
(332,676,c),
(127,676,o),
(45,514,o),
(45,334,cs),
(45,154,o),
(127,-10,o),
(332,-10,cs)
);
},
{
closed = 1;
nodes = (
(177,50,o),
(117,177,o),
(117,334,cs),
(117,491,o),
(177,616,o),
(332,616,cs),
(487,616,o),
(547,491,o),
(547,334,cs),
(547,177,o),
(487,50,o),
(332,50,cs)
);
},
{
closed = 1;
nodes = (
(27,15,l),
(72,-23,l),
(637,651,l),
(592,689,l)
);
}
);
width = 664;
},
{
anchors = (
{
name = bottom;
pos = (348,0);
},
{
name = top;
pos = (348,657);
}
);
layerId = m002;
shapes = (
{
closed = 1;
nodes = (
(599,-10,o),
(681,154,o),
(681,334,cs),
(681,514,o),
(599,676,o),
(354,676,cs),
(108,676,o),
(27,514,o),
(27,334,cs),
(27,154,o),
(108,-10,o),
(354,-10,cs)
);
},
{
closed = 1;
nodes = (
(239,110,o),
(219,234,o),
(219,334,cs),
(219,434,o),
(239,556,o),
(354,556,cs),
(469,556,o),
(489,434,o),
(489,334,cs),
(489,234,o),
(469,110,o),
(354,110,cs)
);
},
{
closed = 1;
nodes = (
(15,35,l),
(107,-42,l),
(673,631,l),
(581,708,l)
);
}
);
width = 696;
}
);
unicode = 216;
},
{
glyphname = OE;
kernLeft = KO_O;
kernRight = KO_E;
lastChange = "2024-04-20 20:07:55 +0000";
layers = (
{
layerId = m01;
shapes = (
{
closed = 1;
nodes = (
(537,-10,o),
(589,154,o),
(589,334,c),
(589,514,o),
(537,676,o),
(332,676,c),
(127,676,o),
(45,514,o),
(45,334,cs),
(45,154,o),
(127,-10,o),
(332,-10,cs)
);
},
{
closed = 1;
nodes = (
(177,50,o),
(117,177,o),
(117,334,cs),
(117,491,o),
(177,616,o),
(332,616,cs),
(487,616,o),
(547,491,o),
(547,334,cs),
(547,177,o),
(487,50,o),
(332,50,cs)
);
},
{
closed = 1;
nodes = (
(547,155,l),
(547,0,l),
(926,0,l),
(926,60,l),
(610,60,l),
(610,320,l),
(877,320,l),
(877,380,l),
(610,380,l),
(610,607,l),
(927,607,l),
(927,667,l),
(547,667,l)
);
}
);
width = 968;
},
{
layerId = m002;
shapes = (
{
closed = 1;
nodes = (
(587,-10,o),
(579,334,o),
(579,334,cs),
(579,334,o),
(587,676,o),
(342,676,cs),
(96,676,o),
(15,514,o),
(15,334,cs),
(15,154,o),
(96,-10,o),
(342,-10,cs)
);
},
{
closed = 1;
nodes = (
(227,110,o),
(207,234,o),
(207,334,cs),
(207,434,o),
(227,556,o),
(342,556,cs),
(457,556,o),
(477,434,o),
(477,334,cs),
(477,234,o),
(457,110,o),
(342,110,cs)
);
},
{
closed = 1;
nodes = (
(478,342,l),
(478,0,l),
(937,0,l),
(937,140,l),
(661,140,l),
(661,265,l),
(888,265,l),
(888,405,l),
(661,405,l),
(661,527,l),
(938,527,l),
(938,667,l),
(478,667,l)
);
}
);
width = 961;
}
);
metricLeft = "=O";
metricRight = "=E";
unicode = 338;
},
{
glyphname = P;
kernLeft = KO_H;
kernRight = KO_P;
lastChange = "2024-12-31 17:36:14 +0000";
layers = (
{
layerId = m01;
shapes = (
{
closed = 1;
nodes = (
(365,616,o),
(420,566,o),
(420,477,cs),
(420,390,o),
(365,342,o),
(267,342,cs),
(192,342,o),
(145,345,o),
(145,345,c),
(145,612,l),
(145,612,o),
(192,616,o),
(267,616,cs)
);
},
{
closed = 1;
nodes = (
(82,0,l),
(144,0,l),
(144,285,l),
(144,285,o),
(191,282,o),
(266,282,cs),
(399,282,o),
(492,363,o),
(492,478,cs),
(492,595,o),
(399,676,o),
(267,676,cs),
(162,676,o),
(82,667,o),
(82,667,c)
);
}
);
width = 516;
},
{
layerId = m002;
shapes = (
{
closed = 1;
nodes = (
(315,556,o),
(343,520,o),
(343,462,cs),
(343,407,o),
(315,372,o),
(270,372,cs),
(245,372,o),
(228,375,o),
(228,375,c),
(228,553,l),
(228,553,o),
(245,556,o),
(270,556,cs)
);
},
{
closed = 1;
nodes = (
(45,0,l),
(227,0,l),
(227,255,l),
(227,255,o),
(244,252,o),
(269,252,cs),
(442,252,o),
(535,331,o),
(535,463,cs),
(535,595,o),
(442,677,o),
(270,677,cs),
(165,677,o),
(45,667,o),
(45,667,c)
);
}
);
width = 550;
}
);
metricLeft = "=H";
unicode = 80;
userData = {
KernOnName = P;
};
},
{
glyphname = Thorn;
kernLeft = KO_H;
lastChange = "2022-10-23 21:13:11 +0000";
layers = (
{
layerId = m01;
shapes = (
{
closed = 1;
nodes = (
(365,471,o),
(420,421,o),
(420,332,cs),
(420,245,o),
(365,197,o),
(267,197,cs),
(192,197,o),
(145,200,o),
(145,200,c),
(145,467,l),
(145,467,o),
(192,471,o),
(267,471,cs)
);
},
{
closed = 1;
nodes = (
(82,0,l),
(144,0,l),
(144,140,l),
(144,140,o),
(191,137,o),
(266,137,cs),
(399,137,o),
(492,218,o),
(492,333,cs),
(492,450,o),
(399,531,o),
(267,531,cs),
(162,531,o),
(82,522,o),
(82,522,c)
);
},
{
closed = 1;
nodes = (
(82,500,l),
(144,500,l),
(144,667,l),
(82,667,l)
);
}
);
width = 516;
},
{
layerId = m002;
shapes = (
{
closed = 1;
nodes = (
(315,426,o),
(343,390,o),
(343,332,cs),
(343,277,o),
(315,242,o),
(270,242,cs),
(245,242,o),
(228,245,o),
(228,245,c),
(228,423,l),
(228,423,o),
(245,426,o),
(270,426,cs)
);
},
{
closed = 1;
nodes = (
(45,0,l),
(227,0,l),
(227,125,l),
(227,125,o),
(244,122,o),
(269,122,cs),
(442,122,o),
(535,201,o),
(535,333,cs),
(535,465,o),
(442,547,o),
(270,547,cs),
(165,547,o),
(45,537,o),
(45,537,c)
);
},
{
closed = 1;
nodes = (
(45,467,l),
(227,467,l),
(227,667,l),
(45,667,l)
);
}
);
width = 550;
}
);
metricLeft = "=P";
metricRight = "=P";
unicode = 222;
},
{
glyphname = Q;
kernLeft = KO_O;
kernRight = KO_Q;
lastChange = "2024-12-31 17:36:14 +0000";
layers = (
{
layerId = m01;
shapes = (
{
closed = 1;
nodes = (
(302,-2,l),
(310,-118,o),
(362,-208,o),
(496,-208,cs),
(552,-208,o),
(600,-188,o),
(637,-159,c),
(610,-117,l),
(580,-136,o),
(548,-153,o),
(496,-153,cs),
(409,-153,o),
(367,-83,o),
(361,-2,c)
);
},
{
closed = 1;
nodes = (
(45,156,o),
(127,-8,o),
(332,-8,c),
(537,-8,o),
(619,156,o),
(619,336,cs),
(619,516,o),
(537,678,o),
(332,678,cs),
(127,678,o),
(45,516,o),
(45,336,cs)
);
},
{
closed = 1;
nodes = (
(117,493,o),
(177,618,o),
(332,618,cs),
(487,618,o),
(547,493,o),
(547,336,cs),
(547,179,o),
(487,52,o),
(332,52,cs),
(177,52,o),
(117,179,o),
(117,336,cs)
);
}
);
width = 680;
},
{
layerId = m002;
shapes = (
{
closed = 1;
nodes = (
(252,-2,l),
(260,-118,o),
(312,-208,o),
(496,-208,cs),
(552,-208,o),
(600,-188,o),
(637,-159,c),
(610,-57,l),
(580,-76,o),
(548,-93,o),
(496,-93,cs),
(449,-93,o),
(407,-83,o),
(401,-2,c)
);
},
{
closed = 1;
nodes = (
(15,154,o),
(96,-10,o),
(342,-10,cs),
(587,-10,o),
(669,154,o),
(669,334,cs),
(669,514,o),
(587,676,o),
(342,676,cs),
(96,676,o),
(15,514,o),
(15,334,cs)
);
},
{
closed = 1;
nodes = (
(207,434,o),
(227,556,o),
(342,556,cs),
(457,556,o),
(477,434,o),
(477,334,cs),
(477,234,o),
(457,110,o),
(342,110,cs),
(227,110,o),
(207,234,o),
(207,334,cs)
);
}
);
width = 684;
}
);
unicode = 81;
userData = {
KernOnName = Q;
};
},
{
glyphname = R;
kernLeft = KO_H;
kernRight = KO_R;
lastChange = "2024-12-31 17:36:14 +0000";
layers = (
{
anchors = (
{
name = bottom;
pos = (268,0);
},
{
name = top;
pos = (268,637);
}
);
layerId = m01;
shapes = (
{
closed = 1;
nodes = (
(263,302,l),
(419,0,l),
(492,0,l),
(325,309,l)
);
},
{
closed = 1;
nodes = (
(365,616,o),
(420,566,o),
(420,477,cs),
(420,390,o),
(365,342,o),
(267,342,cs),
(192,342,o),
(145,345,o),
(145,345,c),
(145,612,l),
(145,612,o),
(192,616,o),
(267,616,cs)
);
},
{
closed = 1;
nodes = (
(82,0,l),
(144,0,l),
(144,285,l),
(144,285,o),
(191,282,o),
(266,282,cs),
(399,282,o),
(492,363,o),
(492,478,cs),
(492,595,o),
(399,676,o),
(267,676,cs),
(162,676,o),
(82,667,o),
(82,667,c)
);
}
);
width = 533;
},
{
anchors = (
{
name = bottom;
pos = (287,0);
},
{
name = top;
pos = (287,657);
}
);
layerId = m002;
shapes = (
{
closed = 1;
nodes = (
(203,302,l),
(359,0,l),
(550,0,l),
(383,309,l)
);
},
{
closed = 1;
nodes = (
(315,556,o),
(343,520,o),
(343,462,cs),
(343,407,o),
(315,372,o),
(270,372,cs),
(245,372,o),
(228,375,o),
(228,375,c),
(228,553,l),
(228,553,o),
(245,556,o),
(270,556,cs)
);
},
{
closed = 1;
nodes = (
(45,0,l),
(227,0,l),
(227,255,l),
(227,255,o),
(244,252,o),
(269,252,cs),
(442,252,o),
(535,331,o),
(535,463,c),
(535,595,o),
(442,677,o),
(270,677,cs),
(165,677,o),
(45,667,o),
(45,667,c)
);
}
);
width = 573;
}
);
metricLeft = "=H";
metricRight = "=H/2";
unicode = 82;
userData = {
KernOnName = R;
};
},
{
glyphname = S;
kernLeft = KO_S;
kernRight = KO_S;
lastChange = "2024-12-31 17:36:14 +0000";
layers = (
{
anchors = (
{
name = bottom;
pos = (214,0);
},
{
name = top;
pos = (214,667);
}
);
layerId = m01;
shapes = (
{
closed = 1;
nodes = (
(447,300,o),
(376,357,o),
(213,385,cs),
(145,396,o),
(106,435,o),
(106,500,c),
(106,565,o),
(150,616,o),
(213,616,c),
(213,676,l),
(143,676,o),
(43,618,o),
(43,500,c),
(43,400,o),
(103,340,o),
(213,320,cs),
(300,305,o),
(375,274,o),
(375,194,cs),
(375,106,o),
(315,50,o),
(213,50,c),
(213,-10,l),
(373,-10,o),
(447,77,o),
(447,194,cs)
);
},
{
closed = 1;
nodes = (
(264,616,o),
(310,598,o),
(356,578,c),
(385,630,l),
(335,656,o),
(278,676,o),
(213,676,c),
(213,616,l)
);
},
{
closed = 1;
nodes = (
(162,50,o),
(116,68,o),
(70,88,c),
(41,36,l),
(91,10,o),
(148,-10,o),
(213,-10,c),
(213,50,l)
);
}
);
width = 488;
},
{
anchors = (
{
name = bottom;
pos = (236,0);
},
{
name = top;
pos = (236,667);
}
);
layerId = m002;
shapes = (
{
closed = 1;
nodes = (
(509,320,o),
(439,400,o),
(275,425,cs),
(208,435,o),
(198,469,o),
(198,500,cs),
(198,531,o),
(227,556,o),
(275,556,c),
(235,676,l),
(125,676,o),
(25,598,o),
(25,480,cs),
(25,380,o),
(85,307,o),
(195,280,cs),
(289,257,o),
(317,241,o),
(317,194,cs),
(317,137,o),
(281,120,o),
(235,120,c),
(235,-10,l),
(435,-10,o),
(509,97,o),
(509,214,cs)
);
},
{
closed = 1;
nodes = (
(324,556,o),
(355,545,o),
(418,518,c),
(447,630,l),
(397,651,o),
(327,676,o),
(235,676,c),
(275,556,l)
);
},
{
closed = 1;
nodes = (
(166,120,o),
(115,133,o),
(52,160,c),
(23,38,l),
(73,17,o),
(143,-10,o),
(235,-10,c),
(235,120,l)
);
}
);
width = 532;
}
);
metricLeft = "=H/2";
metricRight = "=|";
unicode = 83;
userData = {
KernOnName = S;
};
},
{
glyphname = Germandbls;
kernLeft = KO_H;
kernRight = KO_S;
lastChange = "2022-10-23 21:13:28 +0000";
layers = (
{
layerId = m01;
shapes = (
{
closed = 1;
nodes = (
(145,0,l),
(145,607,l),
(462,607,l),
(475,667,l),
(82,667,l),
(82,0,l)
);
},
{
closed = 1;
nodes = (
(339,50,l),
(288,50,o),
(242,68,o),
(196,88,c),
(167,36,l),
(217,10,o),
(274,-10,o),
(339,-10,c)
);
},
{
closed = 1;
nodes = (
(499,-10,o),
(573,77,o),
(573,194,cs),
(573,300,o),
(499,380,o),
(339,380,c),
(272,380,l),
(272,324,l),
(441,324,o),
(501,292,o),
(501,194,cs),
(501,106,o),
(441,50,o),
(339,50,c),
(339,-10,l)
);
},
{
closed = 1;
nodes = (
(487,607,l),
(487,667,l),
(445,667,l),
(272,380,l),
(325,350,l)
);
}
);
width = 614;
},
{
layerId = m002;
shapes = (
{
closed = 1;
nodes = (
(227,0,l),
(227,547,l),
(624,547,l),
(624,667,l),
(45,667,l),
(45,0,l)
);
},
{
closed = 1;
nodes = (
(421,110,l),
(370,110,o),
(324,128,o),
(278,148,c),
(249,36,l),
(299,10,o),
(356,-10,o),
(421,-10,c)
);
},
{
closed = 1;
nodes = (
(621,-10,o),
(695,77,o),
(695,194,cs),
(695,300,o),
(621,410,o),
(441,410,c),
(289,410,l),
(289,295,l),
(467,295,o),
(503,252,o),
(503,194,cs),
(503,136,o),
(467,110,o),
(421,110,c),
(421,-10,l)
);
},
{
closed = 1;
nodes = (
(624,547,l),
(619,667,l),
(562,667,l),
(289,410,l),
(442,380,l)
);
}
);
width = 718;
}
);
metricLeft = "=H";
metricRight = "=S";
unicode = 7838;
},
{
glyphname = T;
kernLeft = KO_T;
kernRight = KO_T;
lastChange = "2024-12-31 17:36:14 +0000";
layers = (
{
anchors = (
{
name = bottom;
pos = (243,0);
},
{
name = center;
pos = (243,333);
},
{
name = top;
pos = (243,637);
}
);
layerId = m01;
shapes = (
{
closed = 1;
nodes = (
(273,607,l),
(460,607,l),
(460,667,l),
(25,667,l),
(25,607,l),
(210,607,l),
(210,0,l),
(273,0,l)
);
}
);
width = 485;
},
{
anchors = (
{
name = bottom;
pos = (271,0);
},
{
name = center;
pos = (271,334);
},
{
name = top;
pos = (271,657);
}
);
layerId = m002;
shapes = (
{
closed = 1;
nodes = (
(362,527,l),
(527,527,l),
(527,667,l),
(15,667,l),
(15,527,l),
(180,527,l),
(180,0,l),
(362,0,l)
);
}
);
width = 542;
}
);
unicode = 84;
userData = {
KernOnName = T;
};
},
{
glyphname = U;
kernLeft = KO_U;
kernRight = KO_U;
lastChange = "2025-01-04 17:25:35 +0000";
layers = (
{
anchors = (
{
name = bottom;
pos = (309,0);
},
{
name = ogonek;
pos = (378,0);
},
{
name = top;
pos = (309,637);
},
{
name = topright;
pos = (598,637);
}
);
layerId = m01;
shapes = (
{
closed = 1;
nodes = (
(473,336,l),
(473,131,o),
(428,52,o),
(309,52,c),
(190,52,o),
(145,131,o),
(145,336,c),
(82,336,l),
(82,87,o),
(145,-8,o),
(309,-8,c),
(473,-8,o),
(536,87,o),
(536,336,c)
);
},
{
closed = 1;
nodes = (
(473,336,l),
(536,336,l),
(536,667,l),
(473,667,l)
);
},
{
closed = 1;
nodes = (
(145,667,l),
(82,667,l),
(82,336,l),
(145,336,l)
);
}
);
width = 618;
},
{
anchors = (
{
name = bottom;
pos = (309,0);
},
{
name = ogonek;
pos = (400,0);
},
{
name = top;
pos = (309,657);
},
{
name = topright;
pos = (598,657);
}
);
layerId = m002;
shapes = (
{
closed = 1;
nodes = (
(393,336,l),
(393,191,o),
(388,112,o),
(309,112,c),
(230,112,o),
(225,191,o),
(225,336,c),
(42,336,l),
(42,87,o),
(105,-8,o),
(309,-8,c),
(513,-8,o),
(576,87,o),
(576,336,c)
);
},
{
closed = 1;
nodes = (
(393,336,l),
(576,336,l),
(576,667,l),
(393,667,l)
);
},
{
closed = 1;
nodes = (
(225,667,l),
(42,667,l),
(42,336,l),
(225,336,l)
);
}
);
width = 618;
}
);
metricRight = "=|";
unicode = 85;
userData = {
KernOnName = U;
};
},
{
glyphname = V;
kernLeft = KO_V;
kernRight = KO_V;
lastChange = "2024-12-31 17:36:14 +0000";
layers = (
{
layerId = m01;
shapes = (
{
closed = 1;
nodes = (
(72,667,l),
(0,667,l),
(216,0,l),
(292,0,l),
(508,667,l),
(435,667,l),
(254,69,l)
);
}
);
width = 508;
},
{
layerId = m002;
shapes = (
{
closed = 1;
nodes = (
(211,667,l),
(11,667,l),
(201,0,l),
(401,0,l),
(591,667,l),
(391,667,l),
(301,259,l)
);
}
);
width = 602;
}
);
unicode = 86;
userData = {
KernOnName = V;
};
},
{
glyphname = W;
kernLeft = KO_W;
kernRight = KO_W;
lastChange = "2024-12-31 17:36:14 +0000";
layers = (
{
anchors = (
{
name = bottom;
pos = (394,0);
},
{
name = top;
pos = (394,637);
}
);
layerId = m01;
shapes = (
{
closed = 1;
nodes = (
(67,667,l),
(0,667,l),
(176,0,l),
(252,0,l),
(418,667,l),
(360,667,l),
(214,69,l)
);
},
{
closed = 1;
nodes = (
(427,667,l),
(370,667,l),
(536,0,l),
(612,0,l),
(788,667,l),
(720,667,l),
(574,69,l)
);
}
);
width = 788;
},
{
anchors = (
{
name = bottom;
pos = (451,0);
},
{
name = top;
pos = (451,657);
}
);
layerId = m002;
shapes = (
{
closed = 1;
nodes = (
(211,667,l),
(11,667,l),
(171,0,l),
(371,0,l),
(541,667,l),
(371,667,l),
(281,267,l)
);
},
{
closed = 1;
nodes = (
(541,667,l),
(371,667,l),
(531,0,l),
(731,0,l),
(891,667,l),
(691,667,l),
(621,267,l)
);
}
);
width = 902;
}
);
metricLeft = "=V";
metricRight = "=V";
unicode = 87;
userData = {
KernOnName = W;
};
},
{
glyphname = X;
kernLeft = KO_X;
kernRight = KO_X;
lastChange = "2024-12-31 17:36:14 +0000";
layers = (
{
layerId = m01;
shapes = (
{
closed = 1;
nodes = (
(420,0,l),
(494,0,l),
(298,350,l),
(485,667,l),
(413,667,l),
(227,350,l)
);
},
{
closed = 1;
nodes = (
(102,667,l),
(30,667,l),
(217,350,l),
(21,0,l),
(95,0,l),
(288,350,l)
);
}
);
width = 515;
},
{
layerId = m002;
shapes = (
{
closed = 1;
nodes = (
(380,0,l),
(584,0,l),
(408,350,l),
(575,667,l),
(373,667,l),
(227,350,l)
);
},
{
closed = 1;
nodes = (
(222,667,l),
(20,667,l),
(187,350,l),
(11,0,l),
(215,0,l),
(368,350,l)
);
}
);
width = 595;
}
);
metricLeft = "=|";
metricRight = "=K";
unicode = 88;
userData = {
KernOnName = X;
};
},
{
glyphname = Y;
kernLeft = KO_Y;
kernRight = KO_Y;
lastChange = "2024-12-31 17:36:14 +0000";
layers = (
{
anchors = (
{
name = bottom;
pos = (254,0);
},
{
name = top;
pos = (254,637);
},
{
name = topleft;
pos = (20,637);
}
);
layerId = m01;
shapes = (
{
closed = 1;
nodes = (
(72,667,l),
(0,667,l),
(223,300,l),
(286,300,l),
(508,667,l),
(435,667,l),
(254,370,l)
);
},
{
closed = 1;
nodes = (
(223,0,l),
(286,0,l),
(286,330,l),
(223,330,l)
);
}
);
width = 508;
},
{
anchors = (
{
name = bottom;
pos = (294,0);
},
{
name = top;
pos = (294,657);
},
{
name = topleft;
pos = (20,657);
}
);
layerId = m002;
shapes = (
{
closed = 1;
nodes = (
(207,667,l),
(0,667,l),
(203,251,l),
(386,251,l),
(588,667,l),
(380,667,l),
(294,460,l)
);
},
{
closed = 1;
nodes = (
(203,0,l),
(386,0,l),
(386,330,l),
(203,330,l)
);
}
);
width = 588;
}
);
unicode = 89;
userData = {
KernOnName = Y;
};
},
{
glyphname = Z;
kernLeft = KO_Z;
kernRight = KO_Z;
lastChange = "2024-12-31 17:36:14 +0000";
layers = (
{
anchors = (
{
name = bottom;
pos = (260,0);
},
{
name = center;
pos = (260,334);
},
{
name = top;
pos = (260,637);
}
);
layerId = m01;
shapes = (
{
closed = 1;
nodes = (
(30,60,l),
(31,0,l),
(475,0,l),
(485,60,l),
(105,60,l),
(475,607,l),
(475,667,l),
(55,667,l),
(55,607,l),
(400,607,l)
);
}
);
width = 520;
},
{
anchors = (
{
name = bottom;
pos = (280,0);
},
{
name = center;
pos = (280,334);
},
{
name = top;
pos = (280,657);
}
);
layerId = m002;
shapes = (
{
closed = 1;
nodes = (
(5,140,l),
(6,0,l),
(520,0,l),
(540,140,l),
(195,140,l),
(530,527,l),
(530,667,l),
(30,667,l),
(30,527,l),
(340,527,l)
);
}
);
width = 560;
}
);
unicode = 90;
userData = {
KernOnName = Z;
};
},
{
glyphname = Saltillo;
lastChange = "2022-10-23 18:38:10 +0000";
layers = (
{
layerId = m01;
shapes = (
{
closed = 1;
nodes = (
(70,180,l),
(130,180,l),
(140,750,l),
(60,750,l)
);
}
);
width = 200;
},
{
layerId = m002;
shapes = (
{
closed = 1;
nodes = (
(45,250,l),
(205,250,l),
(225,750,l),
(25,750,l)
);
}
);
width = 250;
}
);
metricLeft = "=i";
metricRight = "=|";
unicode = 42891;
},
{
glyphname = Eth.001;
lastChange = "2022-10-23 20:23:11 +0000";
layers = (
{
layerId = m01;
shapes = (
{
closed = 1;
nodes = (
(277,0,l),
(482,0,o),
(567,156,o),
(567,336,cs),
(567,516,o),
(482,676,o),
(267,676,c),
(162,676,o),
(82,667,o),
(82,667,c),
(82,0,l)
);
},
{
closed = 1;
nodes = (
(277,320,l),
(277,380,l),
(0,380,l),
(0,320,l)
);
},
{
closed = 1;
nodes = (
(145,612,l),
(145,612,o),
(192,616,o),
(267,616,cs),
(432,616,o),
(495,493,o),
(495,336,cs),
(495,179,o),
(432,60,o),
(277,60,cs),
(217,60,o),
(145,60,o),
(145,60,c)
);
}
);
width = 612;
},
{
layerId = m002;
shapes = (
{
closed = 1;
nodes = (
(280,0,l),
(525,0,o),
(610,156,o),
(610,336,cs),
(610,516,o),
(525,676,o),
(270,676,c),
(125,676,o),
(45,667,o),
(45,667,c),
(45,0,l)
);
},
{
closed = 1;
nodes = (
(355,280,l),
(355,420,l),
(0,420,l),
(0,280,l)
);
},
{
closed = 1;
nodes = (
(238,555,l),
(238,555,o),
(245,556,o),
(270,556,cs),
(355,556,o),
(418,493,o),
(418,336,cs),
(418,179,o),
(355,120,o),
(280,120,cs),
(270,120,o),
(238,120,o),
(238,120,c)
);
}
);
width = 625;
}
);
metricRight = "=D";
},
{
glyphname = K.salt;
kernLeft = KO_H;
kernRight = KO_K.salt;
lastChange = "2022-11-13 02:12:53 +0000";
layers = (
{
layerId = m01;
shapes = (
{
closed = 1;
nodes = (
(144,666,l),
(82,666,l),
(82,0,l),
(144,0,l)
);
},
{
closed = 1;
nodes = (
(437,0,l),
(521,0,l),
(225,350,l),
(512,667,l),
(430,667,l),
(144,350,l)
);
}
);
width = 542;
},
{
layerId = m002;
shapes = (
{
closed = 1;
nodes = (
(227,666,l),
(45,666,l),
(45,0,l),
(227,0,l)
);
},
{
closed = 1;
nodes = (
(361,0,l),
(557,0,l),
(380,350,l),
(547,667,l),
(353,667,l),
(187,350,l)
);
}
);
width = 557;
}
);
metricLeft = "=H";
},
{
glyphname = M.salt;
kernLeft = KO_H;
kernRight = KO_H;
lastChange = "2022-11-13 01:56:02 +0000";
layers = (
{
anchors = (
{
name = bottom;
pos = (367,0);
},
{
name = top;
pos = (367,667);
}
);
layerId = m01;
shapes = (
{
closed = 1;
nodes = (
(145,666,l),
(82,666,l),
(82,0,l),
(145,0,l)
);
},
{
closed = 1;
nodes = (
(652,666,l),
(589,666,l),
(589,0,l),
(652,0,l)
);
},
{
closed = 1;
nodes = (
(180,666,l),
(113,666,l),
(329,-1,l),
(405,-1,l),
(621,666,l),
(553,666,l),
(367,68,l)
);
}
);
width = 734;
},
{
anchors = (
{
name = bottom;
pos = (385,0);
},
{
name = top;
pos = (385,667);
}
);
layerId = m002;
shapes = (
{
closed = 1;
nodes = (
(228,666,l),
(45,666,l),
(45,0,l),
(228,0,l)
);
},
{
closed = 1;
nodes = (
(725,666,l),
(542,666,l),
(542,0,l),
(725,0,l)
);
},
{
closed = 1;
nodes = (
(285,667,l),
(145,667,l),
(325,0,l),
(445,0,l),
(625,667,l),
(485,667,l),
(385,310,l)
);
}
);
width = 770;
}
);
metricLeft = "=H";
metricRight = "=H";
},
{
export = 0;
glyphname = Dcroat.001;
lastChange = "2024-11-30 22:42:51 +0000";
layers = (
{
layerId = m01;
shapes = (
{
closed = 1;
nodes = (
(277,0,l),
(482,0,o),
(567,156,o),
(567,336,cs),
(567,516,o),
(482,676,o),
(267,676,c),
(162,676,o),
(82,667,o),
(82,667,c),
(82,0,l)
);
},
{
closed = 1;
nodes = (
(277,320,l),
(277,380,l),
(0,380,l),
(0,320,l)
);
},
{
closed = 1;
nodes = (
(145,612,l),
(145,612,o),
(192,616,o),
(267,616,cs),
(432,616,o),
(495,493,o),
(495,336,cs),
(495,179,o),
(432,60,o),
(277,60,cs),
(217,60,o),
(145,60,o),
(145,60,c)
);
}
);
width = 612;
},
{
layerId = m002;
shapes = (
{
closed = 1;
nodes = (
(280,0,l),
(525,0,o),
(610,156,o),
(610,336,cs),
(610,516,o),
(525,676,o),
(270,676,c),
(125,676,o),
(45,667,o),
(45,667,c),
(45,0,l)
);
},
{
closed = 1;
nodes = (
(355,290,l),
(355,410,l),
(0,410,l),
(0,290,l)
);
},
{
closed = 1;
nodes = (
(238,555,l),
(238,555,o),
(245,556,o),
(270,556,cs),
(355,556,o),
(418,493,o),
(418,336,cs),
(418,179,o),
(355,120,o),
(280,120,cs),
(270,120,o),
(238,120,o),
(238,120,c)
);
}
);
width = 625;
}
);
metricRight = "=D";
},
{
export = 0;
glyphname = S.001;
lastChange = "2022-10-16 14:25:47 +0000";
layers = (
{
layerId = m01;
shapes = (
{
closed = 1;
nodes = (
(451,309,o),
(372,359,o),
(215,385,cs),
(167,393,o),
(115,433,o),
(115,500,cs),
(115,567,o),
(153,616,o),
(220,616,cs),
(287,616,o),
(310,606,o),
(365,578,c),
(388,630,l),
(335,656,o),
(287,676,o),
(217,676,c),
(147,676,o),
(52,618,o),
(52,500,cs),
(52,382,o),
(147,332,o),
(219,320,cs),
(306,305,o),
(379,274,o),
(379,194,cs),
(379,106,o),
(319,50,o),
(217,50,cs),
(168,50,o),
(131,58,o),
(69,90,c),
(45,38,l),
(99,5,o),
(151,-10,o),
(217,-10,c),
(377,-10,o),
(451,77,o),
(451,194,cs)
);
}
);
width = 496;
},
{
layerId = m002;
width = 600;
}
);
},
{
export = 0;
glyphname = Germandbls.001;
lastChange = "2022-10-21 20:45:27 +0000";
layers = (
{
layerId = m01;
shapes = (
{
closed = 1;
nodes = (
(573,300,o),
(504,373,o),
(339,380,cs),
(289,382,o),
(287,383,o),
(287,383,c),
(247,325,l),
(247,325,o),
(301,327,o),
(339,320,cs),
(426,305,o),
(501,274,o),
(501,194,cs),
(501,106,o),
(441,50,o),
(339,50,c),
(339,-10,l),
(499,-10,o),
(573,77,o),
(573,194,cs)
);
},
{
closed = 1;
nodes = (
(288,50,o),
(242,68,o),
(196,88,c),
(167,36,l),
(217,10,o),
(274,-10,o),
(339,-10,c),
(339,50,l)
);
},
{
closed = 1;
nodes = (
(300,350,l),
(462,607,l),
(457,667,l),
(420,667,l),
(247,380,l)
);
},
{
closed = 1;
nodes = (
(302,325,l),
(302,380,l),
(247,380,l),
(247,325,l)
);
},
{
closed = 1;
nodes = (
(82,0,l),
(145,0,l),
(145,607,l),
(462,607,l),
(462,667,l),
(82,667,l)
);
}
);
width = 614;
},
{
layerId = m002;
shapes = (
{
closed = 1;
nodes = (
(695,300,o),
(626,403,o),
(441,410,cs),
(391,412,o),
(389,413,o),
(389,413,c),
(289,295,l),
(289,295,o),
(384,302,o),
(421,290,cs),
(468,275,o),
(503,244,o),
(503,194,cs),
(503,136,o),
(467,110,o),
(421,110,c),
(421,-10,l),
(621,-10,o),
(695,77,o),
(695,194,cs)
);
},
{
closed = 1;
nodes = (
(370,110,o),
(324,128,o),
(278,148,c),
(249,36,l),
(299,10,o),
(356,-10,o),
(421,-10,c),
(421,110,l)
);
},
{
closed = 1;
nodes = (
(442,380,l),
(584,547,l),
(579,667,l),
(522,667,l),
(289,410,l)
);
},
{
closed = 1;
nodes = (
(289,295,l),
(404,410,l),
(289,410,l),
(289,295,l)
);
},
{
closed = 1;
nodes = (
(45,0,l),
(227,0,l),
(227,547,l),
(584,547,l),
(584,667,l),
(45,667,l)
);
}
);
width = 718;
}
);
metricLeft = "=H";
metricRight = "=S";
},
{
export = 0;
glyphname = Tbar.001;
lastChange = "2022-10-23 20:13:32 +0000";
layers = (
{
anchors = (
{
name = bottom;
pos = (243,0);
},
{
name = center;
pos = (243,333);
},
{
name = top;
pos = (243,637);
}
);
layerId = m01;
shapes = (
{
closed = 1;
nodes = (
(273,607,l),
(460,607,l),
(460,667,l),
(25,667,l),
(25,607,l),
(210,607,l),
(210,0,l),
(273,0,l)
);
},
{
closed = 1;
nodes = (
(368,303,l),
(368,363,l),
(118,363,l),
(118,303,l)
);
}
);
width = 485;
},
{
anchors = (
{
name = bottom;
pos = (271,0);
},
{
name = center;
pos = (271,334);
},
{
name = top;
pos = (271,657);
}
);
layerId = m002;
shapes = (
{
closed = 1;
nodes = (
(362,527,l),
(527,527,l),
(527,667,l),
(15,667,l),
(15,527,l),
(180,527,l),
(180,0,l),
(362,0,l)
);
},
{
closed = 1;
nodes = (
(456,273,l),
(456,393,l),
(86,393,l),
(86,273,l)
);
}
);
width = 542;
}
);
},
{
glyphname = a;
kernLeft = KO_a;
kernRight = KO_n;
lastChange = "2025-01-04 00:02:33 +0000";
layers = (
{
anchors = (
{
name = bottom;
pos = (248,0);
},
{
name = ogonek;
pos = (454,10);
},
{
name = top;
pos = (255,500);
}
);
layerId = m002;
shapes = (
{
closed = 1;
nodes = (
(240,107,l),
(215,107,o),
(195,122,o),
(195,153,cs),
(195,193,o),
(215,220,o),
(290,220,c),
(290,305,l),
(265,305,l),
(103,305,o),
(15,259,o),
(15,153,cs),
(15,61,o),
(77,-8,o),
(180,-8,c)
);
},
{
closed = 1;
nodes = (
(87,353,o),
(163,392,o),
(225,392,c),
(255,508,l),
(144,508,o),
(45,455,o),
(45,455,c),
(87,353,l)
);
},
{
closed = 1;
nodes = (
(470,302,ls),
(470,434,o),
(407,508,o),
(255,508,c),
(225,392,l),
(281,392,o),
(290,370,o),
(290,305,c),
(470,220,l)
);
},
{
closed = 1;
nodes = (
(400,180,o),
(275,107,o),
(240,107,c),
(180,-8,l),
(291,-8,o),
(400,180,o),
(400,180,c),
(400,180,l)
);
},
{
closed = 1;
nodes = (
(470,220,l),
(290,305,l),
(290,60,l),
(470,45,l)
);
},
{
closed = 1;
nodes = (
(320,0,l),
(470,0,l),
(470,140,l),
(290,60,l)
);
}
);
width = 505;
},
{
anchors = (
{
name = bottom;
pos = (227,0);
},
{
name = ogonek;
pos = (417,0);
},
{
name = top;
pos = (222,500);
}
);
layerId = m01;
shapes = (
{
closed = 1;
nodes = (
(227,47,l),
(143,47,o),
(102,92,o),
(102,153,cs),
(102,223,o),
(173,250,o),
(357,250,c),
(357,305,l),
(332,305,l),
(130,305,o),
(42,259,o),
(42,153,cs),
(42,61,o),
(104,-8,o),
(227,-8,c)
);
},
{
closed = 1;
nodes = (
(94,413,o),
(160,452,o),
(222,452,c),
(222,508,l),
(141,508,o),
(67,461,o),
(67,461,c),
(94,413,l)
);
},
{
closed = 1;
nodes = (
(417,302,ls),
(417,449,o),
(361,508,o),
(222,508,c),
(222,452,l),
(323,452,o),
(357,415,o),
(357,305,c),
(417,250,l)
);
},
{
closed = 1;
nodes = (
(385,160,o),
(311,47,o),
(227,47,c),
(227,-8,l),
(350,-8,o),
(417,140,o),
(417,140,c),
(385,160,l)
);
},
{
closed = 1;
nodes = (
(417,250,l),
(357,305,l),
(357,60,l),
(417,45,l)
);
},
{
closed = 1;
nodes = (
(387,0,l),
(417,0,l),
(417,140,l),
(357,60,l)
);
}
);
width = 492;
}
);
metricLeft = "=o";
unicode = 97;
userData = {
KernOnName = a;
};
},
{
glyphname = ae;
kernLeft = KO_a;
kernRight = KO_e.salt;
lastChange = "2024-04-20 19:31:16 +0000";
layers = (
{
layerId = m01;
shapes = (
{
closed = 1;
nodes = (
(606,195,o),
(732,223,o),
(732,347,cs),
(732,439,o),
(670,508,o),
(561,508,cs),
(415,508,o),
(357,379,o),
(357,250,c),
(417,250,l),
(417,354,o),
(450,453,o),
(561,453,cs),
(631,453,o),
(672,408,o),
(672,347,cs),
(672,253,o),
(536,246,o),
(417,251,c),
(417,196,l),
(495,195,ls)
);
},
{
closed = 1;
nodes = (
(227,47,l),
(143,47,o),
(102,92,o),
(102,153,cs),
(102,223,o),
(173,250,o),
(357,250,c),
(357,305,l),
(332,305,ls),
(130,305,o),
(42,259,o),
(42,153,cs),
(42,61,o),
(104,-8,o),
(227,-8,c)
);
},
{
closed = 1;
nodes = (
(350,-8,o),
(417,121,o),
(417,121,c),
(385,160,l),
(385,160,o),
(319,47,o),
(227,47,c),
(227,-8,l)
);
},
{
closed = 1;
nodes = (
(532,48,l),
(452,48,o),
(417,93,o),
(417,250,c),
(357,250,l),
(357,66,o),
(420,-8,o),
(532,-8,c)
);
},
{
closed = 1;
nodes = (
(417,125,l),
(417,250,l),
(357,305,l),
(357,90,l)
);
},
{
closed = 1;
nodes = (
(94,413,o),
(160,452,o),
(222,452,c),
(222,508,l),
(141,508,o),
(67,461,o),
(67,461,c),
(94,413,l)
);
},
{
closed = 1;
nodes = (
(643,-8,o),
(722,39,o),
(722,39,c),
(695,87,l),
(695,87,o),
(624,48,o),
(532,48,c),
(532,-8,l)
);
},
{
closed = 1;
nodes = (
(417,302,ls),
(417,434,o),
(368,508,o),
(222,508,c),
(222,452,l),
(332,452,o),
(357,407,o),
(357,305,c),
(417,250,l)
);
}
);
width = 774;
},
{
layerId = m002;
shapes = (
{
closed = 1;
nodes = (
(619,195,o),
(745,223,o),
(745,347,cs),
(745,439,o),
(683,508,o),
(534,508,cs),
(358,508,o),
(300,379,o),
(300,250,c),
(470,250,l),
(470,347,o),
(494,393,o),
(534,393,cs),
(574,393,o),
(585,367,o),
(585,347,cs),
(585,327,o),
(574,301,o),
(470,306,c),
(390,196,l),
(468,195,ls)
);
},
{
closed = 1;
nodes = (
(240,107,l),
(215,107,o),
(195,122,o),
(195,153,cs),
(195,193,o),
(215,220,o),
(290,220,c),
(290,305,l),
(265,305,ls),
(103,305,o),
(15,259,o),
(15,153,cs),
(15,61,o),
(77,-8,o),
(180,-8,c)
);
},
{
closed = 1;
nodes = (
(291,-8,o),
(400,121,o),
(400,121,c),
(400,180,l),
(400,180,o),
(275,107,o),
(240,107,c),
(180,-8,l)
);
},
{
closed = 1;
nodes = (
(545,108,l),
(485,108,o),
(470,133,o),
(470,250,c),
(300,250,l),
(300,66,o),
(393,-8,o),
(505,-8,c)
);
},
{
closed = 1;
nodes = (
(470,125,l),
(470,220,l),
(290,305,l),
(290,90,l)
);
},
{
closed = 1;
nodes = (
(87,353,o),
(163,392,o),
(225,392,c),
(255,508,l),
(144,508,o),
(45,455,o),
(45,455,c),
(87,353,l)
);
},
{
closed = 1;
nodes = (
(666,-8,o),
(755,45,o),
(755,45,c),
(713,147,l),
(713,147,o),
(627,108,o),
(545,108,c),
(505,-8,l)
);
},
{
closed = 1;
nodes = (
(470,302,ls),
(470,434,o),
(407,508,o),
(255,508,c),
(225,392,l),
(281,392,o),
(290,370,o),
(290,305,c),
(470,220,l)
);
}
);
width = 770;
}
);
metricLeft = "=a";
metricRight = "=e";
unicode = 230;
},
{
glyphname = b;
kernLeft = KO_i;
kernRight = KO_o;
lastChange = "2024-12-31 17:36:14 +0000";
layers = (
{
anchors = (
{
name = bottom;
pos = (266,0);
},
{
name = center;
pos = (256,250);
},
{
name = top;
pos = (266,500);
}
);
layerId = m01;
shapes = (
{
closed = 1;
nodes = (
(135,700,l),
(75,700,l),
(75,70,l),
(135,60,l)
);
},
{
closed = 1;
nodes = (
(75,70,l),
(75,0,l),
(105,0,l),
(135,60,l)
);
},
{
closed = 1;
nodes = (
(75,140,l),
(75,140,o),
(154,-8,o),
(265,-8,c),
(265,47,l),
(173,47,o),
(107,150,o),
(107,150,c)
);
},
{
closed = 1;
nodes = (
(107,350,o),
(173,452,o),
(265,452,c),
(265,508,l),
(154,508,o),
(75,360,o),
(75,360,c),
(107,350,l)
);
},
{
closed = 1;
nodes = (
(376,452,o),
(408,354,o),
(408,250,cs),
(408,145,o),
(376,47,o),
(265,47,c),
(265,-8,l),
(411,-8,o),
(470,121,o),
(470,250,cs),
(470,379,o),
(411,508,o),
(265,508,c),
(265,452,l)
);
}
);
width = 512;
},
{
anchors = (
{
name = bottom;
pos = (263,0);
},
{
name = center;
pos = (263,250);
},
{
name = top;
pos = (263,500);
}
);
layerId = m002;
shapes = (
{
closed = 1;
nodes = (
(215,700,l),
(35,700,l),
(35,70,l),
(215,60,l)
);
},
{
closed = 1;
nodes = (
(35,70,l),
(35,0,l),
(185,0,l),
(215,60,l)
);
},
{
closed = 1;
nodes = (
(105,170,l),
(105,170,o),
(214,-8,o),
(325,-8,c),
(265,107,l),
(230,107,o),
(105,170,o),
(105,170,c)
);
},
{
closed = 1;
nodes = (
(105,330,o),
(230,392,o),
(265,392,c),
(325,508,l),
(214,508,o),
(105,330,o),
(105,330,c),
(105,330,l)
);
},
{
closed = 1;
nodes = (
(326,392,o),
(328,294,o),
(328,250,cs),
(328,205,o),
(326,107,o),
(265,107,c),
(325,-8,l),
(451,-8,o),
(510,121,o),
(510,250,cs),
(510,379,o),
(451,508,o),
(325,508,c),
(265,392,l)
);
}
);
width = 525;
}
);
metricLeft = "=h";
metricRight = "=o";
unicode = 98;
userData = {
KernOnName = b;
};
},
{
glyphname = c;
kernLeft = KO_e;
kernRight = KO_c;
lastChange = "2024-12-31 17:36:14 +0000";
layers = (
{
anchors = (
{
name = bottom;
pos = (246,0);
},
{
name = top;
pos = (246,500);
}
);
layerId = m01;
shapes = (
{
closed = 1;
nodes = (
(247,47,l),
(136,47,o),
(104,145,o),
(104,250,cs),
(104,354,o),
(136,453,o),
(247,453,c),
(247,508,l),
(101,508,o),
(42,379,o),
(42,250,cs),
(42,121,o),
(101,-8,o),
(247,-8,c)
);
},
{
closed = 1;
nodes = (
(320,-8,o),
(380,32,o),
(412,55,c),
(377,99,l),
(351,79,o),
(309,47,o),
(246,47,c),
(246,-8,l)
);
},
{
closed = 1;
nodes = (
(412,444,l),
(381,467,o),
(320,508,o),
(246,508,c),
(246,453,l),
(308,453,o),
(350,422,o),
(377,402,c)
);
}
);
width = 433;
},
{
anchors = (
{
name = bottom;
pos = (262,0);
},
{
name = top;
pos = (262,500);
}
);
layerId = m002;
shapes = (
{
closed = 1;
nodes = (
(260,107,l),
(197,107,o),
(197,205,o),
(197,250,c),
(197,294,o),
(197,392,o),
(260,392,c),
(260,508,l),
(74,508,o),
(15,379,o),
(15,250,c),
(15,121,o),
(74,-8,o),
(260,-8,c)
);
},
{
closed = 1;
nodes = (
(373,-8,o),
(424,32,o),
(455,55,c),
(400,140,l),
(363,120,o),
(310,107,o),
(259,107,c),
(259,-8,l)
);
},
{
closed = 1;
nodes = (
(455,445,l),
(424,468,o),
(374,508,o),
(260,508,c),
(260,392,l),
(310,392,o),
(363,380,o),
(400,360,c)
);
}
);
width = 463;
}
);
metricLeft = "=o";
metricRight = "=o/2";
unicode = 99;
userData = {
KernOnName = c;
};
},
{
glyphname = d;
kernLeft = KO_e;
kernRight = KO_i;
lastChange = "2024-12-31 17:36:14 +0000";
layers = (
{
anchors = (
{
name = bottom;
pos = (246,0);
},
{
name = center;
pos = (377,600);
},
{
name = top;
pos = (246,700);
},
{
name = topright;
pos = (492,700);
}
);
layerId = m01;
shapes = (
{
closed = 1;
nodes = (
(437,70,l),
(437,700,l),
(377,700,l),
(377,60,l)
);
},
{
closed = 1;
nodes = (
(407,0,l),
(437,0,l),
(437,70,l),
(377,60,l)
);
},
{
closed = 1;
nodes = (
(405,150,o),
(339,47,o),
(247,47,c),
(247,-8,l),
(358,-8,o),
(437,140,o),
(437,140,c),
(405,150,l)
);
},
{
closed = 1;
nodes = (
(437,360,l),
(437,360,o),
(358,508,o),
(247,508,c),
(247,452,l),
(339,452,o),
(405,350,o),
(405,350,c)
);
},
{
closed = 1;
nodes = (
(247,508,l),
(101,508,o),
(42,379,o),
(42,250,cs),
(42,121,o),
(101,-8,o),
(247,-8,c),
(247,47,l),
(136,47,o),
(104,145,o),
(104,250,cs),
(104,354,o),
(136,452,o),
(247,452,c)
);
}
);
width = 512;
},
{
anchors = (
{
name = bottom;
pos = (263,0);
},
{
name = center;
pos = (370,600);
},
{
name = top;
pos = (263,700);
},
{
name = topright;
pos = (505,700);
}
);
layerId = m002;
shapes = (
{
closed = 1;
nodes = (
(490,70,l),
(490,700,l),
(310,700,l),
(310,60,l)
);
},
{
closed = 1;
nodes = (
(340,0,l),
(490,0,l),
(490,70,l),
(310,60,l)
);
},
{
closed = 1;
nodes = (
(420,170,o),
(295,107,o),
(260,107,c),
(200,-8,l),
(311,-8,o),
(420,170,o),
(420,170,c),
(420,170,l)
);
},
{
closed = 1;
nodes = (
(420,330,l),
(420,330,o),
(311,508,o),
(200,508,c),
(260,392,l),
(295,392,o),
(420,330,o),
(420,330,c)
);
},
{
closed = 1;
nodes = (
(200,508,l),
(74,508,o),
(15,379,o),
(15,250,cs),
(15,121,o),
(74,-8,o),
(200,-8,c),
(260,107,l),
(199,107,o),
(197,205,o),
(197,250,cs),
(197,294,o),
(199,392,o),
(260,392,c)
);
}
);
width = 525;
}
);
metricLeft = "=o";
metricRight = "=|h";
unicode = 100;
userData = {
KernOnName = d;
};
},
{
glyphname = eth;
kernLeft = KO_eth;
lastChange = "2022-10-23 21:31:42 +0000";
layers = (
{
layerId = m01;
shapes = (
{
closed = 1;
nodes = (
(465,407,o),
(430,674,o),
(132,677,c),
(132,626,l),
(263,622,o),
(378,566,o),
(408,317,c),
(371,392,o),
(294,403,o),
(255,403,cs),
(105,403,o),
(45,291,o),
(45,197,cs),
(45,103,o),
(105,-10,o),
(255,-10,cs),
(405,-10,o),
(465,103,o),
(465,248,cs)
);
},
{
closed = 1;
nodes = (
(398,132,o),
(365,45,o),
(255,45,cs),
(145,45,o),
(112,132,o),
(112,197,cs),
(112,262,o),
(145,348,o),
(255,348,cs),
(365,348,o),
(398,262,o),
(398,197,cs)
);
},
{
closed = 1;
nodes = (
(225,500,l),
(268,458,l),
(445,634,l),
(402,677,l)
);
}
);
width = 507;
},
{
layerId = m002;
shapes = (
{
closed = 1;
nodes = (
(515,407,o),
(480,674,o),
(102,677,c),
(102,556,l),
(265,556,o),
(313,481,o),
(333,402,c),
(333,402,o),
(305,433,o),
(245,433,cs),
(95,433,o),
(15,331,o),
(15,212,cs),
(15,93,o),
(95,-10,o),
(265,-10,cs),
(435,-10,o),
(515,103,o),
(515,248,cs)
);
},
{
closed = 1;
nodes = (
(333,177,o),
(328,105,o),
(265,105,cs),
(202,105,o),
(197,177,o),
(197,212,c),
(197,247,o),
(202,318,o),
(265,318,cs),
(328,318,o),
(333,247,o),
(333,212,cs)
);
},
{
closed = 1;
nodes = (
(170,497,l),
(245,449,l),
(382,657,l),
(305,707,l)
);
}
);
width = 530;
}
);
unicode = 240;
},
{
glyphname = e;
kernLeft = KO_e;
kernRight = KO_e;
lastChange = "2025-01-04 17:21:25 +0000";
layers = (
{
anchors = (
{
name = bottom;
pos = (247,0);
},
{
name = ogonek;
pos = (247,-8);
},
{
name = top;
pos = (247,500);
}
);
layerId = m01;
shapes = (
{
closed = 1;
nodes = (
(102,354,o),
(136,453,o),
(247,453,c),
(247,508,l),
(101,508,o),
(42,379,o),
(42,250,c),
(102,225,l)
);
},
{
closed = 1;
nodes = (
(247,48,l),
(137,48,o),
(102,145,o),
(102,225,c),
(42,250,l),
(42,250,ls),
(42,121,o),
(101,-8,o),
(247,-8,c)
);
},
{
closed = 1;
nodes = (
(328,-8,o),
(402,39,o),
(402,39,c),
(375,87,l),
(375,87,o),
(309,48,o),
(247,48,c),
(247,-8,l)
);
},
{
closed = 1;
nodes = (
(427,225,l),
(417,275,l),
(86,275,l),
(86,225,l)
);
},
{
closed = 1;
nodes = (
(427,225,l),
(427,379,o),
(403,508,o),
(247,508,c),
(247,453,l),
(368,453,o),
(365,354,o),
(365,225,c)
);
}
);
width = 469;
},
{
anchors = (
{
name = bottom;
pos = (230,0);
},
{
name = ogonek;
pos = (440,45);
},
{
name = top;
pos = (260,500);
}
);
layerId = m002;
shapes = (
{
closed = 1;
nodes = (
(195,314,o),
(200,393,o),
(250,393,c),
(260,508,l),
(74,508,o),
(15,379,o),
(15,250,c),
(195,195,l)
);
},
{
closed = 1;
nodes = (
(260,108,l),
(200,108,o),
(195,145,o),
(195,195,c),
(15,250,l),
(15,250,ls),
(15,121,o),
(78,-8,o),
(230,-8,c)
);
},
{
closed = 1;
nodes = (
(341,-8,o),
(440,45,o),
(440,45,c),
(398,147,l),
(398,147,o),
(322,108,o),
(260,108,c),
(230,-8,l)
);
},
{
closed = 1;
nodes = (
(470,195,l),
(460,305,l),
(99,305,l),
(99,195,l)
);
},
{
closed = 1;
nodes = (
(470,195,l),
(470,369,o),
(446,508,o),
(260,508,c),
(250,393,l),
(300,393,o),
(298,314,o),
(298,195,c)
);
}
);
width = 485;
}
);
metricLeft = "=o";
metricRight = "=o";
unicode = 101;
userData = {
KernOnName = e;
};
},
{
glyphname = schwa;
kernLeft = KO_schwa;
kernRight = KO_o;
lastChange = "2024-04-20 20:02:54 +0000";
layers = (
{
layerId = m01;
shapes = (
{
closed = 1;
nodes = (
(368,-8,o),
(427,121,o),
(427,250,c),
(367,275,l),
(367,146,o),
(333,47,o),
(222,47,c),
(222,-8,l)
);
},
{
closed = 1;
nodes = (
(84,413,o),
(150,452,o),
(222,452,c),
(222,508,l),
(131,508,o),
(57,455,o),
(57,455,c),
(84,413,l)
);
},
{
closed = 1;
nodes = (
(427,250,ls),
(427,379,o),
(368,508,o),
(222,508,c),
(222,452,l),
(332,452,o),
(367,355,o),
(367,275,c),
(427,250,l)
);
},
{
closed = 1;
nodes = (
(383,275,l),
(42,275,l),
(52,225,l),
(383,225,l)
);
},
{
closed = 1;
nodes = (
(222,47,l),
(101,47,o),
(104,146,o),
(104,275,c),
(42,275,l),
(42,121,o),
(66,-8,o),
(222,-8,c)
);
}
);
width = 469;
},
{
layerId = m002;
shapes = (
{
closed = 1;
nodes = (
(411,-8,o),
(470,121,o),
(470,250,c),
(290,305,l),
(290,186,o),
(285,107,o),
(235,107,c),
(225,-8,l)
);
},
{
closed = 1;
nodes = (
(57,353,o),
(143,392,o),
(225,392,c),
(255,508,l),
(104,508,o),
(15,455,o),
(15,455,cs),
(57,353,l)
);
},
{
closed = 1;
nodes = (
(470,250,ls),
(470,379,o),
(407,508,o),
(255,508,c),
(225,392,l),
(285,392,o),
(290,355,o),
(290,305,c),
(470,250,l)
);
},
{
closed = 1;
nodes = (
(386,305,l),
(15,305,l),
(25,195,l),
(386,195,l)
);
},
{
closed = 1;
nodes = (
(235,107,l),
(185,107,o),
(187,186,o),
(187,305,c),
(15,305,l),
(15,131,o),
(39,-8,o),
(225,-8,c)
);
}
);
width = 485;
}
);
metricLeft = "=a";
metricRight = "=o";
unicode = 601;
},
{
glyphname = ezh;
lastChange = "2022-10-23 21:31:42 +0000";
layers = (
{
anchors = (
{
name = bottom;
pos = (252,0);
},
{
name = top;
pos = (252,500);
}
);
layerId = m01;
shapes = (
{
closed = 1;
nodes = (
(75,500,l),
(75,440,l),
(345,440,l),
(207,264,l),
(266,238,l),
(420,440,l),
(420,500,l)
);
},
{
closed = 1;
nodes = (
(377,-126,o),
(462,-59,o),
(462,69,c),
(462,183,o),
(377,264,o),
(207,264,c),
(207,209,l),
(329,209,o),
(390,157,o),
(390,69,cs),
(390,-19,o),
(329,-66,o),
(207,-66,c),
(207,-126,l)
);
},
{
closed = 1;
nodes = (
(207,-66,l),
(156,-66,o),
(110,-48,o),
(64,-28,c),
(35,-80,l),
(85,-106,o),
(142,-126,o),
(207,-126,c)
);
}
);
width = 504;
},
{
anchors = (
{
name = bottom;
pos = (269,0);
},
{
name = top;
pos = (269,500);
}
);
layerId = m002;
shapes = (
{
closed = 1;
nodes = (
(40,500,l),
(40,380,l),
(290,380,l),
(172,264,l),
(295,198,l),
(470,380,l),
(470,500,l)
);
},
{
closed = 1;
nodes = (
(437,-156,o),
(522,-84,o),
(522,44,cs),
(522,172,o),
(437,264,o),
(172,264,c),
(172,149,l),
(269,149,o),
(330,132,o),
(330,59,cs),
(330,-14,o),
(269,-36,o),
(227,-36,c),
(227,-156,l)
);
},
{
closed = 1;
nodes = (
(227,-36,l),
(158,-36,o),
(107,-25,o),
(44,2,c),
(15,-110,l),
(65,-131,o),
(135,-156,o),
(227,-156,c)
);
}
);
width = 537;
}
);
metricLeft = "=z";
unicode = 658;
},
{
glyphname = f;
kernLeft = KO_f;
kernRight = KO_f;
lastChange = "2024-12-31 17:36:14 +0000";
layers = (
{
layerId = m01;
shapes = (
{
closed = 1;
nodes = (
(170,0,l),
(170,533,l),
(170,625,o),
(188,653,o),
(243,653,cs),
(255,653,o),
(265,652,o),
(280,650,c),
(290,700,l),
(271,704,o),
(260,705,o),
(243,705,cs),
(143,705,o),
(110,654,o),
(110,500,c),
(110,0,l)
);
},
{
closed = 1;
nodes = (
(288,445,l),
(294,500,l),
(35,500,l),
(35,445,l)
);
}
);
width = 317;
},
{
layerId = m002;
shapes = (
{
closed = 1;
nodes = (
(258,0,l),
(258,533,l),
(258,565,o),
(259,593,o),
(291,593,cs),
(303,593,o),
(313,592,o),
(328,590,c),
(338,700,l),
(319,704,o),
(288,707,o),
(251,707,cs),
(111,707,o),
(78,654,o),
(78,500,c),
(78,0,l)
);
},
{
closed = 1;
nodes = (
(333,380,l),
(339,500,l),
(0,500,l),
(0,380,l)
);
}
);
width = 350;
}
);
unicode = 102;
userData = {
KernOnName = f;
};
},
{
glyphname = g;
kernLeft = KO_e;
kernRight = KO_g;
lastChange = "2024-12-31 17:36:14 +0000";
layers = (
{
anchors = (
{
name = bottom;
pos = (262,-200);
},
{
name = top;
pos = (247,500);
}
);
layerId = m01;
shapes = (
{
closed = 1;
nodes = (
(377,60,l),
(437,70,l),
(437,430,l),
(377,440,l)
);
},
{
closed = 1;
nodes = (
(377,60,l),
(377,-117,o),
(342,-153,o),
(262,-153,c),
(262,-208,l),
(374,-208,o),
(437,-134,o),
(437,-2,cs),
(437,70,l)
);
},
{
closed = 1;
nodes = (
(437,430,l),
(437,500,l),
(407,500,l),
(377,440,l)
);
},
{
closed = 1;
nodes = (
(405,150,o),
(339,47,o),
(247,47,c),
(247,-8,l),
(358,-8,o),
(437,140,o),
(437,140,c),
(405,150,l)
);
},
{
closed = 1;
nodes = (
(437,360,l),
(437,360,o),
(358,508,o),
(247,508,c),
(247,452,l),
(339,452,o),
(405,350,o),
(405,350,c)
);
},
{
closed = 1;
nodes = (
(247,508,l),
(101,508,o),
(42,379,o),
(42,250,cs),
(42,121,o),
(101,-8,o),
(247,-8,c),
(247,47,l),
(136,47,o),
(104,145,o),
(104,250,cs),
(104,354,o),
(136,452,o),
(247,452,c)
);
},
{
closed = 1;
nodes = (
(83,-155,l),
(83,-155,o),
(152,-208,o),
(263,-208,c),
(263,-153,l),
(171,-153,o),
(126,-121,o),
(108,-111,c)
);
}
);
width = 512;
},
{
anchors = (
{
name = bottom;
pos = (275,-200);
},
{
name = top;
pos = (263,500);
}
);
layerId = m002;
shapes = (
{
closed = 1;
nodes = (
(310,30,l),
(490,70,l),
(490,430,l),
(310,440,l)
);
},
{
closed = 1;
nodes = (
(310,30,l),
(310,-63,o),
(310,-93,o),
(245,-93,c),
(275,-208,l),
(387,-208,o),
(490,-134,o),
(490,-2,cs),
(490,70,l)
);
},
{
closed = 1;
nodes = (
(490,430,l),
(490,500,l),
(340,500,l),
(310,440,l)
);
},
{
closed = 1;
nodes = (
(420,170,o),
(295,107,o),
(260,107,c),
(200,-8,l),
(311,-8,o),
(420,170,o),
(420,170,c),
(420,170,l)
);
},
{
closed = 1;
nodes = (
(420,330,l),
(420,330,o),
(311,508,o),
(200,508,c),
(260,392,l),
(295,392,o),
(420,330,o),
(420,330,c)
);
},
{
closed = 1;
nodes = (
(200,508,l),
(74,508,o),
(15,379,o),
(15,250,cs),
(15,121,o),
(74,-8,o),
(200,-8,c),
(260,107,l),
(199,107,o),
(197,205,o),
(197,250,cs),
(197,294,o),
(199,392,o),
(260,392,c)
);
},
{
closed = 1;
nodes = (
(85,-155,l),
(85,-155,o),
(165,-208,o),
(276,-208,c),
(246,-93,l),
(184,-93,o),
(136,-63,o),
(118,-53,c)
);
}
);
width = 525;
}
);
metricLeft = "=d";
metricRight = "=d";
unicode = 103;
userData = {
KernOnName = g;
};
},
{
glyphname = gstroke;
kernLeft = KO_e;
lastChange = "2024-04-20 20:05:52 +0000";
layers = (
{
anchors = (
{
name = bottom;
pos = (262,-200);
},
{
name = top;
pos = (247,500);
}
);
layerId = m01;
shapes = (
{
closed = 1;
nodes = (
(377,60,l),
(437,70,l),
(437,430,l),
(377,440,l)
);
},
{
closed = 1;
nodes = (
(377,60,l),
(377,-117,o),
(342,-153,o),
(262,-153,c),
(262,-208,l),
(374,-208,o),
(437,-134,o),
(437,-2,cs),
(437,70,l)
);
},
{
closed = 1;
nodes = (
(437,430,l),
(437,500,l),
(407,500,l),
(377,440,l)
);
},
{
closed = 1;
nodes = (
(405,150,o),
(339,47,o),
(247,47,c),
(247,-8,l),
(358,-8,o),
(437,140,o),
(437,140,c),
(405,150,l)
);
},
{
closed = 1;
nodes = (
(437,360,l),
(437,360,o),
(358,508,o),
(247,508,c),
(247,452,l),
(339,452,o),
(405,350,o),
(405,350,c)
);
},
{
closed = 1;
nodes = (
(247,508,l),
(101,508,o),
(42,379,o),
(42,250,cs),
(42,121,o),
(101,-8,o),
(247,-8,c),
(247,47,l),
(136,47,o),
(104,145,o),
(104,250,cs),
(104,354,o),
(136,452,o),
(247,452,c)
);
},
{
closed = 1;
nodes = (
(83,-155,l),
(83,-155,o),
(152,-208,o),
(263,-208,c),
(263,-153,l),
(171,-153,o),
(126,-121,o),
(108,-111,c)
);
},
{
closed = 1;
nodes = (
(512,-97,l),
(512,-42,l),
(262,-42,l),
(262,-97,l)
);
}
);
width = 512;
},
{
anchors = (
{
name = bottom;
pos = (275,-200);
},
{
name = top;
pos = (263,500);
}
);
layerId = m002;
shapes = (
{
closed = 1;
nodes = (
(310,30,l),
(490,70,l),
(490,430,l),
(310,440,l)
);
},
{
closed = 1;
nodes = (
(310,30,l),
(310,-63,o),
(310,-93,o),
(245,-93,c),
(275,-208,l),
(387,-208,o),
(490,-134,o),
(490,-2,cs),
(490,70,l)
);
},
{
closed = 1;
nodes = (
(490,430,l),
(490,500,l),
(340,500,l),
(310,440,l)
);
},
{
closed = 1;
nodes = (
(420,170,o),
(295,107,o),
(260,107,c),
(200,-8,l),
(311,-8,o),
(420,170,o),
(420,170,c),
(420,170,l)
);
},
{
closed = 1;
nodes = (
(420,330,l),
(420,330,o),
(311,508,o),
(200,508,c),
(260,392,l),
(295,392,o),
(420,330,o),
(420,330,c)
);
},
{
closed = 1;
nodes = (
(200,508,l),
(74,508,o),
(15,379,o),
(15,250,cs),
(15,121,o),
(74,-8,o),
(200,-8,c),
(260,107,l),
(199,107,o),
(197,205,o),
(197,250,cs),
(197,294,o),
(199,392,o),
(260,392,c)
);
},
{
closed = 1;
nodes = (
(85,-155,l),
(85,-155,o),
(165,-208,o),
(276,-208,c),
(246,-93,l),
(184,-93,o),
(136,-63,o),
(118,-53,c)
);
},
{
closed = 1;
nodes = (
(522,-67,l),
(522,-12,l),
(246,-12,l),
(246,-67,l)
);
}
);
width = 525;
}
);
metricLeft = "=d";
unicode = 485;
},
{
glyphname = h;
kernLeft = KO_i;
kernRight = KO_n;
lastChange = "2024-12-31 17:36:14 +0000";
layers = (
{
anchors = (
{
name = bottom;
pos = (258,0);
},
{
name = center;
pos = (258,350);
},
{
name = top;
pos = (258,670);
}
);
layerId = m01;
shapes = (
{
closed = 1;
nodes = (
(440,250,l),
(440,302,ls),
(440,434,o),
(377,508,o),
(265,508,c),
(265,453,l),
(345,453,o),
(380,407,o),
(380,250,c)
);
},
{
closed = 1;
nodes = (
(135,700,l),
(75,700,l),
(75,0,l),
(135,-1,l)
);
},
{
closed = 1;
nodes = (
(440,0,l),
(440,250,l),
(380,250,l),
(380,0,l)
);
},
{
closed = 1;
nodes = (
(107,350,o),
(173,453,o),
(265,453,c),
(265,508,l),
(154,508,o),
(75,360,o),
(75,360,c),
(107,350,l)
);
}
);
width = 515;
},
{
anchors = (
{
name = bottom;
pos = (258,0);
},
{
name = center;
pos = (258,350);
},
{
name = top;
pos = (258,690);
}
);
layerId = m002;
shapes = (
{
closed = 1;
nodes = (
(480,250,l),
(480,302,ls),
(480,434,o),
(417,508,o),
(325,508,c),
(265,373,l),
(300,373,o),
(300,327,o),
(300,250,c)
);
},
{
closed = 1;
nodes = (
(215,700,l),
(35,700,l),
(35,0,l),
(215,-1,l)
);
},
{
closed = 1;
nodes = (
(480,0,l),
(480,250,l),
(300,250,l),
(300,0,l)
);
},
{
closed = 1;
nodes = (
(105,330,o),
(230,373,o),
(265,373,c),
(325,508,l),
(214,508,o),
(105,330,o),
(105,330,c),
(105,330,l)
);
}
);
width = 515;
}
);
metricLeft = "=b";
metricRight = "=n";
unicode = 104;
userData = {
KernOnName = h;
};
},
{
glyphname = hbar;
kernRight = KO_n;
lastChange = "2022-10-23 18:28:17 +0000";
layers = (
{
anchors = (
{
name = bottom;
pos = (258,0);
},
{
name = center;
pos = (258,350);
},
{
name = top;
pos = (258,670);
}
);
layerId = m01;
shapes = (
{
closed = 1;
nodes = (
(440,250,l),
(440,302,ls),
(440,434,o),
(377,508,o),
(265,508,c),
(265,453,l),
(345,453,o),
(380,407,o),
(380,250,c)
);
},
{
closed = 1;
nodes = (
(135,710,l),
(75,700,l),
(75,0,l),
(135,-1,l)
);
},
{
closed = 1;
nodes = (
(440,0,l),
(440,250,l),
(380,250,l),
(380,0,l)
);
},
{
closed = 1;
nodes = (
(107,350,o),
(173,453,o),
(265,453,c),
(265,508,l),
(154,508,o),
(75,360,o),
(75,360,c),
(107,350,l)
);
},
{
closed = 1;
nodes = (
(265,573,l),
(265,628,l),
(5,628,l),
(5,573,l)
);
}
);
width = 515;
},
{
anchors = (
{
name = bottom;
pos = (258,0);
},
{
name = center;
pos = (258,350);
},
{
name = top;
pos = (258,690);
}
);
layerId = m002;
shapes = (
{
closed = 1;
nodes = (
(480,250,l),
(480,302,ls),
(480,434,o),
(417,508,o),
(325,508,c),
(265,373,l),
(300,373,o),
(300,327,o),
(300,250,c)
);
},
{
closed = 1;
nodes = (
(215,710,l),
(35,694,l),
(35,0,l),
(215,-1,l)
);
},
{
closed = 1;
nodes = (
(480,0,l),
(480,250,l),
(300,250,l),
(300,0,l)
);
},
{
closed = 1;
nodes = (
(105,330,o),
(230,373,o),
(265,373,c),
(325,508,l),
(214,508,o),
(105,330,o),
(105,330,c),
(105,330,l)
);
},
{
closed = 1;
nodes = (
(325,540,l),
(325,660,l),
(-35,660,l),
(-35,540,l)
);
}
);
width = 515;
}
);
metricRight = "=n";
unicode = 295;
},
{
glyphname = i;
kernLeft = KO_i;
kernRight = KO_i;
lastChange = "2024-12-31 17:36:14 +0000";
layers = (
{
layerId = m01;
shapes = (
{
closed = 1;
nodes = (
(135,0,l),
(135,500,l),
(75,500,l),
(75,0,l)
);
},
{
closed = 1;
nodes = (
(130,585,o),
(150,605,o),
(150,630,cs),
(150,655,o),
(130,675,o),
(105,675,cs),
(80,675,o),
(60,655,o),
(60,630,cs),
(60,605,o),
(80,585,o),
(105,585,cs)
);
}
);
width = 210;
},
{
layerId = m002;
shapes = (
{
closed = 1;
nodes = (
(215,0,l),
(215,500,l),
(35,500,l),
(35,0,l)
);
},
{
closed = 1;
nodes = (
(180,530,o),
(225,574,o),
(225,630,cs),
(225,685,o),
(180,730,o),
(125,730,c),
(69,730,o),
(25,685,o),
(25,630,cs),
(25,574,o),
(69,530,o),
(125,530,cs)
);
}
);
width = 250;
}
);
metricRight = "=|";
unicode = 105;
userData = {
KernOnName = i;
};
},
{
glyphname = idotless;
kernLeft = KO_n;
kernRight = KO_g;
lastChange = "2022-10-23 17:41:22 +0000";
layers = (
{
anchors = (
{
name = bottom;
pos = (105,0);
},
{
name = ogonek;
pos = (135,0);
},
{
name = top;
pos = (105,500);
}
);
layerId = m01;
shapes = (
{
closed = 1;
nodes = (
(135,0,l),
(135,500,l),
(75,500,l),
(75,0,l)
);
}
);
width = 210;
},
{
anchors = (
{
name = bottom;
pos = (125,0);
},
{
name = ogonek;
pos = (225,10);
},
{
name = top;
pos = (125,500);
}
);
layerId = m002;
shapes = (
{
closed = 1;
nodes = (
(215,0,l),
(215,500,l),
(35,500,l),
(35,0,l)
);
}
);
width = 250;
}
);
metricRight = "=|";
unicode = 305;
},
{
glyphname = j;
kernLeft = KO_j;
kernRight = KO_i;
lastChange = "2024-12-31 17:36:14 +0000";
layers = (
{
layerId = m01;
shapes = (
{
closed = 1;
nodes = (
(133,585,o),
(153,605,o),
(153,630,cs),
(153,655,o),
(133,675,o),
(108,675,cs),
(83,675,o),
(63,655,o),
(63,630,cs),
(63,605,o),
(83,585,o),
(108,585,cs)
);
},
{
closed = 1;
nodes = (
(78,500,l),
(78,-33,l),
(78,-125,o),
(60,-153,o),
(5,-153,cs),
(-7,-153,o),
(-17,-152,o),
(-32,-150,c),
(-42,-200,l),
(-23,-204,o),
(-12,-205,o),
(5,-205,cs),
(105,-205,o),
(138,-154,o),
(138,0,c),
(138,500,l)
);
}
);
width = 213;
},
{
layerId = m002;
shapes = (
{
closed = 1;
nodes = (
(170,530,o),
(215,574,o),
(215,630,cs),
(215,685,o),
(170,730,o),
(115,730,cs),
(59,730,o),
(15,685,o),
(15,630,cs),
(15,574,o),
(59,530,o),
(115,530,cs)
);
},
{
closed = 1;
nodes = (
(25,500,l),
(25,-33,l),
(25,-65,o),
(24,-93,o),
(-8,-93,cs),
(-20,-93,o),
(-30,-92,o),
(-45,-90,c),
(-55,-200,l),
(-36,-204,o),
(-5,-207,o),
(32,-207,cs),
(172,-207,o),
(205,-154,o),
(205,0,c),
(205,500,l)
);
}
);
width = 240;
}
);
metricRight = "=i";
unicode = 106;
userData = {
KernOnName = j;
};
},
{
glyphname = jdotless;
lastChange = "2022-10-21 12:21:00 +0000";
layers = (
{
anchors = (
{
name = bottom;
pos = (105,-200);
},
{
name = top;
pos = (105,500);
}
);
layerId = m01;
shapes = (
{
closed = 1;
nodes = (
(75,500,l),
(75,-33,l),
(75,-125,o),
(57,-153,o),
(2,-153,cs),
(-10,-153,o),
(-20,-152,o),
(-35,-150,c),
(-45,-200,l),
(-26,-204,o),
(-15,-205,o),
(2,-205,cs),
(102,-205,o),
(135,-154,o),
(135,0,c),
(135,500,l)
);
}
);
width = 210;
},
{
anchors = (
{
name = bottom;
pos = (115,-200);
},
{
name = top;
pos = (115,500);
}
);
layerId = m002;
shapes = (
{
closed = 1;
nodes = (
(25,500,l),
(25,-33,l),
(25,-65,o),
(24,-93,o),
(-8,-93,cs),
(-20,-93,o),
(-30,-92,o),
(-45,-90,c),
(-55,-200,l),
(-36,-204,o),
(-5,-207,o),
(32,-207,cs),
(172,-207,o),
(205,-154,o),
(205,0,c),
(205,500,l)
);
}
);
width = 230;
}
);
unicode = 567;
},
{
glyphname = k;
kernLeft = KO_i;
kernRight = KO_k;
lastChange = "2024-12-31 17:36:14 +0000";
layers = (
{
anchors = (
{
name = bottom;
pos = (244,0);
},
{
name = top;
pos = (244,657);
}
);
layerId = m01;
shapes = (
{
closed = 1;
nodes = (
(450,500,l),
(370,500,l),
(135,250,l),
(135,170,l)
);
},
{
closed = 1;
nodes = (
(135,700,l),
(75,700,l),
(75,0,l),
(135,-1,l)
);
},
{
closed = 1;
nodes = (
(450,0,l),
(243,320,l),
(208,270,l),
(380,0,l)
);
}
);
width = 487;
},
{
anchors = (
{
name = bottom;
pos = (245,0);
},
{
name = top;
pos = (245,700);
}
);
layerId = m002;
shapes = (
{
closed = 1;
nodes = (
(510,500,l),
(320,500,l),
(145,280,l),
(215,120,l)
);
},
{
closed = 1;
nodes = (
(215,700,l),
(35,700,l),
(35,0,l),
(215,-1,l)
);
},
{
closed = 1;
nodes = (
(510,0,l),
(328,340,l),
(178,330,l),
(310,0,l)
);
}
);
width = 510;
}
);
unicode = 107;
userData = {
KernOnName = k;
};
},
{
glyphname = l;
kernLeft = KO_l;
kernRight = KO_l;
lastChange = "2024-12-31 17:36:14 +0000";
layers = (
{
anchors = (
{
name = bottom;
pos = (105,0);
},
{
name = center;
pos = (105,350);
},
{
name = top;
pos = (105,700);
},
{
name = topright;
pos = (210,700);
}
);
layerId = m01;
shapes = (
{
closed = 1;
nodes = (
(135,50,o),
(135,105,o),
(135,196,cs),
(135,700,l),
(75,700,l),
(75,196,ls),
(75,87,o),
(75,0,o),
(180,0,c),
(180,50,l)
);
},
{
closed = 1;
nodes = (
(180,0,l),
(204,0,l),
(204,50,l),
(180,50,l)
);
}
);
width = 230;
},
{
anchors = (
{
name = bottom;
pos = (115,0);
},
{
name = center;
pos = (115,350);
},
{
name = top;
pos = (115,700);
},
{
name = topright;
pos = (255,700);
}
);
layerId = m002;
shapes = (
{
closed = 1;
nodes = (
(205,110,o),
(205,165,o),
(205,196,cs),
(205,700,l),
(25,700,l),
(25,196,ls),
(25,87,o),
(65,0,o),
(210,0,c),
(250,110,l)
);
},
{
closed = 1;
nodes = (
(210,0,l),
(275,0,l),
(275,110,l),
(250,110,l)
);
}
);
width = 275;
}
);
unicode = 108;
userData = {
KernOnName = l;
};
},
{
glyphname = lslash;
kernLeft = KO_lslash;
lastChange = "2022-10-23 18:08:52 +0000";
layers = (
{
anchors = (
{
name = bottom;
pos = (105,0);
},
{
name = center;
pos = (105,350);
},
{
name = top;
pos = (105,700);
},
{
name = topright;
pos = (210,700);
}
);
layerId = m01;
shapes = (
{
closed = 1;
nodes = (
(135,50,o),
(135,105,o),
(135,196,cs),
(135,710,l),
(75,700,l),
(75,196,ls),
(75,87,o),
(75,0,o),
(180,0,c),
(180,50,l)
);
},
{
closed = 1;
nodes = (
(180,0,l),
(204,0,l),
(204,50,l),
(180,50,l)
);
},
{
closed = 1;
nodes = (
(-17,311,l),
(11,264,l),
(227,389,l),
(199,436,l)
);
}
);
width = 230;
},
{
anchors = (
{
name = bottom;
pos = (115,0);
},
{
name = center;
pos = (115,350);
},
{
name = top;
pos = (115,700);
},
{
name = topright;
pos = (255,700);
}
);
layerId = m002;
shapes = (
{
closed = 1;
nodes = (
(205,110,o),
(205,165,o),
(205,196,cs),
(205,710,l),
(25,700,l),
(25,196,ls),
(25,87,o),
(65,0,o),
(210,0,c),
(250,110,l)
);
},
{
closed = 1;
nodes = (
(210,0,l),
(275,0,l),
(275,110,l),
(250,110,l)
);
},
{
closed = 1;
nodes = (
(-75,310,l),
(-15,205,l),
(306,391,l),
(246,495,l)
);
}
);
width = 275;
}
);
unicode = 322;
},
{
glyphname = m;
kernLeft = KO_n;
kernRight = KO_m;
lastChange = "2024-12-31 17:36:14 +0000";
layers = (
{
anchors = (
{
name = bottom;
pos = (360,0);
},
{
name = top;
pos = (360,500);
}
);
layerId = m01;
shapes = (
{
closed = 1;
nodes = (
(389,302,ls),
(386,434,o),
(326,508,o),
(234,508,c),
(234,453,l),
(294,453,o),
(330,407,o),
(330,250,c),
(390,250,l)
);
},
{
closed = 1;
nodes = (
(75,0,l),
(135,0,l),
(135,440,l),
(75,430,l)
);
},
{
closed = 1;
nodes = (
(330,0,l),
(390,0,l),
(390,250,l),
(330,250,l)
);
},
{
closed = 1;
nodes = (
(585,0,l),
(645,0,l),
(645,250,l),
(585,250,l)
);
},
{
closed = 1;
nodes = (
(644,302,ls),
(641,434,o),
(581,508,o),
(489,508,c),
(489,453,l),
(549,453,o),
(585,407,o),
(585,250,c),
(645,250,l)
);
},
{
closed = 1;
nodes = (
(105,500,l),
(75,500,l),
(75,430,l),
(135,440,l)
);
},
{
closed = 1;
nodes = (
(102,350,o),
(158,453,o),
(235,453,c),
(235,508,l),
(142,508,o),
(75,360,o),
(75,360,c),
(102,350,l)
);
},
{
closed = 1;
nodes = (
(356,350,o),
(412,453,o),
(489,453,c),
(489,508,l),
(396,508,o),
(329,390,o),
(329,390,c),
(356,350,l)
);
}
);
width = 720;
},
{
anchors = (
{
name = bottom;
pos = (390,0);
},
{
name = top;
pos = (390,500);
}
);
layerId = m002;
shapes = (
{
closed = 1;
nodes = (
(479,302,ls),
(476,434,o),
(476,508,o),
(344,508,c),
(274,373,l),
(300,373,o),
(300,327,o),
(300,250,c),
(480,250,l)
);
},
{
closed = 1;
nodes = (
(35,0,l),
(215,0,l),
(215,440,l),
(35,360,l)
);
},
{
closed = 1;
nodes = (
(300,0,l),
(480,0,l),
(480,250,l),
(300,250,l)
);
},
{
closed = 1;
nodes = (
(565,0,l),
(745,0,l),
(745,250,l),
(565,250,l)
);
},
{
closed = 1;
nodes = (
(744,302,ls),
(741,434,o),
(741,508,o),
(609,508,c),
(539,373,l),
(565,373,o),
(565,327,o),
(565,250,c),
(745,250,l)
);
},
{
closed = 1;
nodes = (
(185,500,l),
(35,500,l),
(35,360,l),
(215,440,l)
);
},
{
closed = 1;
nodes = (
(132,330,o),
(238,373,o),
(275,373,c),
(345,508,l),
(232,508,o),
(132,330,o),
(132,330,c),
(132,330,l)
);
},
{
closed = 1;
nodes = (
(396,330,o),
(513,373,o),
(539,373,c),
(609,508,l),
(516,508,o),
(396,330,o),
(396,330,c),
(396,330,l)
);
}
);
width = 780;
}
);
metricRight = "=n";
unicode = 109;
userData = {
KernOnName = m;
};
},
{
glyphname = n;
kernLeft = KO_n;
kernRight = KO_n;
lastChange = "2024-12-31 17:36:14 +0000";
layers = (
{
anchors = (
{
name = bottom;
pos = (258,0);
},
{
name = top;
pos = (258,500);
}
);
layerId = m01;
shapes = (
{
closed = 1;
nodes = (
(439,302,ls),
(436,434,o),
(376,508,o),
(264,508,c),
(264,453,l),
(344,453,o),
(380,407,o),
(380,250,c),
(440,250,l)
);
},
{
closed = 1;
nodes = (
(75,0,l),
(135,0,l),
(135,440,l),
(75,360,l)
);
},
{
closed = 1;
nodes = (
(380,0,l),
(440,0,l),
(440,250,l),
(380,250,l)
);
},
{
closed = 1;
nodes = (
(105,500,l),
(75,500,l),
(75,360,l),
(135,440,l)
);
},
{
closed = 1;
nodes = (
(107,350,o),
(173,453,o),
(265,453,c),
(265,508,l),
(154,508,o),
(75,360,o),
(75,360,c),
(107,350,l)
);
}
);
width = 515;
},
{
anchors = (
{
name = bottom;
pos = (258,0);
},
{
name = top;
pos = (258,500);
}
);
layerId = m002;
shapes = (
{
closed = 1;
nodes = (
(480,302,ls),
(480,435,o),
(416,508,o),
(324,508,c),
(264,373,l),
(300,373,o),
(300,327,o),
(300,250,c),
(480,250,l)
);
},
{
closed = 1;
nodes = (
(35,0,l),
(215,0,l),
(215,440,l),
(35,360,l)
);
},
{
closed = 1;
nodes = (
(300,0,l),
(480,0,l),
(480,250,l),
(300,250,l)
);
},
{
closed = 1;
nodes = (
(185,500,l),
(35,500,l),
(35,360,l),
(215,440,l)
);
},
{
closed = 1;
nodes = (
(105,330,o),
(230,373,o),
(265,373,c),
(325,508,l),
(214,508,o),
(105,330,o),
(105,330,c),
(105,330,l)
);
}
);
width = 515;
}
);
unicode = 110;
userData = {
KernOnName = n;
};
},
{
glyphname = eng;
kernLeft = KO_n;
kernRight = KO_n;
lastChange = "2022-10-23 19:20:49 +0000";
layers = (
{
anchors = (
{
name = bottom;
pos = (258,0);
},
{
name = top;
pos = (258,500);
}
);
layerId = m01;
shapes = (
{
closed = 1;
nodes = (
(439,302,ls),
(436,434,o),
(376,508,o),
(264,508,c),
(264,453,l),
(344,453,o),
(380,407,o),
(380,250,c),
(440,250,l)
);
},
{
closed = 1;
nodes = (
(75,0,l),
(135,0,l),
(135,440,l),
(75,360,l)
);
},
{
closed = 1;
nodes = (
(380,0,l),
(440,0,l),
(440,250,l),
(380,250,l)
);
},
{
closed = 1;
nodes = (
(105,500,l),
(75,500,l),
(75,360,l),
(135,440,l)
);
},
{
closed = 1;
nodes = (
(107,350,o),
(173,453,o),
(265,453,c),
(265,508,l),
(154,508,o),
(75,360,o),
(75,360,c),
(107,350,l)
);
},
{
closed = 1;
nodes = (
(380,60,l),
(380,-117,o),
(345,-153,o),
(265,-153,c),
(265,-208,l),
(377,-208,o),
(440,-134,o),
(440,-2,cs),
(440,0,l)
);
}
);
width = 515;
},
{
anchors = (
{
name = bottom;
pos = (258,0);
},
{
name = top;
pos = (258,500);
}
);
layerId = m002;
shapes = (
{
closed = 1;
nodes = (
(480,302,ls),
(480,435,o),
(416,508,o),
(324,508,c),
(264,373,l),
(300,373,o),
(300,327,o),
(300,250,c),
(480,250,l)
);
},
{
closed = 1;
nodes = (
(35,0,l),
(215,0,l),
(215,440,l),
(35,360,l)
);
},
{
closed = 1;
nodes = (
(300,0,l),
(480,0,l),
(480,250,l),
(300,250,l)
);
},
{
closed = 1;
nodes = (
(185,500,l),
(35,500,l),
(35,360,l),
(215,440,l)
);
},
{
closed = 1;
nodes = (
(105,330,o),
(230,373,o),
(265,373,c),
(325,508,l),
(214,508,o),
(105,330,o),
(105,330,c),
(105,330,l)
);
},
{
closed = 1;
nodes = (
(300,30,l),
(300,-63,o),
(300,-93,o),
(235,-93,c),
(235,-208,l),
(377,-208,o),
(480,-134,o),
(480,-2,cs),
(480,0,l)
);
}
);
width = 515;
}
);
unicode = 331;
},
{
glyphname = o;
kernLeft = KO_e;
kernRight = KO_o;
lastChange = "2024-12-31 17:38:56 +0000";
layers = (
{
anchors = (
{
name = bottom;
pos = (247,0);
},
{
name = center;
pos = (247,250);
},
{
name = ogonek;
pos = (445,10);
},
{
name = top;
pos = (247,500);
},
{
name = topright;
pos = (474,500);
}
);
layerId = m01;
shapes = (
{
closed = 1;
nodes = (
(42,121,o),
(101,-8,o),
(247,-8,cs),
(393,-8,o),
(452,121,o),
(452,250,cs),
(452,379,o),
(393,508,o),
(247,508,cs),
(101,508,o),
(42,379,o),
(42,250,cs)
);
},
{
closed = 1;
nodes = (
(104,354,o),
(136,452,o),
(247,452,cs),
(358,452,o),
(390,354,o),
(390,250,cs),
(390,145,o),
(358,47,o),
(247,47,cs),
(136,47,o),
(104,145,o),
(104,250,cs)
);
}
);
width = 494;
},
{
anchors = (
{
name = bottom;
pos = (260,0);
},
{
name = center;
pos = (260,250);
},
{
name = ogonek;
pos = (468,10);
},
{
name = top;
pos = (260,500);
},
{
name = topright;
pos = (500,500);
}
);
layerId = m002;
shapes = (
{
closed = 1;
nodes = (
(15,121,o),
(74,-8,o),
(260,-8,cs),
(446,-8,o),
(505,121,o),
(505,250,cs),
(505,379,o),
(446,508,o),
(260,508,cs),
(74,508,o),
(15,379,o),
(15,250,cs)
);
},
{
closed = 1;
nodes = (
(197,294,o),
(199,392,o),
(260,392,cs),
(321,392,o),
(323,294,o),
(323,250,cs),
(323,205,o),
(321,107,o),
(260,107,cs),
(199,107,o),
(197,205,o),
(197,250,cs)
);
}
);
width = 520;
}
);
metricRight = "=|";
unicode = 111;
userData = {
KernOnName = o;
};
},
{
glyphname = oslash;
kernLeft = KO_oslash;
lastChange = "2024-11-30 21:25:41 +0000";
layers = (
{
anchors = (
{
name = top;
pos = (277,500);
}
);
layerId = m01;
shapes = (
{
closed = 1;
nodes = (
(423,-8,o),
(482,121,o),
(482,250,cs),
(482,379,o),
(423,508,o),
(277,508,cs),
(131,508,o),
(72,379,o),
(72,250,cs),
(72,121,o),
(131,-8,o),
(277,-8,cs)
);
},
{
closed = 1;
nodes = (
(166,47,o),
(134,145,o),
(134,250,cs),
(134,354,o),
(166,452,o),
(277,452,cs),
(388,452,o),
(420,354,o),
(420,250,cs),
(420,145,o),
(388,47,o),
(277,47,cs)
);
},
{
closed = 1;
nodes = (
(512,484,l),
(466,522,l),
(42,16,l),
(88,-22,l)
);
}
);
width = 554;
},
{
anchors = (
{
name = top;
pos = (273,500);
}
);
attr = {
axisRules = (
{
}
);
};
layerId = m002;
name = Black;
shapes = (
{
closed = 1;
nodes = (
(459,-8,o),
(518,121,o),
(518,250,cs),
(518,379,o),
(459,508,o),
(273,508,cs),
(87,508,o),
(28,379,o),
(28,250,cs),
(28,121,o),
(87,-8,o),
(273,-8,cs)
);
},
{
closed = 1;
nodes = (
(212,107,o),
(210,205,o),
(210,250,cs),
(210,294,o),
(212,392,o),
(273,392,cs),
(334,392,o),
(336,294,o),
(336,250,cs),
(336,205,o),
(334,107,o),
(273,107,cs)
);
},
{
closed = 1;
nodes = (
(531,465,l),
(439,541,l),
(15,35,l),
(107,-41,l)
);
}
);
width = 546;
}
);
metricLeft = "=o";
metricRight = "=o";
unicode = 248;
},
{
glyphname = oe;
kernLeft = KO_e;
kernRight = KO_o;
lastChange = "2022-10-21 20:53:06 +0000";
layers = (
{
layerId = m01;
shapes = (
{
closed = 1;
nodes = (
(393,-8,o),
(442,121,o),
(442,250,cs),
(442,379,o),
(393,508,o),
(247,508,cs),
(101,508,o),
(42,379,o),
(42,250,cs),
(42,121,o),
(101,-8,o),
(247,-8,cs)
);
},
{
closed = 1;
nodes = (
(136,47,o),
(104,145,o),
(104,250,cs),
(104,354,o),
(136,452,o),
(247,452,cs),
(358,452,o),
(390,354,o),
(390,250,cs),
(390,145,o),
(358,47,o),
(247,47,cs)
);
},
{
closed = 1;
nodes = (
(595,48,l),
(485,48,o),
(450,145,o),
(450,225,c),
(400,250,l),
(400,121,o),
(449,-8,o),
(595,-8,c)
);
},
{
closed = 1;
nodes = (
(686,-8,o),
(760,45,o),
(760,45,c),
(733,87,l),
(733,87,o),
(667,48,o),
(595,48,c),
(595,-8,l)
);
},
{
closed = 1;
nodes = (
(450,354,o),
(484,453,o),
(595,453,c),
(595,508,l),
(449,508,o),
(400,379,o),
(400,250,c),
(450,225,l)
);
},
{
closed = 1;
nodes = (
(775,225,l),
(775,379,o),
(751,508,o),
(595,508,c),
(595,453,l),
(716,453,o),
(713,354,o),
(713,225,c)
);
},
{
closed = 1;
nodes = (
(775,225,l),
(765,275,l),
(434,275,l),
(434,225,l)
);
}
);
width = 817;
},
{
layerId = m002;
shapes = (
{
closed = 1;
nodes = (
(446,-8,o),
(435,121,o),
(435,250,cs),
(435,379,o),
(446,508,o),
(260,508,cs),
(74,508,o),
(15,379,o),
(15,250,cs),
(15,121,o),
(74,-8,o),
(260,-8,cs)
);
},
{
closed = 1;
nodes = (
(199,107,o),
(197,205,o),
(197,250,cs),
(197,294,o),
(199,392,o),
(260,392,cs),
(321,392,o),
(323,294,o),
(323,250,cs),
(323,205,o),
(321,107,o),
(260,107,cs)
);
},
{
closed = 1;
nodes = (
(568,108,l),
(508,108,o),
(503,145,o),
(503,195,c),
(393,250,l),
(393,121,o),
(386,-8,o),
(538,-8,c)
);
},
{
closed = 1;
nodes = (
(689,-8,o),
(778,45,o),
(778,45,cs),
(736,147,l),
(736,147,o),
(650,108,o),
(568,108,c),
(538,-8,l)
);
},
{
closed = 1;
nodes = (
(503,314,o),
(508,393,o),
(558,393,c),
(568,508,l),
(382,508,o),
(393,379,o),
(393,250,c),
(503,195,l)
);
},
{
closed = 1;
nodes = (
(778,195,l),
(778,369,o),
(754,508,o),
(568,508,c),
(558,393,l),
(608,393,o),
(606,314,o),
(606,195,c)
);
},
{
closed = 1;
nodes = (
(778,195,l),
(768,305,l),
(407,305,l),
(407,195,l)
);
}
);
width = 793;
}
);
metricLeft = "=o";
metricRight = "=e";
unicode = 339;
},
{
glyphname = p;
kernLeft = KO_n;
kernRight = KO_o;
lastChange = "2024-12-31 17:36:14 +0000";
layers = (
{
layerId = m01;
shapes = (
{
closed = 1;
nodes = (
(75,430,l),
(75,-200,l),
(135,-200,l),
(135,440,l)
);
},
{
closed = 1;
nodes = (
(105,500,l),
(75,500,l),
(75,430,l),
(135,440,l)
);
},
{
closed = 1;
nodes = (
(107,350,o),
(173,453,o),
(265,453,c),
(265,508,l),
(154,508,o),
(75,360,o),
(75,360,c),
(107,350,l)
);
},
{
closed = 1;
nodes = (
(75,140,l),
(75,140,o),
(154,-8,o),
(265,-8,c),
(265,48,l),
(173,48,o),
(107,150,o),
(107,150,c)
);
},
{
closed = 1;
nodes = (
(265,-8,l),
(411,-8,o),
(470,121,o),
(470,250,cs),
(470,379,o),
(411,508,o),
(265,508,c),
(265,453,l),
(376,453,o),
(408,355,o),
(408,250,cs),
(408,146,o),
(376,48,o),
(265,48,c)
);
}
);
width = 512;
},
{
layerId = m002;
shapes = (
{
closed = 1;
nodes = (
(35,430,l),
(35,-200,l),
(212,-200,l),
(215,440,l)
);
},
{
closed = 1;
nodes = (
(185,500,l),
(35,500,l),
(35,430,l),
(215,440,l)
);
},
{
closed = 1;
nodes = (
(105,330,o),
(230,393,o),
(265,393,c),
(325,508,l),
(214,508,o),
(105,330,o),
(105,330,c),
(105,330,l)
);
},
{
closed = 1;
nodes = (
(105,170,l),
(105,170,o),
(214,-8,o),
(325,-8,c),
(265,108,l),
(230,108,o),
(105,170,o),
(105,170,c)
);
},
{
closed = 1;
nodes = (
(325,-8,l),
(451,-8,o),
(510,121,o),
(510,250,cs),
(510,379,o),
(451,508,o),
(325,508,c),
(265,393,l),
(326,393,o),
(328,295,o),
(328,250,cs),
(328,206,o),
(326,108,o),
(265,108,c)
);
}
);
width = 525;
}
);
metricLeft = "=n";
metricRight = "=o";
unicode = 112;
userData = {
KernOnName = p;
};
},
{
glyphname = thorn;
kernLeft = KO_i;
kernRight = KO_o;
lastChange = "2022-11-22 23:06:44 +0000";
layers = (
{
layerId = m01;
shapes = (
{
closed = 1;
nodes = (
(135,700,l),
(75,700,l),
(75,-200,l),
(135,-200,l)
);
},
{
closed = 1;
nodes = (
(75,140,l),
(75,140,o),
(154,-8,o),
(265,-8,c),
(265,47,l),
(173,47,o),
(107,150,o),
(107,150,c)
);
},
{
closed = 1;
nodes = (
(107,350,o),
(173,452,o),
(265,452,c),
(265,508,l),
(154,508,o),
(75,360,o),
(75,360,c),
(107,350,l)
);
},
{
closed = 1;
nodes = (
(376,452,o),
(408,354,o),
(408,250,cs),
(408,145,o),
(376,47,o),
(265,47,c),
(265,-8,l),
(411,-8,o),
(470,121,o),
(470,250,cs),
(470,379,o),
(411,508,o),
(265,508,c),
(265,452,l)
);
}
);
width = 512;
},
{
layerId = m002;
shapes = (
{
closed = 1;
nodes = (
(215,700,l),
(35,700,l),
(35,-200,l),
(215,-200,l)
);
},
{
closed = 1;
nodes = (
(105,170,l),
(105,170,o),
(214,-8,o),
(325,-8,c),
(265,107,l),
(230,107,o),
(105,170,o),
(105,170,c)
);
},
{
closed = 1;
nodes = (
(105,330,o),
(230,392,o),
(265,392,c),
(325,508,l),
(214,508,o),
(105,330,o),
(105,330,c),
(105,330,l)
);
},
{
closed = 1;
nodes = (
(326,392,o),
(328,294,o),
(328,250,cs),
(328,205,o),
(326,107,o),
(265,107,c),
(325,-8,l),
(451,-8,o),
(510,121,o),
(510,250,cs),
(510,379,o),
(451,508,o),
(325,508,c),
(265,392,l)
);
}
);
width = 525;
}
);
metricLeft = "=b";
metricRight = "=b";
unicode = 254;
},
{
glyphname = q;
kernLeft = KO_e;
kernRight = KO_g;
lastChange = "2024-04-20 20:06:07 +0000";
layers = (
{
layerId = m01;
shapes = (
{
closed = 1;
nodes = (
(377,-200,l),
(437,-200,l),
(437,430,l),
(377,440,l)
);
},
{
closed = 1;
nodes = (
(437,430,l),
(437,500,l),
(407,500,l),
(377,440,l)
);
},
{
closed = 1;
nodes = (
(437,360,l),
(437,360,o),
(358,508,o),
(247,508,c),
(247,453,l),
(339,453,o),
(405,350,o),
(405,350,c)
);
},
{
closed = 1;
nodes = (
(405,150,o),
(339,48,o),
(247,48,c),
(247,-8,l),
(358,-8,o),
(437,140,o),
(437,140,c),
(405,150,l)
);
},
{
closed = 1;
nodes = (
(136,48,o),
(104,146,o),
(104,250,cs),
(104,355,o),
(136,453,o),
(247,453,c),
(247,508,l),
(101,508,o),
(42,379,o),
(42,250,cs),
(42,121,o),
(101,-8,o),
(247,-8,c),
(247,48,l)
);
}
);
width = 512;
},
{
layerId = m002;
shapes = (
{
closed = 1;
nodes = (
(310,-200,l),
(490,-200,l),
(490,430,l),
(310,440,l)
);
},
{
closed = 1;
nodes = (
(490,430,l),
(490,500,l),
(340,500,l),
(310,440,l)
);
},
{
closed = 1;
nodes = (
(420,330,l),
(420,330,o),
(311,508,o),
(200,508,c),
(260,393,l),
(295,393,o),
(420,330,o),
(420,330,c)
);
},
{
closed = 1;
nodes = (
(420,170,o),
(295,108,o),
(260,108,c),
(200,-8,l),
(311,-8,o),
(420,170,o),
(420,170,c),
(420,170,l)
);
},
{
closed = 1;
nodes = (
(199,108,o),
(197,206,o),
(197,250,cs),
(197,295,o),
(199,393,o),
(260,393,c),
(200,508,l),
(74,508,o),
(15,379,o),
(15,250,cs),
(15,121,o),
(74,-8,o),
(200,-8,c),
(260,108,l)
);
}
);
width = 525;
}
);
metricLeft = "=o";
metricRight = "=d";
unicode = 113;
},
{
glyphname = r;
kernLeft = KO_n;
kernRight = KO_r;
lastChange = "2024-12-31 17:36:14 +0000";
layers = (
{
anchors = (
{
name = bottom;
pos = (172,0);
},
{
name = top;
pos = (172,500);
}
);
layerId = m01;
shapes = (
{
closed = 1;
nodes = (
(264,508,l),
(264,453,l)
);
},
{
closed = 1;
nodes = (
(75,0,l),
(135,0,l),
(135,440,l),
(75,430,l)
);
},
{
closed = 1;
nodes = (
(321,500,l),
(304,505,o),
(285,508,o),
(264,508,c),
(264,453,l),
(279,453,o),
(292,451,o),
(304,448,c)
);
},
{
closed = 1;
nodes = (
(105,500,l),
(75,500,l),
(75,430,l),
(135,440,l)
);
},
{
closed = 1;
nodes = (
(107,350,o),
(173,453,o),
(265,453,c),
(265,508,l),
(154,508,o),
(75,360,o),
(75,360,c),
(107,350,l)
);
}
);
width = 344;
},
{
anchors = (
{
name = bottom;
pos = (196,0);
},
{
name = top;
pos = (196,500);
}
);
layerId = m002;
shapes = (
{
closed = 1;
nodes = (
(324,508,l),
(264,373,l)
);
},
{
closed = 1;
nodes = (
(35,0,l),
(215,0,l),
(215,440,l),
(35,430,l)
);
},
{
closed = 1;
nodes = (
(391,493,l),
(374,501,o),
(345,508,o),
(324,508,c),
(264,373,l),
(292,373,o),
(316,365,o),
(344,348,c)
);
},
{
closed = 1;
nodes = (
(185,500,l),
(35,500,l),
(35,430,l),
(215,440,l)
);
},
{
closed = 1;
nodes = (
(105,330,o),
(230,373,o),
(265,373,c),
(325,508,l),
(214,508,o),
(105,330,o),
(105,330,c),
(105,330,l)
);
}
);
width = 391;
}
);
metricLeft = "=n";
unicode = 114;
userData = {
KernOnName = r;
};
},
{
glyphname = s;
kernLeft = KO_s;
kernRight = KO_s;
lastChange = "2024-12-31 17:36:14 +0000";
layers = (
{
anchors = (
{
name = bottom;
pos = (211,0);
},
{
name = top;
pos = (211,500);
}
);
layerId = m01;
shapes = (
{
closed = 1;
nodes = (
(334,-8,o),
(396,61,o),
(396,153,cs),
(396,239,o),
(340,275,o),
(211,290,c),
(211,232,l),
(298,220,o),
(336,201,o),
(336,153,cs),
(336,92,o),
(295,47,o),
(211,47,c),
(211,-8,l)
);
},
{
closed = 1;
nodes = (
(124,508,o),
(56,458,o),
(56,376,cs),
(56,294,o),
(115,246,o),
(211,232,c),
(211,290,l),
(149,298,o),
(116,327,o),
(116,376,cs),
(116,425,o),
(159,453,o),
(211,453,c),
(211,508,l)
);
},
{
closed = 1;
nodes = (
(77,32,o),
(137,-8,o),
(211,-8,c),
(211,47,l),
(148,47,o),
(106,79,o),
(80,99,c),
(45,55,l)
);
},
{
closed = 1;
nodes = (
(377,444,l),
(346,467,o),
(285,508,o),
(211,508,c),
(211,453,l),
(273,453,o),
(315,422,o),
(342,402,c)
);
}
);
width = 441;
},
{
anchors = (
{
name = bottom;
pos = (211,0);
},
{
name = top;
pos = (211,500);
}
);
layerId = m002;
shapes = (
{
closed = 1;
nodes = (
(361,-8,o),
(436,45,o),
(436,153,cs),
(436,255,o),
(377,305,o),
(241,320,c),
(191,202,l),
(236,196,o),
(256,182,o),
(256,153,cs),
(256,123,o),
(240,107,o),
(211,107,c),
(211,-8,l)
);
},
{
closed = 1;
nodes = (
(102,508,o),
(16,451,o),
(16,356,cs),
(16,272,o),
(83,213,o),
(191,202,c),
(241,320,l),
(211,324,o),
(196,335,o),
(196,356,cs),
(196,377,o),
(211,393,o),
(241,393,c),
(211,508,l)
);
},
{
closed = 1;
nodes = (
(37,32,o),
(97,-8,o),
(211,-8,c),
(211,107,l),
(148,107,o),
(122,123,o),
(80,159,c),
(5,55,l)
);
},
{
closed = 1;
nodes = (
(417,444,l),
(365,483,o),
(286,508,o),
(211,508,c),
(241,393,l),
(279,393,o),
(312,383,o),
(342,362,c)
);
}
);
width = 441;
}
);
unicode = 115;
userData = {
KernOnName = s;
};
},
{
glyphname = germandbls;
kernLeft = KO_n;
lastChange = "2024-04-20 20:06:19 +0000";
layers = (
{
layerId = m01;
shapes = (
{
closed = 1;
nodes = (
(215,350,l),
(215,294,o),
(244,246,o),
(321,232,c),
(321,290,l),
(278,298,o),
(275,327,o),
(275,350,c)
);
},
{
closed = 1;
nodes = (
(187,32,o),
(247,-8,o),
(321,-8,c),
(321,47,l),
(258,47,o),
(216,79,o),
(190,99,c),
(155,55,l)
);
},
{
closed = 1;
nodes = (
(75,0,l),
(135,0,l),
(135,450,l),
(75,450,l)
);
},
{
closed = 1;
nodes = (
(265,653,l),
(359,653,o),
(385,607,o),
(385,552,cs),
(385,483,o),
(215,458,o),
(215,350,c),
(275,350,l),
(275,425,o),
(447,450,o),
(447,552,c),
(447,634,o),
(391,708,o),
(265,708,c)
);
},
{
closed = 1;
nodes = (
(135,450,l),
(135,607,o),
(171,653,o),
(265,653,c),
(265,708,l),
(139,708,o),
(79,634,o),
(76,502,cs),
(75,450,l)
);
},
{
closed = 1;
nodes = (
(444,-8,o),
(506,61,o),
(506,153,cs),
(506,239,o),
(450,275,o),
(321,290,c),
(321,232,l),
(408,220,o),
(446,201,o),
(446,153,cs),
(446,92,o),
(405,47,o),
(321,47,c),
(321,-8,l)
);
}
);
width = 551;
},
{
layerId = m002;
shapes = (
{
closed = 1;
nodes = (
(255,350,l),
(255,264,o),
(284,216,o),
(381,202,c),
(431,320,l),
(408,323,o),
(395,331,o),
(395,350,c)
);
},
{
closed = 1;
nodes = (
(267,32,o),
(327,-8,o),
(401,-8,c),
(401,107,l),
(338,107,o),
(296,139,o),
(270,159,c),
(235,55,l)
);
},
{
closed = 1;
nodes = (
(35,0,l),
(215,0,l),
(215,450,l),
(35,450,l)
);
},
{
closed = 1;
nodes = (
(345,588,l),
(405,588,o),
(415,572,o),
(415,552,c),
(415,490,o),
(255,521,o),
(255,350,c),
(395,350,l),
(395,412,o),
(577,381,o),
(577,552,cs),
(577,634,o),
(511,708,o),
(345,708,c)
);
},
{
closed = 1;
nodes = (
(215,450,l),
(215,572,o),
(251,588,o),
(345,588,c),
(345,708,l),
(99,708,o),
(39,634,o),
(36,502,cs),
(35,450,l)
);
},
{
closed = 1;
nodes = (
(551,-8,o),
(626,45,o),
(626,153,cs),
(626,255,o),
(567,305,o),
(431,320,c),
(381,202,l),
(426,196,o),
(446,182,o),
(446,153,cs),
(446,123,o),
(430,107,o),
(401,107,c),
(401,-8,l)
);
}
);
width = 631;
}
);
metricLeft = "=h";
metricRight = "=s";
unicode = 223;
},
{
glyphname = t;
kernLeft = KO_t;
kernRight = KO_t;
lastChange = "2024-12-31 17:39:12 +0000";
layers = (
{
anchors = (
{
name = bottom;
pos = (217,0);
},
{
name = center;
pos = (160,250);
},
{
name = top;
pos = (132,590);
},
{
name = topright;
pos = (299,700);
}
);
layerId = m01;
shapes = (
{
closed = 1;
nodes = (
(285,445,l),
(295,500,l),
(24,500,l),
(24,445,l)
);
},
{
closed = 1;
nodes = (
(257,48,o),
(247,47,o),
(235,47,cs),
(180,47,o),
(162,76,o),
(162,167,c),
(162,610,l),
(102,600,l),
(102,200,l),
(102,46,o),
(135,-5,o),
(235,-5,cs),
(252,-5,o),
(263,-4,o),
(282,0,c),
(272,50,l)
);
}
);
width = 319;
},
{
anchors = (
{
name = bottom;
pos = (261,0);
},
{
name = center;
pos = (167,250);
},
{
name = top;
pos = (167,600);
},
{
name = topright;
pos = (330,700);
}
);
layerId = m002;
shapes = (
{
closed = 1;
nodes = (
(350,380,l),
(350,500,l),
(0,500,l),
(0,380,l)
);
},
{
closed = 1;
nodes = (
(313,108,o),
(303,107,o),
(291,107,cs),
(258,107,o),
(257,136,o),
(257,167,c),
(257,620,l),
(77,600,l),
(77,200,l),
(77,46,o),
(141,-7,o),
(261,-7,cs),
(298,-7,o),
(319,-4,o),
(338,0,c),
(328,110,l)
);
}
);
width = 350;
}
);
unicode = 116;
userData = {
KernOnName = t;
};
},
{
glyphname = u;
kernLeft = KO_u;
kernRight = KO_u;
lastChange = "2024-12-31 17:36:14 +0000";
layers = (
{
anchors = (
{
name = bottom;
pos = (255,0);
},
{
name = ogonek;
pos = (440,0);
},
{
name = top;
pos = (255,500);
},
{
name = topright;
pos = (490,500);
}
);
layerId = m01;
shapes = (
{
closed = 1;
nodes = (
(76,198,ls),
(79,66,o),
(139,-8,o),
(251,-8,c),
(251,47,l),
(171,47,o),
(135,93,o),
(135,250,c),
(75,250,l)
);
},
{
closed = 1;
nodes = (
(440,500,l),
(380,500,l),
(380,60,l),
(440,140,l)
);
},
{
closed = 1;
nodes = (
(135,500,l),
(75,500,l),
(75,250,l),
(135,250,l)
);
},
{
closed = 1;
nodes = (
(410,0,l),
(440,0,l),
(440,140,l),
(380,60,l)
);
},
{
closed = 1;
nodes = (
(408,150,o),
(342,47,o),
(250,47,c),
(250,-8,l),
(361,-8,o),
(440,140,o),
(440,140,c),
(408,150,l)
);
}
);
width = 510;
},
{
anchors = (
{
name = bottom;
pos = (258,0);
},
{
name = ogonek;
pos = (464,10);
},
{
name = top;
pos = (258,500);
},
{
name = topright;
pos = (495,500);
}
);
layerId = m002;
shapes = (
{
closed = 1;
nodes = (
(36,198,ls),
(39,66,o),
(99,-8,o),
(191,-8,c),
(251,107,l),
(211,107,o),
(215,153,o),
(215,250,c),
(35,250,l)
);
},
{
closed = 1;
nodes = (
(480,500,l),
(300,500,l),
(300,60,l),
(480,140,l)
);
},
{
closed = 1;
nodes = (
(215,500,l),
(35,500,l),
(35,250,l),
(215,250,l)
);
},
{
closed = 1;
nodes = (
(330,0,l),
(480,0,l),
(480,140,l),
(300,60,l)
);
},
{
closed = 1;
nodes = (
(410,150,o),
(302,107,o),
(250,107,c),
(190,-8,l),
(301,-8,o),
(410,150,o),
(410,150,c),
(410,150,l)
);
}
);
width = 515;
}
);
metricLeft = "=n";
unicode = 117;
userData = {
KernOnName = u;
};
},
{
glyphname = v;
kernLeft = KO_v;
kernRight = KO_y;
lastChange = "2024-12-31 17:36:14 +0000";
layers = (
{
layerId = m01;
shapes = (
{
closed = 1;
nodes = (
(24,500,l),
(191,0,l),
(265,0,l),
(432,500,l),
(368,500,l),
(228,58,l),
(88,500,l)
);
}
);
width = 456;
},
{
layerId = m002;
shapes = (
{
closed = 1;
nodes = (
(0,500,l),
(167,0,l),
(321,0,l),
(488,500,l),
(304,500,l),
(244,198,l),
(184,500,l)
);
}
);
width = 488;
}
);
unicode = 118;
userData = {
KernOnName = v;
};
},
{
glyphname = w;
kernLeft = KO_w;
kernRight = KO_w;
lastChange = "2024-12-31 17:36:14 +0000";
layers = (
{
anchors = (
{
name = bottom;
pos = (340,0);
},
{
name = top;
pos = (340,500);
}
);
layerId = m01;
shapes = (
{
closed = 1;
nodes = (
(313,500,l),
(445,0,l),
(519,0,l),
(656,500,l),
(592,500,l),
(482,58,l),
(372,500,l)
);
},
{
closed = 1;
nodes = (
(24,500,l),
(161,0,l),
(235,0,l),
(367,500,l),
(308,500,l),
(198,58,l),
(88,500,l)
);
}
);
width = 680;
},
{
anchors = (
{
name = bottom;
pos = (356,0);
},
{
name = top;
pos = (356,500);
}
);
layerId = m002;
shapes = (
{
closed = 1;
nodes = (
(289,500,l),
(421,0,l),
(575,0,l),
(712,500,l),
(548,500,l),
(498,198,l),
(428,500,l)
);
},
{
closed = 1;
nodes = (
(0,500,l),
(137,0,l),
(291,0,l),
(423,500,l),
(284,500,l),
(214,198,l),
(164,500,l)
);
}
);
width = 712;
}
);
metricLeft = "=v";
metricRight = "=v";
unicode = 119;
userData = {
KernOnName = w;
};
},
{
glyphname = x;
kernLeft = KO_x;
kernRight = KO_x;
lastChange = "2024-12-31 17:36:14 +0000";
layers = (
{
layerId = m01;
shapes = (
{
closed = 1;
nodes = (
(228,210,l),
(360,0,l),
(427,0,l),
(265,258,l),
(191,258,l),
(29,0,l),
(96,0,l)
);
},
{
closed = 1;
nodes = (
(29,500,l),
(191,258,l),
(265,258,l),
(427,500,l),
(359,500,l),
(228,306,l),
(96,500,l)
);
}
);
width = 456;
},
{
layerId = m002;
shapes = (
{
closed = 1;
nodes = (
(239,130,l),
(281,0,l),
(478,0,l),
(336,258,l),
(142,258,l),
(0,0,l),
(197,0,l)
);
},
{
closed = 1;
nodes = (
(0,500,l),
(142,258,l),
(336,258,l),
(478,500,l),
(280,500,l),
(239,386,l),
(197,500,l)
);
}
);
width = 478;
}
);
unicode = 120;
userData = {
KernOnName = x;
};
},
{
glyphname = y;
kernLeft = KO_y;
kernRight = KO_y;
lastChange = "2024-12-31 17:36:14 +0000";
layers = (
{
anchors = (
{
name = bottom;
pos = (236,0);
},
{
name = top;
pos = (236,500);
}
);
layerId = m01;
shapes = (
{
closed = 1;
nodes = (
(24,-200,l),
(42,-204,o),
(53,-205,o),
(70,-205,cs),
(170,-205,o),
(220,-154,o),
(273,0,c),
(213,0,l),
(202,-33,l),
(170,-125,o),
(142,-145,o),
(87,-145,cs),
(75,-145,o),
(55,-144,o),
(41,-142,c)
);
},
{
closed = 1;
nodes = (
(32,500,l),
(206,-23,l),
(273,0,l),
(440,500,l),
(376,500,l),
(236,58,l),
(96,500,l)
);
}
);
width = 464;
},
{
anchors = (
{
name = bottom;
pos = (244,0);
},
{
name = top;
pos = (244,500);
}
);
layerId = m002;
shapes = (
{
closed = 1;
nodes = (
(-8,-200,l),
(30,-204,o),
(61,-205,o),
(78,-205,cs),
(218,-205,o),
(268,-154,o),
(321,0,c),
(167,0,l),
(156,-33,l),
(144,-65,o),
(120,-85,o),
(65,-85,cs),
(23,-85,o),
(9,-82,o),
(9,-82,c)
);
},
{
closed = 1;
nodes = (
(0,500,l),
(167,0,l),
(321,0,l),
(488,500,l),
(304,500,l),
(244,198,l),
(184,500,l)
);
}
);
width = 488;
}
);
metricRight = "=v";
unicode = 121;
userData = {
KernOnName = y;
};
},
{
glyphname = z;
kernLeft = KO_z;
kernRight = KO_z;
lastChange = "2024-12-31 17:36:14 +0000";
layers = (
{
anchors = (
{
name = bottom;
pos = (218,0);
},
{
name = center;
pos = (218,250);
},
{
name = top;
pos = (218,500);
}
);
layerId = m01;
shapes = (
{
closed = 1;
nodes = (
(55,500,l),
(55,445,l),
(325,445,l),
(35,55,l),
(35,0,l),
(400,0,l),
(400,55,l),
(111,55,l),
(400,445,l),
(400,500,l)
);
}
);
width = 435;
},
{
anchors = (
{
name = bottom;
pos = (238,0);
},
{
name = center;
pos = (238,250);
},
{
name = top;
pos = (238,500);
}
);
layerId = m002;
shapes = (
{
closed = 1;
nodes = (
(30,500,l),
(30,380,l),
(280,380,l),
(15,120,l),
(15,0,l),
(460,0,l),
(460,120,l),
(211,120,l),
(460,380,l),
(460,500,l)
);
}
);
width = 475;
}
);
unicode = 122;
userData = {
KernOnName = z;
};
},
{
glyphname = saltillo;
lastChange = "2022-10-23 18:36:04 +0000";
layers = (
{
layerId = m01;
shapes = (
{
closed = 1;
nodes = (
(70,350,l),
(130,350,l),
(140,750,l),
(60,750,l)
);
}
);
width = 200;
},
{
layerId = m002;
shapes = (
{
closed = 1;
nodes = (
(45,350,l),
(205,350,l),
(225,750,l),
(25,750,l)
);
}
);
width = 250;
}
);
metricLeft = "=i";
metricRight = "=|";
unicode = 42892;
},
{
glyphname = a.salt;
kernLeft = KO_e;
kernRight = KO_a.salt;
lastChange = "2022-11-13 01:55:05 +0000";
layers = (
{
layerId = m01;
shapes = (
{
closed = 1;
nodes = (
(482,48,l),
(437,48,o),
(437,105,o),
(437,196,cs),
(437,250,l),
(377,250,l),
(377,196,ls),
(377,87,o),
(377,0,o),
(482,0,c)
);
},
{
closed = 1;
nodes = (
(377,60,l),
(437,70,l),
(437,430,l),
(377,440,l)
);
},
{
closed = 1;
nodes = (
(437,430,l),
(437,500,l),
(407,500,l),
(377,440,l)
);
},
{
closed = 1;
nodes = (
(405,150,o),
(339,47,o),
(247,47,c),
(247,-8,l),
(358,-8,o),
(437,140,o),
(437,140,c),
(405,150,l)
);
},
{
closed = 1;
nodes = (
(437,360,l),
(437,360,o),
(358,508,o),
(247,508,c),
(247,452,l),
(339,452,o),
(405,350,o),
(405,350,c)
);
},
{
closed = 1;
nodes = (
(247,508,l),
(101,508,o),
(42,379,o),
(42,250,cs),
(42,121,o),
(101,-8,o),
(247,-8,c),
(247,47,l),
(136,47,o),
(104,145,o),
(104,250,cs),
(104,354,o),
(136,452,o),
(247,452,c)
);
}
);
width = 512;
},
{
layerId = m002;
shapes = (
{
closed = 1;
nodes = (
(535,108,l),
(490,108,o),
(490,165,o),
(490,196,cs),
(490,250,l),
(310,250,l),
(310,196,ls),
(310,87,o),
(310,0,o),
(535,0,c)
);
},
{
closed = 1;
nodes = (
(310,90,l),
(490,130,l),
(490,430,l),
(310,440,l)
);
},
{
closed = 1;
nodes = (
(490,430,l),
(490,500,l),
(340,500,l),
(310,440,l)
);
},
{
closed = 1;
nodes = (
(420,170,o),
(295,107,o),
(260,107,c),
(200,-8,l),
(311,-8,o),
(420,170,o),
(420,170,c),
(420,170,l)
);
},
{
closed = 1;
nodes = (
(420,330,l),
(420,330,o),
(311,508,o),
(200,508,c),
(260,392,l),
(295,392,o),
(420,330,o),
(420,330,c)
);
},
{
closed = 1;
nodes = (
(200,508,l),
(74,508,o),
(15,379,o),
(15,250,cs),
(15,121,o),
(74,-8,o),
(200,-8,c),
(260,107,l),
(199,107,o),
(197,205,o),
(197,250,cs),
(197,294,o),
(199,392,o),
(260,392,c)
);
}
);
width = 535;
}
);
metricLeft = "=o";
},
{
glyphname = e.salt;
kernLeft = KO_e;
kernRight = KO_e.salt;
lastChange = "2024-04-20 19:31:02 +0000";
layers = (
{
layerId = m01;
shapes = (
{
closed = 1;
nodes = (
(380,87,o),
(309,48,o),
(217,48,c),
(217,-8,l),
(328,-8,o),
(407,39,o),
(407,39,c),
(380,87,l)
);
},
{
closed = 1;
nodes = (
(42,66,o),
(105,-8,o),
(217,-8,c),
(217,48,l),
(137,48,o),
(102,93,o),
(102,250,c),
(42,250,l)
);
},
{
closed = 1;
nodes = (
(100,508,o),
(42,379,o),
(42,250,c),
(102,250,l),
(102,354,o),
(135,453,o),
(246,453,cs),
(316,453,o),
(357,408,o),
(357,347,cs),
(357,253,o),
(221,246,o),
(102,251,c),
(102,196,l),
(180,195,l),
(291,195,o),
(417,223,o),
(417,347,cs),
(417,439,o),
(355,508,o),
(246,508,cs)
);
}
);
width = 459;
},
{
layerId = m002;
shapes = (
{
closed = 1;
nodes = (
(428,147,o),
(342,108,o),
(260,108,c),
(220,-8,l),
(381,-8,o),
(470,45,o),
(470,45,cs),
(428,147,l)
);
},
{
closed = 1;
nodes = (
(15,66,o),
(108,-8,o),
(220,-8,c),
(260,108,l),
(200,108,o),
(185,133,o),
(185,250,c),
(15,250,l)
);
},
{
closed = 1;
nodes = (
(73,508,o),
(15,379,o),
(15,250,c),
(185,250,l),
(185,347,o),
(209,393,o),
(249,393,cs),
(289,393,o),
(300,367,o),
(300,347,cs),
(300,327,o),
(289,301,o),
(185,306,c),
(105,196,l),
(183,195,l),
(334,195,o),
(460,223,o),
(460,347,cs),
(460,439,o),
(398,508,o),
(249,508,cs)
);
}
);
width = 485;
}
);
metricLeft = "=o";
metricRight = "=e";
},
{
glyphname = g.salt;
kernLeft = KO_g.salt;
kernRight = KO_g.salt;
lastChange = "2022-11-22 23:27:25 +0000";
layers = (
{
layerId = m01;
shapes = (
{
closed = 1;
nodes = (
(330,158,o),
(395,238,o),
(395,333,c),
(395,428,o),
(330,508,o),
(220,508,cs),
(110,508,o),
(45,428,o),
(45,333,cs),
(45,238,o),
(110,158,o),
(220,158,cs)
);
},
{
closed = 1;
nodes = (
(293,458,o),
(333,403,o),
(333,333,cs),
(333,263,o),
(293,208,o),
(220,208,cs),
(147,208,o),
(107,263,o),
(107,333,cs),
(107,403,o),
(147,458,o),
(220,458,cs)
);
},
{
closed = 1;
nodes = (
(45,-155,l),
(45,-155,o),
(114,-208,o),
(225,-208,c),
(225,-153,l),
(133,-153,o),
(88,-121,o),
(70,-111,c)
);
},
{
closed = 1;
nodes = (
(430,445,l),
(430,475,l),
(305,475,l),
(370,415,l)
);
},
{
closed = 1;
nodes = (
(132,215,l),
(103,173,o),
(55,115,o),
(55,70,cs),
(55,25,o),
(56,-8,o),
(220,0,c),
(348,6,o),
(368,-10,o),
(368,-50,cs),
(368,-90,o),
(353,-153,o),
(225,-153,c),
(225,-208,l),
(365,-208,o),
(430,-145,o),
(430,-50,cs),
(430,55,o),
(360,72,o),
(220,60,cs),
(80,48,o),
(77,71,o),
(163,202,c)
);
}
);
width = 475;
},
{
layerId = m002;
shapes = (
{
closed = 1;
nodes = (
(370,158,o),
(435,238,o),
(435,333,cs),
(435,428,o),
(370,508,o),
(220,508,cs),
(70,508,o),
(5,428,o),
(5,333,cs),
(5,238,o),
(70,158,o),
(220,158,cs)
);
},
{
closed = 1;
nodes = (
(253,403,o),
(268,373,o),
(268,333,c),
(268,293,o),
(253,263,o),
(220,263,cs),
(187,263,o),
(172,293,o),
(172,333,c),
(172,373,o),
(187,403,o),
(220,403,cs)
);
},
{
closed = 1;
nodes = (
(5,-155,l),
(5,-155,o),
(74,-208,o),
(225,-208,c),
(225,-93,l),
(113,-93,o),
(60,-61,o),
(60,-61,cs)
);
},
{
closed = 1;
nodes = (
(465,405,l),
(465,475,l),
(300,475,l),
(405,375,l)
);
},
{
closed = 1;
nodes = (
(132,245,l),
(83,203,o),
(15,115,o),
(15,70,cs),
(15,25,o),
(16,-25,o),
(220,-10,cs),
(288,-5,o),
(318,-10,o),
(318,-40,c),
(318,-70,o),
(293,-93,o),
(225,-93,c),
(225,-208,l),
(385,-208,o),
(465,-135,o),
(465,-40,cs),
(465,75,o),
(400,118,o),
(220,100,cs),
(120,90,o),
(117,103,o),
(173,202,c)
);
}
);
width = 470;
}
);
metricLeft = "=s";
metricRight = "=s";
},
{
glyphname = k.salt;
kernLeft = KO_i;
kernRight = KO_k.salt;
lastChange = "2022-11-22 23:08:06 +0000";
layers = (
{
layerId = m01;
shapes = (
{
closed = 1;
nodes = (
(135,700,l),
(75,700,l),
(75,0,l),
(135,0,l)
);
},
{
closed = 1;
nodes = (
(460,500,l),
(380,500,l),
(135,257,l),
(380,0,l),
(460,0,l),
(215,258,l)
);
}
);
width = 484;
},
{
layerId = m002;
shapes = (
{
closed = 1;
nodes = (
(215,700,l),
(35,700,l),
(35,0,l),
(215,0,l)
);
},
{
closed = 1;
nodes = (
(500,500,l),
(300,500,l),
(175,257,l),
(300,0,l),
(500,0,l),
(355,258,l)
);
}
);
width = 500;
}
);
metricLeft = "=h";
},
{
glyphname = ordfeminine;
lastChange = "2024-12-31 17:20:32 +0000";
layers = (
{
layerId = m01;
shapes = (
{
closed = 1;
nodes = (
(125,493,o),
(140,502,o),
(151,512,c),
(159,496,l),
(177,496,l),
(177,601,ls),
(177,647,o),
(159,675,o),
(107,675,cs),
(82,675,o),
(58,663,o),
(45,653,c),
(60,631,l),
(70,638,o),
(84,646,o),
(107,646,cs),
(139,646,o),
(146,636,o),
(147,607,c),
(144,607,ls),
(74,607,o),
(42,591,o),
(42,552,cs),
(42,518,o),
(65,493,o),
(109,493,cs)
);
},
{
closed = 1;
nodes = (
(72,571,o),
(91,579,o),
(147,579,c),
(147,543,l),
(138,532,o),
(124,521,o),
(109,521,cs),
(83,521,o),
(72,533,o),
(72,552,cs)
);
}
);
width = 219;
},
{
layerId = m002;
shapes = (
{
closed = 1;
nodes = (
(87,493,o),
(101,502,o),
(113,513,c),
(121,496,l),
(174,496,l),
(174,602,ls),
(174,649,o),
(152,675,o),
(99,675,cs),
(60,675,o),
(15,656,o),
(15,656,c),
(29,620,l),
(36,624,o),
(66,634,o),
(89,634,cs),
(108,634,o),
(111,626,o),
(111,603,c),
(102,603,ls),
(45,603,o),
(15,587,o),
(15,550,cs),
(15,517,o),
(36,493,o),
(73,493,cs)
);
},
{
closed = 1;
nodes = (
(78,564,o),
(84,573,o),
(111,573,c),
(111,539,l),
(104,536,o),
(97,533,o),
(94,533,cs),
(84,533,o),
(78,539,o),
(78,550,cs)
);
}
);
width = 189;
}
);
metricLeft = "=a";
metricRight = "=|";
unicode = 170;
userData = {
KernOnSpecialSpacing = {
L = superiors;
R = superiors;
};
};
},
{
glyphname = ordmasculine;
kernLeft = KO_ordmasculine;
lastChange = "2024-12-31 17:20:32 +0000";
layers = (
{
layerId = m01;
shapes = (
{
closed = 1;
nodes = (
(42,540,o),
(62,493,o),
(115,493,cs),
(168,493,o),
(188,540,o),
(188,584,cs),
(188,628,o),
(168,675,o),
(115,675,cs),
(62,675,o),
(42,628,o),
(42,584,cs)
);
},
{
closed = 1;
nodes = (
(72,618,o),
(82,646,o),
(115,646,cs),
(148,646,o),
(158,618,o),
(158,584,cs),
(158,550,o),
(148,521,o),
(115,521,cs),
(82,521,o),
(72,550,o),
(72,584,cs)
);
}
);
width = 230;
},
{
layerId = m002;
shapes = (
{
closed = 1;
nodes = (
(15,539,o),
(35,493,o),
(101,493,cs),
(167,493,o),
(187,539,o),
(187,584,cs),
(187,630,o),
(167,675,o),
(101,675,cs),
(35,675,o),
(15,630,o),
(15,584,cs)
);
},
{
closed = 1;
nodes = (
(79,600,o),
(79,634,o),
(101,634,cs),
(123,634,o),
(123,600,o),
(123,584,cs),
(123,568,o),
(123,534,o),
(101,534,cs),
(79,534,o),
(79,568,o),
(79,584,cs)
);
}
);
width = 202;
}
);
metricLeft = "=o";
metricRight = "=|";
unicode = 186;
userData = {
KernOnSpecialSpacing = {
L = superiors;
R = superiors;
};
};
},
{
glyphname = Omega;
kernLeft = KO_Omega;
lastChange = "2024-12-31 17:36:14 +0000";
layers = (
{
layerId = m01;
shapes = (
{
closed = 1;
nodes = (
(264,60,l),
(159,92,o),
(117,203,o),
(117,334,cs),
(117,491,o),
(177,616,o),
(332,616,cs),
(487,616,o),
(547,491,o),
(547,334,cs),
(547,202,o),
(505,93,o),
(400,60,c),
(400,0,l),
(555,33,o),
(619,175,o),
(619,334,cs),
(619,514,o),
(537,676,o),
(332,676,c),
(127,676,o),
(45,514,o),
(45,334,cs),
(45,175,o),
(109,32,o),
(264,0,c)
);
},
{
closed = 1;
nodes = (
(264,0,l),
(264,60,l),
(0,60,l),
(0,0,l)
);
},
{
closed = 1;
nodes = (
(664,0,l),
(664,60,l),
(400,60,l),
(400,0,l)
);
}
);
width = 664;
},
{
layerId = m002;
shapes = (
{
closed = 1;
nodes = (
(312,110,l),
(227,110,o),
(207,234,o),
(207,334,cs),
(207,434,o),
(227,556,o),
(342,556,cs),
(457,556,o),
(477,434,o),
(477,334,cs),
(477,234,o),
(457,110,o),
(372,110,c),
(372,0,l),
(587,0,o),
(669,154,o),
(669,334,cs),
(669,514,o),
(587,676,o),
(342,676,cs),
(96,676,o),
(15,514,o),
(15,334,cs),
(15,154,o),
(96,0,o),
(312,0,c)
);
},
{
closed = 1;
nodes = (
(304,0,l),
(304,110,l),
(0,110,l),
(0,0,l)
);
},
{
closed = 1;
nodes = (
(684,0,l),
(684,110,l),
(380,110,l),
(380,0,l)
);
}
);
width = 684;
}
);
unicode = 937;
userData = {
KernOnName = Omega;
};
},
{
glyphname = pi;
kernLeft = KO_pi;
lastChange = "2022-10-27 17:54:39 +0000";
layers = (
{
layerId = m01;
shapes = (
{
closed = 1;
nodes = (
(253,500,l),
(99,500,o),
(48,467,o),
(48,367,cs),
(48,350,o),
(49,339,o),
(53,320,c),
(103,330,l),
(101,345,o),
(100,355,o),
(100,367,cs),
(100,422,o),
(128,440,o),
(220,440,c),
(553,440,l),
(553,500,l)
);
},
{
closed = 1;
nodes = (
(373,200,l),
(373,46,o),
(406,-5,o),
(506,-5,cs),
(523,-5,o),
(534,-4,o),
(553,0,c),
(543,50,l),
(528,48,o),
(518,47,o),
(506,47,cs),
(451,47,o),
(433,75,o),
(433,167,c),
(433,470,l),
(373,470,l)
);
},
{
closed = 1;
nodes = (
(148,0,l),
(253,0,o),
(253,87,o),
(253,196,cs),
(253,470,l),
(193,470,l),
(193,196,ls),
(193,105,o),
(193,50,o),
(148,50,c)
);
}
);
width = 600;
},
{
layerId = m002;
shapes = (
{
closed = 1;
nodes = (
(222,500,l),
(68,500,o),
(15,467,o),
(15,387,cs),
(15,350,o),
(18,319,o),
(22,300,c),
(132,310,l),
(130,325,o),
(129,335,o),
(129,347,cs),
(129,379,o),
(157,380,o),
(189,380,c),
(642,380,l),
(642,500,l)
);
},
{
closed = 1;
nodes = (
(392,200,l),
(392,46,o),
(425,-7,o),
(565,-7,cs),
(602,-7,o),
(633,-4,o),
(652,0,c),
(642,110,l),
(627,108,o),
(617,107,o),
(605,107,cs),
(573,107,o),
(572,135,o),
(572,167,c),
(572,470,l),
(392,470,l)
);
},
{
closed = 1;
nodes = (
(127,0,l),
(312,0,o),
(352,87,o),
(352,196,cs),
(352,470,l),
(172,470,l),
(172,196,ls),
(172,165,o),
(172,110,o),
(127,110,c)
);
}
);
width = 682;
}
);
unicode = 960;
},
{
glyphname = zero.lf;
kernLeft = KO_zero.lf;
kernRight = KO_zero.lf;
lastChange = "2022-10-19 20:00:41 +0000";
layers = (
{
layerId = m01;
shapes = (
{
closed = 1;
nodes = (
(45,135,o),
(143,-10,o),
(306,-10,cs),
(470,-10,o),
(562,135,o),
(562,334,cs),
(562,532,o),
(470,677,o),
(306,677,cs),
(143,677,o),
(45,532,o),
(45,334,cs)
);
},
{
closed = 1;
nodes = (
(117,507,o),
(178,617,o),
(306,617,cs),
(434,617,o),
(490,507,o),
(490,334,cs),
(490,159,o),
(434,50,o),
(306,50,cs),
(178,50,o),
(117,159,o),
(117,334,cs)
);
}
);
width = 607;
},
{
layerId = m002;
shapes = (
{
closed = 1;
nodes = (
(5,135,o),
(103,-10,o),
(306,-10,cs),
(510,-10,o),
(602,135,o),
(602,334,cs),
(602,532,o),
(510,677,o),
(306,677,cs),
(103,677,o),
(5,532,o),
(5,334,cs)
);
},
{
closed = 1;
nodes = (
(197,477,o),
(218,557,o),
(306,557,cs),
(394,557,o),
(410,477,o),
(410,334,cs),
(410,189,o),
(394,110,o),
(306,110,cs),
(218,110,o),
(197,189,o),
(197,334,cs)
);
}
);
width = 607;
}
);
metricRight = "=|";
},
{
glyphname = one.lf;
kernLeft = KO_one.lf;
kernRight = KO_one;
lastChange = "2022-10-20 16:55:11 +0000";
layers = (
{
layerId = m01;
shapes = (
{
closed = 1;
nodes = (
(68,0,l),
(412,0,l),
(412,60,l),
(270,60,l),
(270,667,l),
(222,667,l),
(45,584,l),
(64,538,l),
(210,591,l),
(210,60,l),
(68,60,l)
);
}
);
width = 427;
},
{
layerId = m002;
shapes = (
{
closed = 1;
nodes = (
(48,0,l),
(552,0,l),
(552,115,l),
(410,115,l),
(410,667,l),
(242,667,l),
(25,584,l),
(44,478,l),
(230,531,l),
(230,115,l),
(48,115,l)
);
}
);
width = 552;
}
);
},
{
glyphname = two.lf;
kernLeft = KO_two.lf;
kernRight = KO_two.lf;
lastChange = "2022-10-19 20:01:25 +0000";
layers = (
{
layerId = m01;
shapes = (
{
closed = 1;
nodes = (
(438,0,l),
(438,60,l),
(131,60,l),
(131,60,o),
(438,313,o),
(438,500,c),
(375,500,l),
(375,333,o),
(45,60,o),
(45,60,c),
(45,0,l)
);
},
{
closed = 1;
nodes = (
(120,598,o),
(166,616,o),
(217,616,c),
(217,676,l),
(152,676,o),
(95,656,o),
(45,630,c),
(74,578,l)
);
},
{
closed = 1;
nodes = (
(438,500,l),
(438,599,o),
(352,676,o),
(217,676,c),
(217,616,l),
(320,616,o),
(375,565,o),
(375,500,c)
);
}
);
width = 474;
},
{
layerId = m002;
shapes = (
{
closed = 1;
nodes = (
(477,0,l),
(477,115,l),
(221,115,l),
(221,115,o),
(477,316,o),
(477,480,c),
(304,480,l),
(304,336,o),
(15,115,o),
(15,115,c),
(15,0,l)
);
},
{
closed = 1;
nodes = (
(107,545,o),
(158,556,o),
(207,556,c),
(227,676,l),
(135,676,o),
(65,651,o),
(15,630,c),
(44,518,l)
);
},
{
closed = 1;
nodes = (
(477,480,l),
(477,598,o),
(377,676,o),
(227,676,c),
(207,556,l),
(275,556,o),
(304,531,o),
(304,480,c)
);
}
);
width = 500;
}
);
},
{
glyphname = three.lf;
kernLeft = KO_three.lf;
kernRight = KO_eight;
lastChange = "2022-10-23 21:22:11 +0000";
layers = (
{
layerId = m01;
shapes = (
{
closed = 1;
nodes = (
(357,-10,o),
(442,57,o),
(442,185,c),
(442,263,o),
(392,331,o),
(312,352,c),
(373,378,o),
(412,434,o),
(412,498,cs),
(412,612,o),
(331,676,o),
(187,676,c),
(187,616,l),
(293,616,o),
(345,577,o),
(345,498,cs),
(345,419,o),
(293,380,o),
(187,380,c),
(187,325,l),
(309,325,o),
(370,273,o),
(370,185,cs),
(370,97,o),
(309,50,o),
(187,50,c),
(187,-10,l)
);
},
{
closed = 1;
nodes = (
(187,50,l),
(136,50,o),
(90,68,o),
(44,88,c),
(15,36,l),
(65,10,o),
(122,-10,o),
(187,-10,c)
);
},
{
closed = 1;
nodes = (
(187,325,l),
(187,380,l),
(132,380,l),
(132,325,l)
);
},
{
closed = 1;
nodes = (
(90,598,o),
(136,616,o),
(187,616,c),
(187,676,l),
(122,676,o),
(65,656,o),
(15,630,c),
(44,578,l)
);
}
);
width = 463;
},
{
layerId = m002;
shapes = (
{
closed = 1;
nodes = (
(427,-10,o),
(512,62,o),
(512,190,cs),
(512,268,o),
(462,332,o),
(382,353,c),
(443,379,o),
(482,434,o),
(482,498,cs),
(482,612,o),
(401,677,o),
(217,677,c),
(217,556,l),
(243,556,o),
(295,552,o),
(295,483,cs),
(295,414,o),
(243,410,o),
(217,410,c),
(217,295,l),
(259,295,o),
(320,278,o),
(320,205,cs),
(320,132,o),
(259,110,o),
(217,110,c),
(217,-10,l)
);
},
{
closed = 1;
nodes = (
(217,110,l),
(148,110,o),
(97,121,o),
(34,148,c),
(5,36,l),
(55,15,o),
(125,-10,o),
(217,-10,c)
);
},
{
closed = 1;
nodes = (
(217,295,l),
(217,410,l),
(115,410,l),
(115,295,l)
);
},
{
closed = 1;
nodes = (
(97,546,o),
(148,557,o),
(217,557,c),
(217,677,l),
(125,677,o),
(55,652,o),
(5,631,c),
(34,519,l)
);
}
);
width = 523;
}
);
metricRight = "=B";
},
{
glyphname = four.lf;
kernLeft = KO_four.lf;
kernRight = KO_four.lf;
lastChange = "2022-10-19 20:01:33 +0000";
layers = (
{
layerId = m01;
shapes = (
{
closed = 1;
nodes = (
(5,223,l),
(5,167,l),
(327,167,l),
(327,0,l),
(387,0,l),
(387,167,l),
(495,167,l),
(495,227,l),
(387,227,l),
(387,667,l),
(323,667,l)
);
},
{
closed = 1;
nodes = (
(75,227,l),
(327,572,l),
(327,227,l)
);
}
);
width = 510;
},
{
layerId = m002;
shapes = (
{
closed = 1;
nodes = (
(0,223,l),
(0,107,l),
(282,107,l),
(282,0,l),
(462,0,l),
(462,107,l),
(570,107,l),
(570,227,l),
(462,227,l),
(462,667,l),
(282,667,l)
);
},
{
closed = 1;
nodes = (
(150,227,l),
(282,435,l),
(282,227,l)
);
}
);
width = 570;
}
);
},
{
glyphname = five.lf;
kernLeft = KO_five.lf;
kernRight = KO_five.lf;
lastChange = "2022-10-19 20:01:36 +0000";
layers = (
{
layerId = m01;
shapes = (
{
closed = 1;
nodes = (
(224,400,l),
(197,400,o),
(169,398,o),
(142,395,c),
(142,607,l),
(436,607,l),
(436,667,l),
(82,667,l),
(82,330,l),
(82,330,o),
(169,340,o),
(224,340,c)
);
},
{
closed = 1;
nodes = (
(394,-10,o),
(479,62,o),
(479,190,cs),
(479,318,o),
(394,400,o),
(224,400,c),
(224,340,l),
(346,340,o),
(407,278,o),
(407,190,cs),
(407,102,o),
(346,50,o),
(224,50,c),
(224,-10,l)
);
},
{
closed = 1;
nodes = (
(224,50,l),
(173,50,o),
(127,68,o),
(81,88,c),
(52,36,l),
(102,10,o),
(159,-10,o),
(224,-10,c)
);
}
);
width = 524;
},
{
layerId = m002;
shapes = (
{
closed = 1;
nodes = (
(264,430,l),
(237,430,o),
(222,429,o),
(222,429,c),
(222,527,l),
(476,527,l),
(476,667,l),
(42,667,l),
(42,290,l),
(42,290,o),
(169,310,o),
(224,310,c)
);
},
{
closed = 1;
nodes = (
(434,-10,o),
(519,62,o),
(519,220,cs),
(519,348,o),
(434,430,o),
(264,430,c),
(224,310,l),
(306,310,o),
(327,278,o),
(327,220,cs),
(327,162,o),
(306,110,o),
(224,110,c),
(224,-10,l)
);
},
{
closed = 1;
nodes = (
(224,110,l),
(173,110,o),
(87,128,o),
(41,148,c),
(12,36,l),
(62,10,o),
(159,-10,o),
(224,-10,c)
);
}
);
width = 534;
}
);
metricRight = "=O";
},
{
glyphname = six.lf;
kernLeft = KO_six;
kernRight = KO_six;
lastChange = "2022-10-19 20:01:39 +0000";
layers = (
{
layerId = m01;
shapes = (
{
closed = 1;
nodes = (
(45,103,o),
(105,-10,o),
(255,-10,cs),
(405,-10,o),
(465,103,o),
(465,197,cs),
(465,291,o),
(405,403,o),
(255,403,cs),
(216,403,o),
(139,392,o),
(102,317,c),
(132,566,o),
(247,622,o),
(378,626,c),
(378,677,l),
(80,674,o),
(45,407,o),
(45,248,cs)
);
},
{
closed = 1;
nodes = (
(112,262,o),
(145,348,o),
(255,348,cs),
(365,348,o),
(398,262,o),
(398,197,cs),
(398,132,o),
(365,45,o),
(255,45,cs),
(145,45,o),
(112,132,o),
(112,197,cs)
);
}
);
width = 510;
},
{
layerId = m002;
shapes = (
{
closed = 1;
nodes = (
(15,103,o),
(95,-10,o),
(265,-10,cs),
(435,-10,o),
(515,93,o),
(515,212,cs),
(515,331,o),
(435,433,o),
(285,433,cs),
(225,433,o),
(197,402,o),
(197,402,c),
(217,481,o),
(265,556,o),
(428,556,c),
(428,677,l),
(50,674,o),
(15,407,o),
(15,248,cs)
);
},
{
closed = 1;
nodes = (
(197,247,o),
(202,318,o),
(265,318,cs),
(328,318,o),
(333,247,o),
(333,212,c),
(333,177,o),
(328,105,o),
(265,105,cs),
(202,105,o),
(197,177,o),
(197,212,cs)
);
}
);
width = 530;
}
);
metricLeft = "=O";
metricRight = "=O";
},
{
glyphname = seven.lf;
kernLeft = KO_seven.lf;
kernRight = KO_seven.lf;
lastChange = "2022-10-19 20:02:21 +0000";
layers = (
{
layerId = m01;
shapes = (
{
closed = 1;
nodes = (
(156,267,o),
(413,607,o),
(413,607,c),
(413,667,l),
(0,667,l),
(0,607,l),
(349,607,l),
(349,607,o),
(91,267,o),
(91,0,c),
(156,0,l)
);
}
);
width = 428;
},
{
layerId = m002;
shapes = (
{
closed = 1;
nodes = (
(251,267,o),
(508,527,o),
(508,527,cs),
(508,667,l),
(15,667,l),
(15,527,l),
(324,527,l),
(324,527,o),
(66,267,o),
(66,0,c),
(251,0,l)
);
}
);
width = 523;
}
);
},
{
glyphname = eight.lf;
kernLeft = KO_eight;
kernRight = KO_eight;
lastChange = "2022-10-23 21:22:32 +0000";
layers = (
{
layerId = m01;
shapes = (
{
closed = 1;
nodes = (
(52,461,o),
(71,387,o),
(141,364,c),
(53,339,o),
(21,261,o),
(21,186,cs),
(21,86,o),
(85,-10,o),
(231,-10,cs),
(377,-10,o),
(441,86,o),
(441,186,cs),
(441,261,o),
(409,340,o),
(321,365,c),
(391,388,o),
(409,461,o),
(409,506,cs),
(409,581,o),
(365,676,o),
(231,676,c),
(97,676,o),
(52,581,o),
(52,506,cs)
);
},
{
closed = 1;
nodes = (
(88,261,o),
(132,334,o),
(231,334,cs),
(330,334,o),
(374,261,o),
(374,186,cs),
(374,111,o),
(336,45,o),
(231,45,cs),
(126,45,o),
(88,111,o),
(88,186,cs)
);
},
{
closed = 1;
nodes = (
(111,563,o),
(139,622,o),
(231,622,cs),
(323,622,o),
(350,563,o),
(350,506,cs),
(350,449,o),
(319,389,o),
(231,389,cs),
(142,389,o),
(111,449,o),
(111,506,cs)
);
}
);
width = 462;
},
{
layerId = m002;
shapes = (
{
closed = 1;
nodes = (
(42,461,o),
(61,387,o),
(111,364,c),
(43,339,o),
(11,261,o),
(11,186,cs),
(11,86,o),
(75,-10,o),
(261,-10,cs),
(447,-10,o),
(511,86,o),
(511,186,cs),
(511,261,o),
(479,340,o),
(411,365,c),
(461,388,o),
(479,461,o),
(479,506,cs),
(479,581,o),
(435,676,o),
(261,676,cs),
(87,676,o),
(42,581,o),
(42,506,cs)
);
},
{
closed = 1;
nodes = (
(198,247,o),
(212,301,o),
(261,301,cs),
(310,301,o),
(324,247,o),
(324,202,cs),
(324,157,o),
(306,110,o),
(261,110,cs),
(216,110,o),
(198,157,o),
(198,202,cs)
);
},
{
closed = 1;
nodes = (
(211,516,o),
(221,556,o),
(261,556,cs),
(300,556,o),
(311,516,o),
(311,489,cs),
(311,462,o),
(300,421,o),
(261,421,cs),
(221,421,o),
(211,462,o),
(211,489,cs)
);
}
);
width = 522;
}
);
metricLeft = "=|";
metricRight = "=B";
},
{
glyphname = nine.lf;
kernLeft = KO_nine.lf;
kernRight = KO_nine.lf;
lastChange = "2022-10-19 20:02:02 +0000";
layers = (
{
layerId = m01;
shapes = (
{
closed = 1;
nodes = (
(465,565,o),
(405,678,o),
(255,678,cs),
(105,678,o),
(45,565,o),
(45,471,cs),
(45,377,o),
(105,265,o),
(255,265,cs),
(294,265,o),
(371,276,o),
(408,351,c),
(378,102,o),
(263,46,o),
(132,42,c),
(132,-9,l),
(430,-6,o),
(465,261,o),
(465,420,cs)
);
},
{
closed = 1;
nodes = (
(398,406,o),
(365,320,o),
(255,320,cs),
(145,320,o),
(112,406,o),
(112,471,cs),
(112,536,o),
(145,623,o),
(255,623,cs),
(365,623,o),
(398,536,o),
(398,471,cs)
);
}
);
width = 510;
},
{
layerId = m002;
shapes = (
{
closed = 1;
nodes = (
(515,564,o),
(435,677,o),
(265,677,cs),
(95,677,o),
(15,574,o),
(15,455,cs),
(15,336,o),
(95,234,o),
(245,234,cs),
(305,234,o),
(333,265,o),
(333,265,c),
(313,186,o),
(265,111,o),
(102,111,c),
(102,-10,l),
(480,-7,o),
(515,260,o),
(515,419,cs)
);
},
{
closed = 1;
nodes = (
(333,420,o),
(328,349,o),
(265,349,cs),
(202,349,o),
(197,420,o),
(197,455,c),
(197,490,o),
(202,562,o),
(265,562,cs),
(328,562,o),
(333,490,o),
(333,455,cs)
);
}
);
width = 530;
}
);
metricLeft = "=O";
metricRight = "=O";
},
{
glyphname = zero.osf;
kernLeft = KO_zero.osf;
kernRight = KO_zero.osf;
lastChange = "2022-10-19 19:58:30 +0000";
layers = (
{
layerId = m01;
shapes = (
{
closed = 1;
nodes = (
(42,120,o),
(131,-10,o),
(278,-10,cs),
(425,-10,o),
(509,120,o),
(509,300,cs),
(509,480,o),
(425,610,o),
(278,610,cs),
(131,610,o),
(42,480,o),
(42,300,cs)
);
},
{
closed = 1;
nodes = (
(103,457,o),
(163,555,o),
(278,555,cs),
(393,555,o),
(448,457,o),
(448,300,cs),
(448,142,o),
(393,45,o),
(278,45,cs),
(163,45,o),
(103,142,o),
(103,300,c)
);
}
);
width = 551;
},
{
layerId = m002;
shapes = (
{
closed = 1;
nodes = (
(15,120,o),
(104,-10,o),
(291,-10,cs),
(478,-10,o),
(562,120,o),
(562,300,cs),
(562,480,o),
(478,610,o),
(291,610,cs),
(104,610,o),
(15,480,o),
(15,300,cs)
);
},
{
closed = 1;
nodes = (
(196,427,o),
(216,495,o),
(291,495,cs),
(366,495,o),
(381,427,o),
(381,300,cs),
(381,172,o),
(366,105,o),
(291,105,cs),
(216,105,o),
(196,172,o),
(196,300,c)
);
}
);
width = 577;
}
);
metricLeft = "=o";
metricRight = "=|";
},
{
glyphname = one.osf;
kernLeft = KO_one.osf;
kernRight = KO_one.osf;
lastChange = "2024-12-31 17:36:30 +0000";
layers = (
{
layerId = m01;
shapes = (
{
closed = 1;
nodes = (
(68,0,l),
(412,0,l),
(412,60,l),
(270,60,l),
(270,600,l),
(222,600,l),
(45,517,l),
(64,471,l),
(210,524,l),
(210,60,l),
(68,60,l)
);
}
);
width = 427;
},
{
layerId = m002;
shapes = (
{
closed = 1;
nodes = (
(48,0,l),
(552,0,l),
(552,115,l),
(410,115,l),
(410,600,l),
(242,600,l),
(25,517,l),
(44,411,l),
(230,464,l),
(230,115,l),
(48,115,l)
);
}
);
width = 552;
}
);
userData = {
KernOnName = one.osf;
};
},
{
glyphname = two.osf;
kernLeft = KO_two.osf;
kernRight = KO_two;
lastChange = "2022-10-17 20:42:07 +0000";
layers = (
{
layerId = m01;
shapes = (
{
closed = 1;
nodes = (
(428,0,l),
(428,60,l),
(136,60,l),
(136,60,o),
(408,245,o),
(408,432,c),
(408,546,o),
(331,610,o),
(187,610,c),
(187,550,l),
(293,550,o),
(345,511,o),
(345,432,cs),
(345,265,o),
(35,60,o),
(35,60,cs),
(35,0,l)
);
},
{
closed = 1;
nodes = (
(90,532,o),
(136,550,o),
(187,550,c),
(187,610,l),
(122,610,o),
(65,590,o),
(15,564,c),
(44,512,l)
);
}
);
width = 453;
},
{
layerId = m002;
shapes = (
{
closed = 1;
nodes = (
(507,0,l),
(507,115,l),
(275,115,l),
(275,115,o),
(487,216,o),
(487,394,c),
(487,512,o),
(426,610,o),
(217,610,c),
(197,490,l),
(296,490,o),
(304,425,o),
(304,394,cs),
(304,236,o),
(25,108,o),
(25,108,cs),
(25,0,l)
);
},
{
closed = 1;
nodes = (
(97,479,o),
(148,490,o),
(197,490,c),
(217,610,l),
(125,610,o),
(55,585,o),
(5,564,c),
(34,452,l)
);
}
);
width = 530;
}
);
},
{
glyphname = three.osf;
kernLeft = KO_three.osf;
kernRight = KO_three;
lastChange = "2022-10-26 22:52:56 +0000";
layers = (
{
layerId = m01;
shapes = (
{
closed = 1;
nodes = (
(357,-76,o),
(442,-9,o),
(442,119,c),
(442,197,o),
(392,265,o),
(312,286,c),
(373,312,o),
(412,368,o),
(412,432,cs),
(412,546,o),
(331,610,o),
(187,610,c),
(187,550,l),
(293,550,o),
(345,511,o),
(345,432,cs),
(345,353,o),
(293,314,o),
(187,314,c),
(187,259,l),
(309,259,o),
(370,207,o),
(370,119,cs),
(370,31,o),
(309,-16,o),
(187,-16,c),
(187,-76,l)
);
},
{
closed = 1;
nodes = (
(187,-16,l),
(136,-16,o),
(90,2,o),
(44,22,c),
(15,-30,l),
(65,-56,o),
(122,-76,o),
(187,-76,c)
);
},
{
closed = 1;
nodes = (
(187,259,l),
(187,314,l),
(132,314,l),
(132,259,l)
);
},
{
closed = 1;
nodes = (
(90,532,o),
(136,550,o),
(187,550,c),
(187,610,l),
(122,610,o),
(65,590,o),
(15,564,c),
(44,512,l)
);
}
);
width = 484;
},
{
layerId = m002;
shapes = (
{
closed = 1;
nodes = (
(427,-77,o),
(512,-5,o),
(512,123,cs),
(512,201,o),
(462,265,o),
(382,286,c),
(443,312,o),
(482,367,o),
(482,431,cs),
(482,545,o),
(401,610,o),
(217,610,c),
(217,490,l),
(243,490,o),
(295,485,o),
(295,416,cs),
(295,347,o),
(243,343,o),
(217,343,c),
(217,228,l),
(259,228,o),
(320,211,o),
(320,138,cs),
(320,65,o),
(259,43,o),
(217,43,c),
(217,-77,l)
);
},
{
closed = 1;
nodes = (
(217,43,l),
(148,43,o),
(97,54,o),
(34,81,c),
(5,-31,l),
(55,-52,o),
(125,-77,o),
(217,-77,c)
);
},
{
closed = 1;
nodes = (
(217,228,l),
(217,343,l),
(115,343,l),
(115,228,l)
);
},
{
closed = 1;
nodes = (
(97,479,o),
(148,490,o),
(217,490,c),
(217,610,l),
(125,610,o),
(55,585,o),
(5,564,c),
(34,452,l)
);
}
);
width = 527;
}
);
metricRight = "=o";
},
{
glyphname = four.osf;
kernLeft = KO_four.osf;
kernRight = KO_four.osf;
lastChange = "2024-12-31 17:36:14 +0000";
layers = (
{
layerId = m01;
shapes = (
{
closed = 1;
nodes = (
(5,156,l),
(5,100,l),
(327,100,l),
(327,-67,l),
(387,-67,l),
(387,100,l),
(495,100,l),
(495,160,l),
(387,160,l),
(387,600,l),
(323,600,l)
);
},
{
closed = 1;
nodes = (
(75,160,l),
(327,505,l),
(327,160,l)
);
}
);
width = 510;
},
{
layerId = m002;
shapes = (
{
closed = 1;
nodes = (
(0,156,l),
(0,40,l),
(282,40,l),
(282,-67,l),
(462,-67,l),
(462,40,l),
(570,40,l),
(570,160,l),
(462,160,l),
(462,600,l),
(282,600,l)
);
},
{
closed = 1;
nodes = (
(150,160,l),
(282,368,l),
(282,160,l)
);
}
);
width = 570;
}
);
userData = {
KernOnName = four.osf;
};
},
{
glyphname = five.osf;
kernLeft = KO_five.osf;
kernRight = KO_five.osf;
lastChange = "2022-10-19 19:58:10 +0000";
layers = (
{
layerId = m01;
shapes = (
{
closed = 1;
nodes = (
(224,333,l),
(197,333,o),
(169,331,o),
(142,328,c),
(142,540,l),
(436,540,l),
(436,600,l),
(82,600,l),
(82,263,l),
(82,263,o),
(169,273,o),
(224,273,c)
);
},
{
closed = 1;
nodes = (
(394,-77,o),
(479,-5,o),
(479,123,cs),
(479,251,o),
(394,333,o),
(224,333,c),
(224,273,l),
(346,273,o),
(407,211,o),
(407,123,cs),
(407,35,o),
(346,-17,o),
(224,-17,c),
(224,-77,l)
);
},
{
closed = 1;
nodes = (
(224,-17,l),
(173,-17,o),
(127,1,o),
(81,21,c),
(52,-31,l),
(102,-57,o),
(159,-77,o),
(224,-77,c)
);
}
);
width = 521;
},
{
layerId = m002;
shapes = (
{
closed = 1;
nodes = (
(264,363,l),
(237,363,o),
(222,362,o),
(222,362,c),
(222,460,l),
(476,460,l),
(476,600,l),
(42,600,l),
(42,223,l),
(42,223,o),
(169,243,o),
(224,243,c)
);
},
{
closed = 1;
nodes = (
(434,-77,o),
(519,-5,o),
(519,153,cs),
(519,281,o),
(434,363,o),
(264,363,c),
(224,243,l),
(306,243,o),
(327,211,o),
(327,153,cs),
(327,95,o),
(306,43,o),
(224,43,c),
(224,-77,l)
);
},
{
closed = 1;
nodes = (
(224,43,l),
(173,43,o),
(87,61,o),
(41,81,c),
(12,-31,l),
(62,-57,o),
(159,-77,o),
(224,-77,c)
);
}
);
width = 534;
}
);
metricRight = "=o";
},
{
glyphname = six.osf;
kernLeft = KO_six.osf;
kernRight = KO_six;
lastChange = "2024-12-31 17:36:14 +0000";
layers = (
{
layerId = m01;
shapes = (
{
closed = 1;
nodes = (
(45,103,o),
(105,-10,o),
(255,-10,cs),
(405,-10,o),
(465,103,o),
(465,197,cs),
(465,291,o),
(405,403,o),
(255,403,cs),
(216,403,o),
(139,392,o),
(102,317,c),
(132,566,o),
(247,622,o),
(378,626,c),
(378,677,l),
(80,674,o),
(45,407,o),
(45,248,cs)
);
},
{
closed = 1;
nodes = (
(112,262,o),
(145,348,o),
(255,348,cs),
(365,348,o),
(398,262,o),
(398,197,cs),
(398,132,o),
(365,45,o),
(255,45,cs),
(145,45,o),
(112,132,o),
(112,197,cs)
);
}
);
width = 507;
},
{
layerId = m002;
shapes = (
{
closed = 1;
nodes = (
(15,103,o),
(95,-10,o),
(265,-10,cs),
(435,-10,o),
(515,93,o),
(515,212,cs),
(515,331,o),
(435,433,o),
(285,433,cs),
(225,433,o),
(197,402,o),
(197,402,c),
(217,481,o),
(265,556,o),
(428,556,c),
(428,677,l),
(50,674,o),
(15,407,o),
(15,248,cs)
);
},
{
closed = 1;
nodes = (
(197,247,o),
(202,318,o),
(265,318,cs),
(328,318,o),
(333,247,o),
(333,212,c),
(333,177,o),
(328,105,o),
(265,105,cs),
(202,105,o),
(197,177,o),
(197,212,cs)
);
}
);
width = 530;
}
);
metricRight = "=o";
userData = {
KernOnName = six.osf;
};
},
{
glyphname = seven.osf;
kernLeft = KO_seven.osf;
kernRight = KO_seven.osf;
lastChange = "2022-10-18 11:48:55 +0000";
layers = (
{
layerId = m01;
shapes = (
{
closed = 1;
nodes = (
(156,200,o),
(413,540,o),
(413,540,c),
(413,600,l),
(0,600,l),
(0,540,l),
(349,540,l),
(349,540,o),
(91,200,o),
(91,-67,c),
(156,-67,l)
);
}
);
width = 458;
},
{
layerId = m002;
shapes = (
{
closed = 1;
nodes = (
(251,200,o),
(511,464,o),
(508,460,c),
(508,600,l),
(15,600,l),
(15,460,l),
(324,460,l),
(324,460,o),
(66,200,o),
(66,-67,c),
(251,-67,l)
);
}
);
width = 523;
}
);
},
{
glyphname = eight.osf;
kernLeft = KO_eight;
kernRight = KO_eight;
lastChange = "2022-10-23 21:52:33 +0000";
layers = (
{
layerId = m01;
shapes = (
{
closed = 1;
nodes = (
(52,461,o),
(71,387,o),
(141,364,c),
(53,339,o),
(21,261,o),
(21,186,cs),
(21,86,o),
(85,-10,o),
(231,-10,cs),
(377,-10,o),
(441,86,o),
(441,186,cs),
(441,261,o),
(409,340,o),
(321,365,c),
(391,388,o),
(409,461,o),
(409,506,cs),
(409,581,o),
(365,676,o),
(231,676,cs),
(97,676,o),
(52,581,o),
(52,506,cs)
);
},
{
closed = 1;
nodes = (
(88,261,o),
(132,334,o),
(231,334,cs),
(330,334,o),
(374,261,o),
(374,186,cs),
(374,111,o),
(336,45,o),
(231,45,cs),
(126,45,o),
(88,111,o),
(88,186,cs)
);
},
{
closed = 1;
nodes = (
(111,563,o),
(139,622,o),
(231,622,cs),
(323,622,o),
(350,563,o),
(350,506,cs),
(350,449,o),
(319,389,o),
(231,389,cs),
(142,389,o),
(111,449,o),
(111,506,cs)
);
}
);
width = 462;
},
{
layerId = m002;
shapes = (
{
closed = 1;
nodes = (
(42,461,o),
(61,387,o),
(111,364,c),
(43,339,o),
(11,261,o),
(11,186,cs),
(11,86,o),
(75,-10,o),
(261,-10,cs),
(447,-10,o),
(511,86,o),
(511,186,cs),
(511,261,o),
(479,340,o),
(411,365,c),
(461,388,o),
(479,461,o),
(479,506,cs),
(479,581,o),
(435,676,o),
(261,676,cs),
(87,676,o),
(42,581,o),
(42,506,cs)
);
},
{
closed = 1;
nodes = (
(198,247,o),
(212,301,o),
(261,301,cs),
(310,301,o),
(324,247,o),
(324,202,cs),
(324,157,o),
(306,110,o),
(261,110,cs),
(216,110,o),
(198,157,o),
(198,202,cs)
);
},
{
closed = 1;
nodes = (
(211,516,o),
(221,556,o),
(261,556,cs),
(300,556,o),
(311,516,o),
(311,489,cs),
(311,462,o),
(300,421,o),
(261,421,cs),
(221,421,o),
(211,462,o),
(211,489,cs)
);
}
);
width = 522;
}
);
metricLeft = "=|";
metricRight = "=B";
},
{
glyphname = nine.osf;
kernLeft = KO_nine.osf;
kernRight = KO_zero;
lastChange = "2022-10-19 19:58:10 +0000";
layers = (
{
layerId = m01;
shapes = (
{
closed = 1;
nodes = (
(462,497,o),
(402,610,o),
(252,610,cs),
(102,610,o),
(42,497,o),
(42,403,cs),
(42,309,o),
(102,197,o),
(252,197,cs),
(291,197,o),
(368,208,o),
(405,283,c),
(375,34,o),
(260,-22,o),
(129,-26,c),
(129,-77,l),
(427,-74,o),
(462,193,o),
(462,352,cs)
);
},
{
closed = 1;
nodes = (
(395,338,o),
(362,252,o),
(252,252,cs),
(142,252,o),
(109,338,o),
(109,403,cs),
(109,468,o),
(142,555,o),
(252,555,cs),
(362,555,o),
(395,468,o),
(395,403,cs)
);
}
);
width = 504;
},
{
layerId = m002;
shapes = (
{
closed = 1;
nodes = (
(515,497,o),
(435,610,o),
(265,610,cs),
(95,610,o),
(15,507,o),
(15,388,cs),
(15,269,o),
(95,167,o),
(245,167,cs),
(305,167,o),
(333,198,o),
(333,198,c),
(313,119,o),
(265,44,o),
(102,44,c),
(102,-77,l),
(480,-74,o),
(515,193,o),
(515,352,cs)
);
},
{
closed = 1;
nodes = (
(333,353,o),
(328,282,o),
(265,282,cs),
(202,282,o),
(197,353,o),
(197,388,c),
(197,423,o),
(202,495,o),
(265,495,cs),
(328,495,o),
(333,423,o),
(333,388,cs)
);
}
);
width = 530;
}
);
metricLeft = "=o";
metricRight = "=o";
},
{
glyphname = zero.tf;
lastChange = "2024-12-31 17:20:32 +0000";
layers = (
{
layerId = m01;
shapes = (
{
closed = 1;
nodes = (
(42,135,o),
(140,-10,o),
(303,-10,cs),
(467,-10,o),
(559,135,o),
(559,334,cs),
(559,532,o),
(467,677,o),
(303,677,cs),
(140,677,o),
(42,532,o),
(42,334,cs)
);
},
{
closed = 1;
nodes = (
(114,507,o),
(175,617,o),
(303,617,cs),
(431,617,o),
(487,507,o),
(487,334,cs),
(487,159,o),
(431,50,o),
(303,50,cs),
(175,50,o),
(114,159,o),
(114,334,cs)
);
}
);
width = 600;
},
{
layerId = m002;
shapes = (
{
closed = 1;
nodes = (
(2,135,o),
(100,-10,o),
(303,-10,cs),
(507,-10,o),
(599,135,o),
(599,334,cs),
(599,532,o),
(507,677,o),
(303,677,cs),
(100,677,o),
(2,532,o),
(2,334,cs)
);
},
{
closed = 1;
nodes = (
(194,477,o),
(215,557,o),
(303,557,cs),
(391,557,o),
(407,477,o),
(407,334,cs),
(407,189,o),
(391,110,o),
(303,110,cs),
(215,110,o),
(194,189,o),
(194,334,cs)
);
}
);
width = 600;
}
);
userData = {
KernOnSpecialSpacing = {
L = NoKerning;
R = NoKerning;
};
};
},
{
glyphname = one.tf;
lastChange = "2024-12-31 17:20:32 +0000";
layers = (
{
layerId = m01;
shapes = (
{
closed = 1;
nodes = (
(140,0,l),
(484,0,l),
(484,60,l),
(342,60,l),
(342,667,l),
(294,667,l),
(117,584,l),
(136,538,l),
(282,591,l),
(282,60,l),
(140,60,l)
);
}
);
width = 600;
},
{
layerId = m002;
shapes = (
{
closed = 1;
nodes = (
(60,0,l),
(564,0,l),
(564,115,l),
(422,115,l),
(422,667,l),
(254,667,l),
(37,584,l),
(56,478,l),
(242,531,l),
(242,115,l),
(60,115,l)
);
}
);
width = 600;
}
);
userData = {
KernOnSpecialSpacing = {
L = NoKerning;
R = NoKerning;
};
};
},
{
glyphname = two.tf;
lastChange = "2024-12-31 17:20:32 +0000";
layers = (
{
layerId = m01;
shapes = (
{
closed = 1;
nodes = (
(497,0,l),
(497,60,l),
(190,60,l),
(190,60,o),
(497,313,o),
(497,500,c),
(434,500,l),
(434,333,o),
(104,60,o),
(104,60,c),
(104,0,l)
);
},
{
closed = 1;
nodes = (
(179,598,o),
(225,616,o),
(276,616,c),
(276,676,l),
(211,676,o),
(154,656,o),
(104,630,c),
(133,578,l)
);
},
{
closed = 1;
nodes = (
(497,500,l),
(497,599,o),
(411,676,o),
(276,676,c),
(276,616,l),
(379,616,o),
(434,565,o),
(434,500,c)
);
}
);
width = 600;
},
{
layerId = m002;
shapes = (
{
closed = 1;
nodes = (
(531,0,l),
(531,115,l),
(275,115,l),
(275,115,o),
(531,316,o),
(531,480,c),
(358,480,l),
(358,336,o),
(69,115,o),
(69,115,c),
(69,0,l)
);
},
{
closed = 1;
nodes = (
(161,545,o),
(212,556,o),
(261,556,c),
(281,676,l),
(189,676,o),
(119,651,o),
(69,630,c),
(98,518,l)
);
},
{
closed = 1;
nodes = (
(531,480,l),
(531,598,o),
(431,676,o),
(281,676,c),
(261,556,l),
(329,556,o),
(358,531,o),
(358,480,c)
);
}
);
width = 600;
}
);
userData = {
KernOnSpecialSpacing = {
L = NoKerning;
R = NoKerning;
};
};
},
{
glyphname = three.tf;
lastChange = "2024-12-31 17:20:32 +0000";
layers = (
{
layerId = m01;
shapes = (
{
closed = 1;
nodes = (
(429,-10,o),
(514,57,o),
(514,185,c),
(514,263,o),
(464,331,o),
(384,352,c),
(445,378,o),
(484,434,o),
(484,498,cs),
(484,612,o),
(403,676,o),
(259,676,c),
(259,616,l),
(365,616,o),
(417,577,o),
(417,498,cs),
(417,419,o),
(365,380,o),
(259,380,c),
(259,325,l),
(381,325,o),
(442,273,o),
(442,185,cs),
(442,97,o),
(381,50,o),
(259,50,c),
(259,-10,l)
);
},
{
closed = 1;
nodes = (
(259,50,l),
(208,50,o),
(162,68,o),
(116,88,c),
(87,36,l),
(137,10,o),
(194,-10,o),
(259,-10,c)
);
},
{
closed = 1;
nodes = (
(259,325,l),
(259,380,l),
(204,380,l),
(204,325,l)
);
},
{
closed = 1;
nodes = (
(162,598,o),
(208,616,o),
(259,616,c),
(259,676,l),
(194,676,o),
(137,656,o),
(87,630,c),
(116,578,l)
);
}
);
width = 600;
},
{
layerId = m002;
shapes = (
{
closed = 1;
nodes = (
(469,-10,o),
(554,62,o),
(554,190,cs),
(554,268,o),
(504,332,o),
(424,353,c),
(485,379,o),
(524,434,o),
(524,498,cs),
(524,612,o),
(443,677,o),
(259,677,c),
(259,556,l),
(285,556,o),
(337,552,o),
(337,483,cs),
(337,414,o),
(285,410,o),
(259,410,c),
(259,295,l),
(301,295,o),
(362,278,o),
(362,205,cs),
(362,132,o),
(301,110,o),
(259,110,c),
(259,-10,l)
);
},
{
closed = 1;
nodes = (
(259,110,l),
(190,110,o),
(139,121,o),
(76,148,c),
(47,36,l),
(97,15,o),
(167,-10,o),
(259,-10,c)
);
},
{
closed = 1;
nodes = (
(259,295,l),
(259,410,l),
(157,410,l),
(157,295,l)
);
},
{
closed = 1;
nodes = (
(139,546,o),
(190,557,o),
(259,557,c),
(259,677,l),
(167,677,o),
(97,652,o),
(47,631,c),
(76,519,l)
);
}
);
width = 600;
}
);
userData = {
KernOnSpecialSpacing = {
L = NoKerning;
R = NoKerning;
};
};
},
{
glyphname = four.tf;
lastChange = "2024-12-31 17:20:32 +0000";
layers = (
{
layerId = m01;
shapes = (
{
closed = 1;
nodes = (
(55,223,l),
(55,167,l),
(377,167,l),
(377,0,l),
(437,0,l),
(437,167,l),
(545,167,l),
(545,227,l),
(437,227,l),
(437,667,l),
(373,667,l)
);
},
{
closed = 1;
nodes = (
(125,227,l),
(377,572,l),
(377,227,l)
);
}
);
width = 600;
},
{
layerId = m002;
shapes = (
{
closed = 1;
nodes = (
(15,223,l),
(15,107,l),
(297,107,l),
(297,0,l),
(477,0,l),
(477,107,l),
(585,107,l),
(585,227,l),
(477,227,l),
(477,667,l),
(297,667,l)
);
},
{
closed = 1;
nodes = (
(165,227,l),
(297,435,l),
(297,227,l)
);
}
);
width = 600;
}
);
userData = {
KernOnSpecialSpacing = {
L = NoKerning;
R = NoKerning;
};
};
},
{
glyphname = five.tf;
lastChange = "2024-12-31 17:20:32 +0000";
layers = (
{
layerId = m01;
shapes = (
{
closed = 1;
nodes = (
(259,400,l),
(232,400,o),
(204,398,o),
(177,395,c),
(177,607,l),
(471,607,l),
(471,667,l),
(117,667,l),
(117,330,l),
(117,330,o),
(204,340,o),
(259,340,c)
);
},
{
closed = 1;
nodes = (
(429,-10,o),
(514,62,o),
(514,190,cs),
(514,318,o),
(429,400,o),
(259,400,c),
(259,340,l),
(381,340,o),
(442,278,o),
(442,190,cs),
(442,102,o),
(381,50,o),
(259,50,c),
(259,-10,l)
);
},
{
closed = 1;
nodes = (
(259,50,l),
(208,50,o),
(162,68,o),
(116,88,c),
(87,36,l),
(137,10,o),
(194,-10,o),
(259,-10,c)
);
}
);
width = 600;
},
{
layerId = m002;
shapes = (
{
closed = 1;
nodes = (
(299,430,l),
(272,430,o),
(257,429,o),
(257,429,c),
(257,527,l),
(511,527,l),
(511,667,l),
(77,667,l),
(77,290,l),
(77,290,o),
(204,310,o),
(259,310,c)
);
},
{
closed = 1;
nodes = (
(469,-10,o),
(554,62,o),
(554,220,cs),
(554,348,o),
(469,430,o),
(299,430,c),
(259,310,l),
(341,310,o),
(362,278,o),
(362,220,cs),
(362,162,o),
(341,110,o),
(259,110,c),
(259,-10,l)
);
},
{
closed = 1;
nodes = (
(259,110,l),
(208,110,o),
(122,128,o),
(76,148,c),
(47,36,l),
(97,10,o),
(194,-10,o),
(259,-10,c)
);
}
);
width = 600;
}
);
userData = {
KernOnSpecialSpacing = {
L = NoKerning;
R = NoKerning;
};
};
},
{
glyphname = six.tf;
lastChange = "2024-12-31 17:20:32 +0000";
layers = (
{
layerId = m01;
shapes = (
{
closed = 1;
nodes = (
(90,103,o),
(150,-10,o),
(300,-10,cs),
(450,-10,o),
(510,103,o),
(510,197,cs),
(510,291,o),
(450,403,o),
(300,403,cs),
(261,403,o),
(184,392,o),
(147,317,c),
(177,566,o),
(292,622,o),
(423,626,c),
(423,677,l),
(125,674,o),
(90,407,o),
(90,248,cs)
);
},
{
closed = 1;
nodes = (
(157,262,o),
(190,348,o),
(300,348,cs),
(410,348,o),
(443,262,o),
(443,197,cs),
(443,132,o),
(410,45,o),
(300,45,cs),
(190,45,o),
(157,132,o),
(157,197,cs)
);
}
);
width = 600;
},
{
layerId = m002;
shapes = (
{
closed = 1;
nodes = (
(50,103,o),
(130,-10,o),
(300,-10,cs),
(470,-10,o),
(550,93,o),
(550,212,cs),
(550,331,o),
(470,433,o),
(320,433,cs),
(260,433,o),
(232,402,o),
(232,402,c),
(252,481,o),
(300,556,o),
(463,556,c),
(463,677,l),
(85,674,o),
(50,407,o),
(50,248,cs)
);
},
{
closed = 1;
nodes = (
(232,247,o),
(237,318,o),
(300,318,cs),
(363,318,o),
(368,247,o),
(368,212,c),
(368,177,o),
(363,105,o),
(300,105,cs),
(237,105,o),
(232,177,o),
(232,212,cs)
);
}
);
width = 600;
}
);
userData = {
KernOnSpecialSpacing = {
L = NoKerning;
R = NoKerning;
};
};
},
{
glyphname = seven.tf;
lastChange = "2024-12-31 17:20:32 +0000";
layers = (
{
layerId = m01;
shapes = (
{
closed = 1;
nodes = (
(250,267,o),
(507,607,o),
(507,607,c),
(507,667,l),
(94,667,l),
(94,607,l),
(443,607,l),
(443,607,o),
(185,267,o),
(185,0,c),
(250,0,l)
);
}
);
width = 600;
},
{
layerId = m002;
shapes = (
{
closed = 1;
nodes = (
(290,267,o),
(547,527,o),
(547,527,cs),
(547,667,l),
(54,667,l),
(54,527,l),
(363,527,l),
(363,527,o),
(105,267,o),
(105,0,c),
(290,0,l)
);
}
);
width = 600;
}
);
userData = {
KernOnSpecialSpacing = {
L = NoKerning;
R = NoKerning;
};
};
},
{
glyphname = eight.tf;
lastChange = "2024-12-31 17:20:32 +0000";
layers = (
{
layerId = m01;
shapes = (
{
closed = 1;
nodes = (
(121,461,o),
(140,387,o),
(210,364,c),
(122,339,o),
(90,261,o),
(90,186,cs),
(90,86,o),
(154,-10,o),
(300,-10,cs),
(446,-10,o),
(510,86,o),
(510,186,cs),
(510,261,o),
(478,340,o),
(390,365,c),
(460,388,o),
(478,461,o),
(478,506,cs),
(478,581,o),
(434,676,o),
(300,676,c),
(166,676,o),
(121,581,o),
(121,506,cs)
);
},
{
closed = 1;
nodes = (
(157,261,o),
(201,334,o),
(300,334,cs),
(399,334,o),
(443,261,o),
(443,186,cs),
(443,111,o),
(405,45,o),
(300,45,cs),
(195,45,o),
(157,111,o),
(157,186,cs)
);
},
{
closed = 1;
nodes = (
(180,563,o),
(208,622,o),
(300,622,cs),
(392,622,o),
(419,563,o),
(419,506,cs),
(419,449,o),
(388,389,o),
(300,389,cs),
(211,389,o),
(180,449,o),
(180,506,cs)
);
}
);
width = 600;
},
{
layerId = m002;
shapes = (
{
closed = 1;
nodes = (
(81,461,o),
(100,387,o),
(150,364,c),
(82,339,o),
(50,261,o),
(50,186,cs),
(50,86,o),
(114,-10,o),
(300,-10,cs),
(486,-10,o),
(550,86,o),
(550,186,cs),
(550,261,o),
(518,340,o),
(450,365,c),
(500,388,o),
(518,461,o),
(518,506,cs),
(518,581,o),
(474,676,o),
(300,676,cs),
(126,676,o),
(81,581,o),
(81,506,cs)
);
},
{
closed = 1;
nodes = (
(237,247,o),
(251,301,o),
(300,301,cs),
(349,301,o),
(363,247,o),
(363,202,cs),
(363,157,o),
(345,110,o),
(300,110,cs),
(255,110,o),
(237,157,o),
(237,202,cs)
);
},
{
closed = 1;
nodes = (
(250,516,o),
(260,556,o),
(300,556,cs),
(339,556,o),
(350,516,o),
(350,489,cs),
(350,462,o),
(339,421,o),
(300,421,cs),
(260,421,o),
(250,462,o),
(250,489,cs)
);
}
);
width = 600;
}
);
userData = {
KernOnSpecialSpacing = {
L = NoKerning;
R = NoKerning;
};
};
},
{
glyphname = nine.tf;
lastChange = "2024-12-31 17:20:32 +0000";
layers = (
{
layerId = m01;
shapes = (
{
closed = 1;
nodes = (
(510,565,o),
(450,678,o),
(300,678,cs),
(150,678,o),
(90,565,o),
(90,471,cs),
(90,377,o),
(150,265,o),
(300,265,cs),
(339,265,o),
(416,276,o),
(453,351,c),
(423,102,o),
(308,46,o),
(177,42,c),
(177,-9,l),
(475,-6,o),
(510,261,o),
(510,420,cs)
);
},
{
closed = 1;
nodes = (
(443,406,o),
(410,320,o),
(300,320,cs),
(190,320,o),
(157,406,o),
(157,471,cs),
(157,536,o),
(190,623,o),
(300,623,cs),
(410,623,o),
(443,536,o),
(443,471,cs)
);
}
);
width = 600;
},
{
layerId = m002;
shapes = (
{
closed = 1;
nodes = (
(550,564,o),
(470,677,o),
(300,677,cs),
(130,677,o),
(50,574,o),
(50,455,cs),
(50,336,o),
(130,234,o),
(280,234,cs),
(340,234,o),
(368,265,o),
(368,265,c),
(348,186,o),
(300,111,o),
(137,111,c),
(137,-10,l),
(515,-7,o),
(550,260,o),
(550,419,cs)
);
},
{
closed = 1;
nodes = (
(368,420,o),
(363,349,o),
(300,349,cs),
(237,349,o),
(232,420,o),
(232,455,c),
(232,490,o),
(237,562,o),
(300,562,cs),
(363,562,o),
(368,490,o),
(368,455,cs)
);
}
);
width = 600;
}
);
userData = {
KernOnSpecialSpacing = {
L = NoKerning;
R = NoKerning;
};
};
},
{
glyphname = zero.tosf;
lastChange = "2024-12-31 17:20:32 +0000";
layers = (
{
layerId = m01;
shapes = (
{
closed = 1;
nodes = (
(67,120,o),
(156,-10,o),
(303,-10,cs),
(450,-10,o),
(534,120,o),
(534,300,cs),
(534,480,o),
(450,610,o),
(303,610,cs),
(156,610,o),
(67,480,o),
(67,300,cs)
);
},
{
closed = 1;
nodes = (
(128,457,o),
(188,555,o),
(303,555,cs),
(418,555,o),
(473,457,o),
(473,300,cs),
(473,142,o),
(418,45,o),
(303,45,cs),
(188,45,o),
(128,142,o),
(128,300,c)
);
}
);
width = 600;
},
{
layerId = m002;
shapes = (
{
closed = 1;
nodes = (
(27,120,o),
(116,-10,o),
(303,-10,cs),
(490,-10,o),
(574,120,o),
(574,300,cs),
(574,480,o),
(490,610,o),
(303,610,cs),
(116,610,o),
(27,480,o),
(27,300,cs)
);
},
{
closed = 1;
nodes = (
(208,427,o),
(228,495,o),
(303,495,cs),
(378,495,o),
(393,427,o),
(393,300,cs),
(393,172,o),
(378,105,o),
(303,105,cs),
(228,105,o),
(208,172,o),
(208,300,c)
);
}
);
width = 600;
}
);
userData = {
KernOnSpecialSpacing = {
L = NoKerning;
R = NoKerning;
};
};
},
{
glyphname = one.tosf;
lastChange = "2024-12-31 17:20:32 +0000";
layers = (
{
layerId = m01;
shapes = (
{
closed = 1;
nodes = (
(140,0,l),
(484,0,l),
(484,60,l),
(342,60,l),
(342,600,l),
(294,600,l),
(117,517,l),
(136,471,l),
(282,524,l),
(282,60,l),
(140,60,l)
);
}
);
width = 600;
},
{
layerId = m002;
shapes = (
{
closed = 1;
nodes = (
(60,0,l),
(564,0,l),
(564,115,l),
(422,115,l),
(422,600,l),
(254,600,l),
(37,517,l),
(56,411,l),
(242,464,l),
(242,115,l),
(60,115,l)
);
}
);
width = 600;
}
);
userData = {
KernOnSpecialSpacing = {
L = NoKerning;
R = NoKerning;
};
};
},
{
glyphname = two.tosf;
lastChange = "2024-12-31 17:20:32 +0000";
layers = (
{
layerId = m01;
shapes = (
{
closed = 1;
nodes = (
(507,0,l),
(507,60,l),
(215,60,l),
(215,60,o),
(487,245,o),
(487,432,c),
(487,546,o),
(410,610,o),
(266,610,c),
(266,550,l),
(372,550,o),
(424,511,o),
(424,432,cs),
(424,265,o),
(114,60,o),
(114,60,cs),
(114,0,l)
);
},
{
closed = 1;
nodes = (
(169,532,o),
(215,550,o),
(266,550,c),
(266,610,l),
(201,610,o),
(144,590,o),
(94,564,c),
(123,512,l)
);
}
);
width = 600;
},
{
layerId = m002;
shapes = (
{
closed = 1;
nodes = (
(551,0,l),
(551,115,l),
(319,115,l),
(319,115,o),
(531,216,o),
(531,394,c),
(531,512,o),
(470,610,o),
(261,610,c),
(241,490,l),
(340,490,o),
(348,425,o),
(348,394,cs),
(348,236,o),
(69,108,o),
(69,108,cs),
(69,0,l)
);
},
{
closed = 1;
nodes = (
(141,479,o),
(192,490,o),
(241,490,c),
(261,610,l),
(169,610,o),
(99,585,o),
(49,564,c),
(78,452,l)
);
}
);
width = 600;
}
);
userData = {
KernOnSpecialSpacing = {
L = NoKerning;
R = NoKerning;
};
};
},
{
glyphname = three.tosf;
lastChange = "2024-12-31 17:20:32 +0000";
layers = (
{
layerId = m01;
shapes = (
{
closed = 1;
nodes = (
(428,-76,o),
(513,-9,o),
(513,119,c),
(513,197,o),
(463,265,o),
(383,286,c),
(444,312,o),
(483,368,o),
(483,432,cs),
(483,546,o),
(402,610,o),
(258,610,c),
(258,550,l),
(364,550,o),
(416,511,o),
(416,432,cs),
(416,353,o),
(364,314,o),
(258,314,c),
(258,259,l),
(380,259,o),
(441,207,o),
(441,119,cs),
(441,31,o),
(380,-16,o),
(258,-16,c),
(258,-76,l)
);
},
{
closed = 1;
nodes = (
(258,-16,l),
(207,-16,o),
(161,2,o),
(115,22,c),
(86,-30,l),
(136,-56,o),
(193,-76,o),
(258,-76,c)
);
},
{
closed = 1;
nodes = (
(258,259,l),
(258,314,l),
(203,314,l),
(203,259,l)
);
},
{
closed = 1;
nodes = (
(161,532,o),
(207,550,o),
(258,550,c),
(258,610,l),
(193,610,o),
(136,590,o),
(86,564,c),
(115,512,l)
);
}
);
width = 600;
},
{
layerId = m002;
shapes = (
{
closed = 1;
nodes = (
(468,-77,o),
(553,-5,o),
(553,123,cs),
(553,201,o),
(503,265,o),
(423,286,c),
(484,312,o),
(523,367,o),
(523,431,cs),
(523,545,o),
(442,610,o),
(258,610,c),
(258,489,l),
(284,489,o),
(336,485,o),
(336,416,cs),
(336,347,o),
(284,343,o),
(258,343,c),
(258,228,l),
(300,228,o),
(361,211,o),
(361,138,cs),
(361,65,o),
(300,43,o),
(258,43,c),
(258,-77,l)
);
},
{
closed = 1;
nodes = (
(258,43,l),
(189,43,o),
(138,54,o),
(75,81,c),
(46,-31,l),
(96,-52,o),
(166,-77,o),
(258,-77,c)
);
},
{
closed = 1;
nodes = (
(258,228,l),
(258,343,l),
(156,343,l),
(156,228,l)
);
},
{
closed = 1;
nodes = (
(138,479,o),
(189,490,o),
(258,490,c),
(258,610,l),
(166,610,o),
(96,585,o),
(46,564,c),
(75,452,l)
);
}
);
width = 600;
}
);
userData = {
KernOnSpecialSpacing = {
L = NoKerning;
R = NoKerning;
};
};
},
{
glyphname = four.tosf;
lastChange = "2024-12-31 17:20:32 +0000";
layers = (
{
layerId = m01;
shapes = (
{
closed = 1;
nodes = (
(55,156,l),
(55,100,l),
(377,100,l),
(377,-67,l),
(437,-67,l),
(437,100,l),
(545,100,l),
(545,160,l),
(437,160,l),
(437,600,l),
(373,600,l)
);
},
{
closed = 1;
nodes = (
(125,160,l),
(377,505,l),
(377,160,l)
);
}
);
width = 600;
},
{
layerId = m002;
shapes = (
{
closed = 1;
nodes = (
(15,156,l),
(15,40,l),
(297,40,l),
(297,-67,l),
(477,-67,l),
(477,40,l),
(585,40,l),
(585,160,l),
(477,160,l),
(477,600,l),
(297,600,l)
);
},
{
closed = 1;
nodes = (
(165,160,l),
(297,368,l),
(297,160,l)
);
}
);
width = 600;
}
);
userData = {
KernOnSpecialSpacing = {
L = NoKerning;
R = NoKerning;
};
};
},
{
glyphname = five.tosf;
lastChange = "2024-12-31 17:20:32 +0000";
layers = (
{
layerId = m01;
shapes = (
{
closed = 1;
nodes = (
(259,333,l),
(232,333,o),
(204,331,o),
(177,328,c),
(177,540,l),
(471,540,l),
(471,600,l),
(117,600,l),
(117,263,l),
(117,263,o),
(204,273,o),
(259,273,c)
);
},
{
closed = 1;
nodes = (
(429,-77,o),
(514,-5,o),
(514,123,cs),
(514,251,o),
(429,333,o),
(259,333,c),
(259,273,l),
(381,273,o),
(442,211,o),
(442,123,cs),
(442,35,o),
(381,-17,o),
(259,-17,c),
(259,-77,l)
);
},
{
closed = 1;
nodes = (
(259,-17,l),
(208,-17,o),
(162,1,o),
(116,21,c),
(87,-31,l),
(137,-57,o),
(194,-77,o),
(259,-77,c)
);
}
);
width = 600;
},
{
layerId = m002;
shapes = (
{
closed = 1;
nodes = (
(299,363,l),
(272,363,o),
(257,362,o),
(257,362,c),
(257,460,l),
(511,460,l),
(511,600,l),
(77,600,l),
(77,223,l),
(77,223,o),
(204,243,o),
(259,243,c)
);
},
{
closed = 1;
nodes = (
(469,-77,o),
(554,-5,o),
(554,153,cs),
(554,281,o),
(469,363,o),
(299,363,c),
(259,243,l),
(341,243,o),
(362,211,o),
(362,153,cs),
(362,95,o),
(341,43,o),
(259,43,c),
(259,-77,l)
);
},
{
closed = 1;
nodes = (
(259,43,l),
(208,43,o),
(122,61,o),
(76,81,c),
(47,-31,l),
(97,-57,o),
(194,-77,o),
(259,-77,c)
);
}
);
width = 600;
}
);
userData = {
KernOnSpecialSpacing = {
L = NoKerning;
R = NoKerning;
};
};
},
{
glyphname = six.tosf;
lastChange = "2024-12-31 17:20:32 +0000";
layers = (
{
layerId = m01;
shapes = (
{
closed = 1;
nodes = (
(90,103,o),
(150,-10,o),
(300,-10,cs),
(450,-10,o),
(510,103,o),
(510,197,cs),
(510,291,o),
(450,403,o),
(300,403,cs),
(261,403,o),
(184,392,o),
(147,317,c),
(177,566,o),
(292,622,o),
(423,626,c),
(423,677,l),
(125,674,o),
(90,407,o),
(90,248,cs)
);
},
{
closed = 1;
nodes = (
(157,262,o),
(190,348,o),
(300,348,cs),
(410,348,o),
(443,262,o),
(443,197,cs),
(443,132,o),
(410,45,o),
(300,45,cs),
(190,45,o),
(157,132,o),
(157,197,cs)
);
}
);
width = 600;
},
{
layerId = m002;
shapes = (
{
closed = 1;
nodes = (
(50,103,o),
(130,-10,o),
(300,-10,cs),
(470,-10,o),
(550,93,o),
(550,212,cs),
(550,331,o),
(470,433,o),
(320,433,cs),
(260,433,o),
(232,402,o),
(232,402,c),
(252,481,o),
(300,556,o),
(463,556,c),
(463,677,l),
(85,674,o),
(50,407,o),
(50,248,cs)
);
},
{
closed = 1;
nodes = (
(232,247,o),
(237,318,o),
(300,318,cs),
(363,318,o),
(368,247,o),
(368,212,c),
(368,177,o),
(363,105,o),
(300,105,cs),
(237,105,o),
(232,177,o),
(232,212,cs)
);
}
);
width = 600;
}
);
userData = {
KernOnSpecialSpacing = {
L = NoKerning;
R = NoKerning;
};
};
},
{
glyphname = seven.tosf;
lastChange = "2024-12-31 17:20:32 +0000";
layers = (
{
layerId = m01;
shapes = (
{
closed = 1;
nodes = (
(250,200,o),
(507,540,o),
(507,540,c),
(507,600,l),
(94,600,l),
(94,540,l),
(443,540,l),
(443,540,o),
(185,200,o),
(185,-67,c),
(250,-67,l)
);
}
);
width = 600;
},
{
layerId = m002;
shapes = (
{
closed = 1;
nodes = (
(288,200,o),
(548,464,o),
(545,460,c),
(545,600,l),
(52,600,l),
(52,460,l),
(361,460,l),
(361,460,o),
(103,200,o),
(103,-67,c),
(288,-67,l)
);
}
);
width = 600;
}
);
userData = {
KernOnSpecialSpacing = {
L = NoKerning;
R = NoKerning;
};
};
},
{
glyphname = eight.tosf;
lastChange = "2024-12-31 17:20:32 +0000";
layers = (
{
layerId = m01;
shapes = (
{
closed = 1;
nodes = (
(121,461,o),
(140,387,o),
(210,364,c),
(122,339,o),
(90,261,o),
(90,186,cs),
(90,86,o),
(154,-10,o),
(300,-10,cs),
(446,-10,o),
(510,86,o),
(510,186,cs),
(510,261,o),
(478,340,o),
(390,365,c),
(460,388,o),
(478,461,o),
(478,506,cs),
(478,581,o),
(434,676,o),
(300,676,cs),
(166,676,o),
(121,581,o),
(121,506,cs)
);
},
{
closed = 1;
nodes = (
(157,261,o),
(201,334,o),
(300,334,cs),
(399,334,o),
(443,261,o),
(443,186,cs),
(443,111,o),
(405,45,o),
(300,45,cs),
(195,45,o),
(157,111,o),
(157,186,cs)
);
},
{
closed = 1;
nodes = (
(180,563,o),
(208,622,o),
(300,622,cs),
(392,622,o),
(419,563,o),
(419,506,cs),
(419,449,o),
(388,389,o),
(300,389,cs),
(211,389,o),
(180,449,o),
(180,506,cs)
);
}
);
width = 600;
},
{
layerId = m002;
shapes = (
{
closed = 1;
nodes = (
(81,461,o),
(100,387,o),
(150,364,c),
(82,339,o),
(50,261,o),
(50,186,cs),
(50,86,o),
(114,-10,o),
(300,-10,cs),
(486,-10,o),
(550,86,o),
(550,186,cs),
(550,261,o),
(518,340,o),
(450,365,c),
(500,388,o),
(518,461,o),
(518,506,cs),
(518,581,o),
(474,676,o),
(300,676,cs),
(126,676,o),
(81,581,o),
(81,506,cs)
);
},
{
closed = 1;
nodes = (
(237,247,o),
(251,301,o),
(300,301,cs),
(349,301,o),
(363,247,o),
(363,202,cs),
(363,157,o),
(345,110,o),
(300,110,cs),
(255,110,o),
(237,157,o),
(237,202,cs)
);
},
{
closed = 1;
nodes = (
(250,516,o),
(260,556,o),
(300,556,cs),
(339,556,o),
(350,516,o),
(350,489,cs),
(350,462,o),
(339,421,o),
(300,421,cs),
(260,421,o),
(250,462,o),
(250,489,cs)
);
}
);
width = 600;
}
);
userData = {
KernOnSpecialSpacing = {
L = NoKerning;
R = NoKerning;
};
};
},
{
glyphname = nine.tosf;
lastChange = "2024-12-31 17:20:32 +0000";
layers = (
{
layerId = m01;
shapes = (
{
closed = 1;
nodes = (
(510,497,o),
(450,610,o),
(300,610,cs),
(150,610,o),
(90,497,o),
(90,403,cs),
(90,309,o),
(150,197,o),
(300,197,cs),
(339,197,o),
(416,208,o),
(453,283,c),
(423,34,o),
(308,-22,o),
(177,-26,c),
(177,-77,l),
(475,-74,o),
(510,193,o),
(510,352,cs)
);
},
{
closed = 1;
nodes = (
(443,338,o),
(410,252,o),
(300,252,cs),
(190,252,o),
(157,338,o),
(157,403,cs),
(157,468,o),
(190,555,o),
(300,555,cs),
(410,555,o),
(443,468,o),
(443,403,cs)
);
}
);
width = 600;
},
{
layerId = m002;
shapes = (
{
closed = 1;
nodes = (
(550,497,o),
(470,610,o),
(300,610,cs),
(130,610,o),
(50,507,o),
(50,388,cs),
(50,269,o),
(130,167,o),
(280,167,cs),
(340,167,o),
(368,198,o),
(368,198,c),
(348,119,o),
(300,44,o),
(137,44,c),
(137,-77,l),
(515,-74,o),
(550,193,o),
(550,352,cs)
);
},
{
closed = 1;
nodes = (
(368,353,o),
(363,282,o),
(300,282,cs),
(237,282,o),
(232,353,o),
(232,388,c),
(232,423,o),
(237,495,o),
(300,495,cs),
(363,495,o),
(368,423,o),
(368,388,cs)
);
}
);
width = 600;
}
);
userData = {
KernOnSpecialSpacing = {
L = NoKerning;
R = NoKerning;
};
};
},
{
glyphname = zero.dnom;
lastChange = "2022-10-23 23:14:24 +0000";
layers = (
{
layerId = m01;
shapes = (
{
closed = 1;
nodes = (
(23,87,o),
(83,-3,o),
(185,-3,cs),
(287,-3,o),
(344,87,o),
(344,209,cs),
(344,330,o),
(287,420,o),
(185,420,cs),
(83,420,o),
(23,330,o),
(23,209,cs)
);
},
{
closed = 1;
nodes = (
(76,312,o),
(110,375,o),
(185,375,cs),
(259,375,o),
(291,312,o),
(291,209,cs),
(291,105,o),
(259,42,o),
(185,42,cs),
(110,42,o),
(76,105,o),
(76,209,cs)
);
}
);
width = 367;
},
{
layerId = m002;
shapes = (
{
closed = 1;
nodes = (
(20,83,o),
(80,-8,o),
(206,-8,cs),
(332,-8,o),
(389,83,o),
(389,204,cs),
(389,326,o),
(332,416,o),
(206,416,cs),
(80,416,o),
(20,326,o),
(20,204,cs)
);
},
{
closed = 1;
nodes = (
(145,290,o),
(156,334,o),
(206,334,cs),
(255,334,o),
(264,290,o),
(264,204,cs),
(264,118,o),
(255,74,o),
(206,74,cs),
(156,74,o),
(145,118,o),
(145,204,cs)
);
}
);
width = 409;
}
);
metricRight = "=|";
},
{
glyphname = one.dnom;
lastChange = "2022-10-23 23:14:24 +0000";
layers = (
{
layerId = m01;
shapes = (
{
closed = 1;
nodes = (
(37,0,l),
(253,0,l),
(253,45,l),
(167,45,l),
(167,411,l),
(133,411,l),
(22,359,l),
(36,324,l),
(122,355,l),
(122,45,l),
(37,45,l)
);
}
);
width = 275;
},
{
layerId = m002;
shapes = (
{
closed = 1;
nodes = (
(34,-5,l),
(348,-5,l),
(348,74,l),
(262,74,l),
(262,407,l),
(155,407,l),
(19,355,l),
(32,282,l),
(143,313,l),
(143,74,l),
(34,74,l)
);
}
);
width = 368;
}
);
},
{
glyphname = two.dnom;
lastChange = "2022-10-23 23:14:24 +0000";
layers = (
{
layerId = m01;
shapes = (
{
closed = 1;
nodes = (
(270,0,l),
(270,45,l),
(92,45,l),
(182,124,o),
(274,231,o),
(270,311,c),
(223,311,l),
(228,241,o),
(124,128,o),
(24,42,c),
(24,0,l)
);
},
{
closed = 1;
nodes = (
(75,361,o),
(104,373,o),
(137,372,c),
(137,417,l),
(94,418,o),
(55,404,o),
(23,386,c),
(44,347,l)
);
},
{
closed = 1;
nodes = (
(270,302,l),
(273,366,o),
(217,419,o),
(128,417,c),
(128,372,l),
(194,374,o),
(226,342,o),
(223,302,c)
);
}
);
width = 293;
},
{
layerId = m002;
shapes = (
{
closed = 1;
nodes = (
(309,-5,l),
(309,74,l),
(163,74,l),
(238,138,o),
(313,225,o),
(309,295,c),
(195,295,l),
(200,235,o),
(109,141,o),
(20,71,c),
(20,-5,l)
);
},
{
closed = 1;
nodes = (
(82,324,o),
(113,332,o),
(145,331,c),
(159,413,l),
(97,414,o),
(51,396,o),
(19,383,c),
(40,305,l)
);
},
{
closed = 1;
nodes = (
(309,285,l),
(312,363,o),
(247,415,o),
(149,413,c),
(135,331,l),
(181,332,o),
(197,318,o),
(195,285,c)
);
}
);
width = 329;
}
);
},
{
glyphname = three.dnom;
lastChange = "2022-10-23 23:14:24 +0000";
layers = (
{
layerId = m01;
shapes = (
{
closed = 1;
nodes = (
(237,-3,o),
(292,40,o),
(292,121,cs),
(292,166,o),
(265,206,o),
(221,222,c),
(253,240,o),
(273,273,o),
(273,310,cs),
(273,382,o),
(220,423,o),
(129,421,c),
(129,376,l),
(194,377,o),
(224,356,o),
(224,310,cs),
(224,263,o),
(194,242,o),
(129,243,c),
(129,201,l),
(203,202,o),
(239,173,o),
(239,121,cs),
(239,68,o),
(203,43,o),
(129,44,c),
(129,-2,l)
);
},
{
closed = 1;
nodes = (
(138,44,l),
(104,43,o),
(76,55,o),
(45,68,c),
(23,29,l),
(56,12,o),
(94,-3,o),
(138,-2,c)
);
},
{
closed = 1;
nodes = (
(138,201,l),
(138,243,l),
(95,243,l),
(95,201,l)
);
},
{
closed = 1;
nodes = (
(76,365,o),
(104,377,o),
(138,376,c),
(138,421,l),
(94,422,o),
(56,409,o),
(23,391,c),
(45,352,l)
);
}
);
width = 314;
},
{
layerId = m002;
shapes = (
{
closed = 1;
nodes = (
(280,-9,o),
(336,36,o),
(336,118,cs),
(336,163,o),
(308,201,o),
(265,217,c),
(297,235,o),
(317,267,o),
(317,303,cs),
(317,376,o),
(265,417,o),
(148,416,c),
(148,333,l),
(160,333,o),
(195,336,o),
(195,294,cs),
(195,253,o),
(160,255,o),
(148,255,c),
(148,176,l),
(173,177,o),
(210,170,o),
(210,127,cs),
(210,84,o),
(172,72,o),
(148,74,c),
(148,-8,l)
);
},
{
closed = 1;
nodes = (
(158,74,l),
(112,73,o),
(80,81,o),
(39,99,c),
(19,22,l),
(50,8,o),
(96,-9,o),
(158,-8,c)
);
},
{
closed = 1;
nodes = (
(158,176,l),
(158,255,l),
(86,255,l),
(86,176,l)
);
},
{
closed = 1;
nodes = (
(80,327,o),
(112,335,o),
(158,334,c),
(158,416,l),
(96,417,o),
(50,400,o),
(19,387,c),
(39,309,l)
);
}
);
width = 356;
}
);
},
{
glyphname = four.dnom;
lastChange = "2022-10-23 23:14:24 +0000";
layers = (
{
layerId = m01;
shapes = (
{
closed = 1;
nodes = (
(23,141,l),
(23,101,l),
(217,101,l),
(217,0,l),
(262,0,l),
(262,101,l),
(327,101,l),
(327,146,l),
(262,146,l),
(262,411,l),
(216,411,l)
);
},
{
closed = 1;
nodes = (
(78,146,l),
(217,335,l),
(217,146,l)
);
}
);
width = 349;
},
{
layerId = m002;
shapes = (
{
closed = 1;
nodes = (
(20,136,l),
(20,60,l),
(190,60,l),
(190,-5,l),
(308,-5,l),
(308,60,l),
(373,60,l),
(373,142,l),
(308,142,l),
(308,407,l),
(192,407,l)
);
},
{
closed = 1;
nodes = (
(124,142,l),
(190,245,l),
(190,142,l)
);
}
);
width = 393;
}
);
},
{
glyphname = five.dnom;
lastChange = "2022-10-23 23:14:24 +0000";
layers = (
{
layerId = m01;
shapes = (
{
closed = 1;
nodes = (
(138,255,l),
(122,255,o),
(104,254,o),
(88,253,c),
(88,371,l),
(266,371,l),
(266,416,l),
(43,416,l),
(43,203,l),
(72,206,o),
(113,211,o),
(138,210,c)
);
},
{
closed = 1;
nodes = (
(237,-3,o),
(292,43,o),
(292,123,cs),
(292,204,o),
(237,257,o),
(129,255,c),
(129,210,l),
(203,212,o),
(239,176,o),
(239,123,cs),
(239,71,o),
(203,43,o),
(129,44,c),
(129,-2,l)
);
},
{
closed = 1;
nodes = (
(138,44,l),
(104,43,o),
(76,55,o),
(45,68,c),
(23,29,l),
(56,12,o),
(94,-3,o),
(138,-2,c)
);
}
);
width = 314;
},
{
layerId = m002;
shapes = (
{
closed = 1;
nodes = (
(184,268,l),
(172,268,o),
(162,268,o),
(156,268,c),
(156,316,l),
(310,316,l),
(310,411,l),
(38,411,l),
(38,172,l),
(79,179,o),
(134,187,o),
(157,186,c)
);
},
{
closed = 1;
nodes = (
(280,-9,o),
(336,37,o),
(336,137,cs),
(336,217,o),
(280,269,o),
(173,268,c),
(146,186,l),
(199,188,o),
(210,171,o),
(210,137,cs),
(210,102,o),
(199,73,o),
(148,75,c),
(148,-8,l)
);
},
{
closed = 1;
nodes = (
(158,75,l),
(128,74,o),
(65,87,o),
(40,100,c),
(19,22,l),
(50,6,o),
(117,-9,o),
(158,-8,c)
);
}
);
width = 356;
}
);
},
{
glyphname = six.dnom;
lastChange = "2022-10-23 23:14:24 +0000";
layers = (
{
layerId = m01;
shapes = (
{
closed = 1;
nodes = (
(23,68,o),
(61,-3,o),
(154,-3,cs),
(248,-3,o),
(285,68,o),
(285,126,cs),
(285,184,o),
(248,255,o),
(154,255,cs),
(134,255,o),
(94,250,o),
(69,219,c),
(91,352,o),
(157,379,o),
(232,381,c),
(232,420,l),
(45,421,o),
(23,254,o),
(23,158,cs)
);
},
{
closed = 1;
nodes = (
(72,165,o),
(90,213,o),
(154,213,cs),
(217,213,o),
(236,165,o),
(236,126,cs),
(236,88,o),
(217,40,o),
(154,40,cs),
(90,40,o),
(72,88,o),
(72,126,cs)
);
}
);
width = 308;
},
{
layerId = m002;
shapes = (
{
closed = 1;
nodes = (
(20,63,o),
(70,-8,o),
(176,-8,cs),
(281,-8,o),
(331,57,o),
(331,131,cs),
(331,205,o),
(281,269,o),
(188,269,cs),
(170,269,o),
(154,264,o),
(143,258,c),
(158,300,o),
(190,334,o),
(279,333,c),
(279,416,l),
(42,416,o),
(20,249,o),
(20,153,cs)
);
},
{
closed = 1;
nodes = (
(139,152,o),
(143,190,o),
(176,190,cs),
(208,190,o),
(212,152,o),
(212,131,cs),
(212,110,o),
(208,71,o),
(176,71,cs),
(143,71,o),
(139,110,o),
(139,131,cs)
);
}
);
width = 351;
}
);
},
{
glyphname = seven.dnom;
lastChange = "2022-10-23 23:14:24 +0000";
layers = (
{
layerId = m01;
shapes = (
{
closed = 1;
nodes = (
(124,114,o),
(204,264,o),
(281,369,c),
(281,411,l),
(23,411,l),
(23,366,l),
(229,366,l),
(153,261,o),
(75,113,o),
(77,0,c),
(126,0,l)
);
}
);
width = 303;
},
{
layerId = m002;
shapes = (
{
closed = 1;
nodes = (
(170,110,o),
(250,234,o),
(327,316,c),
(327,407,l),
(20,407,l),
(20,313,l),
(200,313,l),
(124,231,o),
(48,108,o),
(50,-5,c),
(172,-5,l)
);
}
);
width = 347;
}
);
},
{
glyphname = eight.dnom;
lastChange = "2022-10-23 23:14:24 +0000";
layers = (
{
layerId = m01;
shapes = (
{
closed = 1;
nodes = (
(41,288,o),
(51,247,o),
(87,228,c),
(41,209,o),
(23,164,o),
(23,121,cs),
(23,59,o),
(63,-3,o),
(154,-3,cs),
(245,-3,o),
(285,59,o),
(285,121,cs),
(285,164,o),
(267,210,o),
(221,229,c),
(257,247,o),
(266,288,o),
(266,313,cs),
(266,359,o),
(239,420,o),
(154,420,cs),
(69,420,o),
(41,360,o),
(41,313,cs)
);
},
{
closed = 1;
nodes = (
(72,165,o),
(97,205,o),
(154,205,cs),
(211,205,o),
(236,165,o),
(236,121,cs),
(236,76,o),
(214,40,o),
(154,40,cs),
(94,40,o),
(72,76,o),
(72,121,cs)
);
},
{
closed = 1;
nodes = (
(86,347,o),
(101,379,o),
(154,379,cs),
(207,379,o),
(221,347,o),
(221,313,cs),
(221,280,o),
(204,248,o),
(154,248,cs),
(103,248,o),
(86,280,o),
(86,313,cs)
);
}
);
width = 308;
},
{
layerId = m002;
shapes = (
{
closed = 1;
nodes = (
(39,283,o),
(48,242,o),
(74,223,c),
(37,204,o),
(20,158,o),
(20,115,cs),
(20,53,o),
(61,-8,o),
(176,-8,cs),
(291,-8,o),
(332,53,o),
(332,115,cs),
(332,158,o),
(314,204,o),
(277,224,c),
(303,242,o),
(312,283,o),
(312,308,cs),
(312,354,o),
(285,415,o),
(176,415,cs),
(67,415,o),
(39,355,o),
(39,308,cs)
);
},
{
closed = 1;
nodes = (
(143,151,o),
(150,179,o),
(176,179,cs),
(201,179,o),
(209,151,o),
(209,125,cs),
(209,98,o),
(200,74,o),
(176,74,cs),
(152,74,o),
(143,98,o),
(143,125,cs)
);
},
{
closed = 1;
nodes = (
(151,313,o),
(156,333,o),
(176,333,cs),
(195,333,o),
(201,313,o),
(201,298,cs),
(201,282,o),
(195,262,o),
(176,262,cs),
(156,262,o),
(151,282,o),
(151,298,cs)
);
}
);
width = 352;
}
);
},
{
glyphname = nine.dnom;
lastChange = "2022-10-23 23:14:24 +0000";
layers = (
{
layerId = m01;
shapes = (
{
closed = 1;
nodes = (
(285,352,o),
(248,423,o),
(154,423,cs),
(61,423,o),
(23,352,o),
(23,293,cs),
(23,235,o),
(61,165,o),
(154,165,cs),
(175,165,o),
(213,170,o),
(239,202,c),
(217,68,o),
(151,41,o),
(76,40,c),
(76,0,l),
(263,-1,o),
(285,167,o),
(285,263,cs)
);
},
{
closed = 1;
nodes = (
(236,256,o),
(218,207,o),
(154,207,cs),
(90,207,o),
(72,256,o),
(72,293,cs),
(72,332,o),
(90,381,o),
(154,381,cs),
(218,381,o),
(236,332,o),
(236,293,cs)
);
}
);
width = 308;
},
{
layerId = m002;
shapes = (
{
closed = 1;
nodes = (
(332,348,o),
(281,419,o),
(176,419,cs),
(70,419,o),
(20,354,o),
(20,280,cs),
(20,207,o),
(70,142,o),
(164,142,cs),
(182,142,o),
(197,147,o),
(208,153,c),
(193,111,o),
(162,77,o),
(72,78,c),
(72,-5,l),
(309,-5,o),
(332,162,o),
(332,258,cs)
);
},
{
closed = 1;
nodes = (
(212,259,o),
(208,221,o),
(176,221,cs),
(143,221,o),
(139,259,o),
(139,280,cs),
(139,302,o),
(143,340,o),
(176,340,cs),
(208,340,o),
(212,302,o),
(212,280,cs)
);
}
);
width = 352;
}
);
},
{
glyphname = fraction;
lastChange = "2024-12-31 17:36:14 +0000";
layers = (
{
layerId = m01;
shapes = (
{
closed = 1;
nodes = (
(-217,-25,l),
(-176,-55,l),
(367,693,l),
(326,722,l)
);
}
);
width = 150;
},
{
layerId = m002;
shapes = (
{
closed = 1;
nodes = (
(-182,-14,l),
(-110,-67,l),
(433,681,l),
(361,733,l)
);
}
);
width = 250;
}
);
unicode = 8260;
userData = {
KernOnName = fraction;
KernOnSpecialSpacing = {
L = fraction;
R = fraction;
};
};
},
{
glyphname = period;
kernLeft = KO_period;
kernRight = KO_period;
lastChange = "2024-12-31 17:36:14 +0000";
layers = (
{
layerId = m01;
shapes = (
{
closed = 1;
nodes = (
(130,-8,o),
(150,12,o),
(150,37,cs),
(150,62,o),
(130,82,o),
(105,82,cs),
(80,82,o),
(60,62,o),
(60,37,cs),
(60,12,o),
(80,-8,o),
(105,-8,cs)
);
}
);
width = 210;
},
{
layerId = m002;
shapes = (
{
closed = 1;
nodes = (
(180,-8,o),
(225,36,o),
(225,92,cs),
(225,147,o),
(180,192,o),
(125,192,cs),
(69,192,o),
(25,147,o),
(25,92,cs),
(25,36,o),
(69,-8,o),
(125,-8,cs)
);
}
);
width = 250;
}
);
metricLeft = "=i";
metricRight = "=|";
unicode = 46;
userData = {
KernOnName = period;
KernOnSpecialSpacing = {
L = period;
R = period;
};
};
},
{
glyphname = comma;
kernLeft = KO_comma;
kernRight = KO_comma;
lastChange = "2024-12-31 17:36:14 +0000";
layers = (
{
layerId = m01;
shapes = (
{
closed = 1;
nodes = (
(140,-8,o),
(160,12,o),
(160,37,cs),
(160,62,o),
(140,82,o),
(115,82,cs),
(90,82,o),
(70,62,o),
(70,37,cs),
(70,12,o),
(90,-8,o),
(115,-8,cs)
);
},
{
closed = 1;
nodes = (
(102,-133,l),
(132,-108,o),
(215,0,o),
(149,67,c),
(115,-8,l),
(115,-38,o),
(90,-81,o),
(60,-106,c)
);
}
);
width = 234;
},
{
layerId = m002;
shapes = (
{
closed = 1;
nodes = (
(180,-8,o),
(225,37,o),
(225,92,cs),
(225,147,o),
(180,192,o),
(125,192,cs),
(70,192,o),
(25,147,o),
(25,92,c),
(25,37,o),
(70,-8,o),
(125,-8,cs)
);
},
{
closed = 1;
nodes = (
(135,-213,l),
(230,-131,o),
(309,72,o),
(191,167,c),
(125,-8,l),
(125,-63,o),
(88,-113,o),
(53,-146,c)
);
}
);
width = 275;
}
);
metricLeft = "=i";
metricRight = "=|";
unicode = 44;
userData = {
KernOnName = comma;
KernOnSpecialSpacing = {
L = period;
R = period;
};
};
},
{
glyphname = colon;
kernLeft = KO_colon;
lastChange = "2024-12-31 17:36:14 +0000";
layers = (
{
hints = (
{
horizontal = 1;
place = (-13,21);
target = up;
type = BottomGhost;
},
{
horizontal = 1;
place = (399,-20);
target = down;
type = TopGhost;
},
{
place = (59,97);
type = Stem;
}
);
layerId = m01;
shapes = (
{
closed = 1;
nodes = (
(130,358,o),
(150,378,o),
(150,403,cs),
(150,428,o),
(130,448,o),
(105,448,cs),
(80,448,o),
(60,428,o),
(60,403,cs),
(60,378,o),
(80,358,o),
(105,358,cs)
);
},
{
closed = 1;
nodes = (
(130,-8,o),
(150,12,o),
(150,37,cs),
(150,62,o),
(130,82,o),
(105,82,cs),
(80,82,o),
(60,62,o),
(60,37,cs),
(60,12,o),
(80,-8,o),
(105,-8,cs)
);
}
);
width = 210;
},
{
layerId = m002;
shapes = (
{
closed = 1;
nodes = (
(180,308,o),
(225,352,o),
(225,408,cs),
(225,463,o),
(180,508,o),
(125,508,cs),
(69,508,o),
(25,463,o),
(25,408,cs),
(25,352,o),
(69,308,o),
(125,308,cs)
);
},
{
closed = 1;
nodes = (
(180,-8,o),
(225,37,o),
(225,92,cs),
(225,147,o),
(180,192,o),
(125,192,cs),
(70,192,o),
(25,147,o),
(25,92,c),
(25,37,o),
(70,-8,o),
(125,-8,cs)
);
}
);
width = 250;
}
);
metricLeft = "=i";
metricRight = "=|";
note = colon;
unicode = 58;
userData = {
KernOnName = colon;
KernOnSpecialSpacing = {
L = "spaced-off";
R = "spaced-off";
};
};
},
{
glyphname = semicolon;
kernLeft = KO_colon;
lastChange = "2024-12-31 17:36:14 +0000";
layers = (
{
hints = (
{
horizontal = 1;
place = (-80,22);
type = Stem;
},
{
horizontal = 1;
place = (399,-20);
target = down;
type = TopGhost;
}
);
layerId = m01;
shapes = (
{
closed = 1;
nodes = (
(140,-8,o),
(160,12,o),
(160,37,cs),
(160,62,o),
(140,82,o),
(115,82,cs),
(90,82,o),
(70,62,o),
(70,37,cs),
(70,12,o),
(90,-8,o),
(115,-8,cs)
);
},
{
closed = 1;
nodes = (
(102,-133,l),
(132,-108,o),
(215,0,o),
(149,67,c),
(115,-8,l),
(115,-38,o),
(90,-81,o),
(60,-106,c)
);
},
{
closed = 1;
nodes = (
(130,358,o),
(150,378,o),
(150,403,cs),
(150,428,o),
(130,448,o),
(105,448,cs),
(80,448,o),
(60,428,o),
(60,403,cs),
(60,378,o),
(80,358,o),
(105,358,cs)
);
}
);
width = 247;
},
{
layerId = m002;
shapes = (
{
closed = 1;
nodes = (
(180,-8,o),
(225,37,o),
(225,92,cs),
(225,147,o),
(180,192,o),
(125,192,cs),
(70,192,o),
(25,147,o),
(25,92,c),
(25,37,o),
(70,-8,o),
(125,-8,cs)
);
},
{
closed = 1;
nodes = (
(135,-213,l),
(230,-131,o),
(309,72,o),
(191,167,c),
(125,-8,l),
(125,-63,o),
(88,-113,o),
(53,-146,c)
);
},
{
closed = 1;
nodes = (
(180,308,o),
(225,352,o),
(225,408,cs),
(225,463,o),
(180,508,o),
(125,508,cs),
(69,508,o),
(25,463,o),
(25,408,cs),
(25,352,o),
(69,308,o),
(125,308,cs)
);
}
);
width = 250;
}
);
metricLeft = "=i";
note = semicolon;
unicode = 59;
userData = {
KernOnName = semicolon;
KernOnSpecialSpacing = {
L = "spaced-off";
R = "spaced-off";
};
};
},
{
glyphname = ellipsis;
kernLeft = KO_ellipsis;
kernRight = KO_ellipsis;
lastChange = "2022-10-20 21:31:46 +0000";
layers = (
{
hints = (
{
horizontal = 1;
place = (-13,97);
type = Stem;
}
);
layerId = m01;
shapes = (
{
closed = 1;
nodes = (
(133,-8,o),
(153,12,o),
(153,37,cs),
(153,62,o),
(133,82,o),
(108,82,cs),
(83,82,o),
(63,62,o),
(63,37,cs),
(63,12,o),
(83,-8,o),
(108,-8,cs)
);
},
{
closed = 1;
nodes = (
(333,-8,o),
(353,12,o),
(353,37,cs),
(353,62,o),
(333,82,o),
(308,82,cs),
(283,82,o),
(263,62,o),
(263,37,cs),
(263,12,o),
(283,-8,o),
(308,-8,cs)
);
},
{
closed = 1;
nodes = (
(533,-8,o),
(553,12,o),
(553,37,cs),
(553,62,o),
(533,82,o),
(508,82,cs),
(483,82,o),
(463,62,o),
(463,37,cs),
(463,12,o),
(483,-8,o),
(508,-8,cs)
);
}
);
width = 616;
},
{
layerId = m002;
shapes = (
{
closed = 1;
nodes = (
(180,-8,o),
(225,36,o),
(225,92,cs),
(225,147,o),
(180,192,o),
(125,192,cs),
(69,192,o),
(25,147,o),
(25,92,cs),
(25,36,o),
(69,-8,o),
(125,-8,cs)
);
},
{
closed = 1;
nodes = (
(460,-8,o),
(505,36,o),
(505,92,cs),
(505,147,o),
(460,192,o),
(405,192,cs),
(349,192,o),
(305,147,o),
(305,92,cs),
(305,36,o),
(349,-8,o),
(405,-8,cs)
);
},
{
closed = 1;
nodes = (
(740,-8,o),
(785,36,o),
(785,92,cs),
(785,147,o),
(740,192,o),
(685,192,cs),
(629,192,o),
(585,147,o),
(585,92,cs),
(585,36,o),
(629,-8,o),
(685,-8,cs)
);
}
);
width = 810;
}
);
metricLeft = "=period";
metricRight = "=|";
note = ellipsis;
unicode = 8230;
},
{
glyphname = exclam;
kernLeft = KO_exclam;
lastChange = "2024-12-31 17:36:14 +0000";
layers = (
{
hints = (
{
horizontal = 1;
place = (-13,102);
type = Stem;
},
{
horizontal = 1;
place = (708,-20);
target = down;
type = TopGhost;
},
{
place = (69,102);
type = Stem;
},
{
place = (81,77);
type = Stem;
}
);
layerId = m01;
shapes = (
{
closed = 1;
nodes = (
(135,180,l),
(140,700,l),
(70,700,l),
(75,180,l)
);
},
{
closed = 1;
nodes = (
(130,-8,o),
(150,12,o),
(150,37,cs),
(150,62,o),
(130,82,o),
(105,82,cs),
(80,82,o),
(60,62,o),
(60,37,cs),
(60,12,o),
(80,-8,o),
(105,-8,cs)
);
}
);
width = 210;
},
{
layerId = m002;
shapes = (
{
closed = 1;
nodes = (
(195,250,l),
(215,700,l),
(35,700,l),
(55,250,l)
);
},
{
closed = 1;
nodes = (
(180,-8,o),
(225,36,o),
(225,92,cs),
(225,147,o),
(180,192,o),
(125,192,cs),
(69,192,o),
(25,147,o),
(25,92,cs),
(25,36,o),
(69,-8,o),
(125,-8,cs)
);
}
);
width = 250;
}
);
metricLeft = "=period";
metricRight = "=|";
note = exclam;
unicode = 33;
userData = {
KernOnName = exclam;
KernOnSpecialSpacing = {
L = "spaced-off";
};
};
},
{
glyphname = exclamdown;
lastChange = "2024-12-31 17:20:32 +0000";
layers = (
{
hints = (
{
horizontal = 1;
place = (424,194);
type = Stem;
},
{
horizontal = 1;
place = (-195,113);
type = Stem;
},
{
place = (147,114);
type = Stem;
},
{
place = (134,139);
type = Stem;
}
);
layerId = m01;
shapes = (
{
closed = 1;
nodes = (
(140,-200,l),
(135,320,l),
(75,320,l),
(70,-200,l)
);
},
{
closed = 1;
nodes = (
(130,418,o),
(150,438,o),
(150,463,cs),
(150,488,o),
(130,508,o),
(105,508,cs),
(80,508,o),
(60,488,o),
(60,463,cs),
(60,438,o),
(80,418,o),
(105,418,cs)
);
}
);
width = 210;
},
{
layerId = m002;
shapes = (
{
closed = 1;
nodes = (
(215,-200,l),
(195,250,l),
(55,250,l),
(35,-200,l)
);
},
{
closed = 1;
nodes = (
(181,308,o),
(225,353,o),
(225,408,cs),
(225,464,o),
(181,508,o),
(125,508,cs),
(70,508,o),
(25,464,o),
(25,408,cs),
(25,353,o),
(70,308,o),
(125,308,cs)
);
}
);
width = 250;
}
);
metricLeft = "=exclam";
metricRight = "=|";
note = exclamdown;
unicode = 161;
userData = {
KernOnSpecialSpacing = {
R = "spaced-off";
};
};
},
{
glyphname = question;
kernLeft = KO_question;
kernRight = KO_question;
lastChange = "2024-12-31 17:36:14 +0000";
layers = (
{
layerId = m01;
shapes = (
{
closed = 1;
nodes = (
(196,-8,o),
(216,12,o),
(216,37,cs),
(216,62,o),
(196,82,o),
(171,82,cs),
(146,82,o),
(126,62,o),
(126,37,cs),
(126,12,o),
(146,-8,o),
(171,-8,cs)
);
},
{
closed = 1;
nodes = (
(86,621,o),
(128,653,o),
(191,653,c),
(191,708,l),
(117,708,o),
(57,668,o),
(25,645,c),
(60,601,l)
);
},
{
closed = 1;
nodes = (
(191,653,l),
(285,653,o),
(311,607,o),
(311,552,cs),
(311,443,o),
(141,458,o),
(141,310,c),
(201,310,l),
(201,425,o),
(373,410,o),
(373,552,c),
(373,634,o),
(317,708,o),
(191,708,c)
);
},
{
closed = 1;
nodes = (
(141,180,l),
(201,180,l),
(201,310,l),
(141,310,l)
);
}
);
width = 418;
},
{
layerId = m002;
shapes = (
{
closed = 1;
nodes = (
(247,-8,o),
(291,36,o),
(291,92,cs),
(291,148,o),
(247,192,o),
(191,192,cs),
(135,192,o),
(91,148,o),
(91,92,cs),
(91,36,o),
(135,-8,o),
(191,-8,cs)
);
},
{
closed = 1;
nodes = (
(122,572,o),
(151,588,o),
(211,588,c),
(211,708,l),
(97,708,o),
(37,653,o),
(5,625,c),
(80,536,l)
);
},
{
closed = 1;
nodes = (
(211,588,l),
(271,588,o),
(281,557,o),
(281,532,c),
(281,450,o),
(101,501,o),
(101,310,c),
(281,310,l),
(281,392,o),
(463,341,o),
(463,532,cs),
(463,614,o),
(397,708,o),
(211,708,c)
);
},
{
closed = 1;
nodes = (
(101,250,l),
(281,250,l),
(281,310,l),
(101,310,l)
);
}
);
width = 478;
}
);
unicode = 63;
userData = {
KernOnName = question;
KernOnSpecialSpacing = {
L = "spaced-off";
};
};
},
{
glyphname = questiondown;
kernRight = KO_questiondown;
lastChange = "2024-12-31 17:20:32 +0000";
layers = (
{
hints = (
{
horizontal = 1;
place = (-231,73);
type = Stem;
},
{
horizontal = 1;
place = (240,73);
type = Stem;
},
{
horizontal = 1;
place = (496,22);
type = Stem;
},
{
place = (78,84);
type = Stem;
},
{
place = (335,77);
type = Stem;
}
);
layerId = m01;
shapes = (
{
closed = 1;
nodes = (
(222,508,o),
(202,488,o),
(202,463,cs),
(202,438,o),
(222,418,o),
(247,418,cs),
(272,418,o),
(292,438,o),
(292,463,cs),
(292,488,o),
(272,508,o),
(247,508,cs)
);
},
{
closed = 1;
nodes = (
(227,-153,l),
(133,-153,o),
(107,-107,o),
(107,-52,cs),
(107,57,o),
(277,42,o),
(277,190,c),
(217,190,l),
(217,75,o),
(45,90,o),
(45,-52,c),
(45,-134,o),
(101,-208,o),
(227,-208,c)
);
},
{
closed = 1;
nodes = (
(332,-121,o),
(290,-153,o),
(227,-153,c),
(227,-208,l),
(301,-208,o),
(361,-168,o),
(393,-145,c),
(358,-101,l)
);
},
{
closed = 1;
nodes = (
(277,320,l),
(217,320,l),
(217,190,l),
(277,190,l)
);
}
);
width = 418;
},
{
layerId = m002;
shapes = (
{
closed = 1;
nodes = (
(221,508,o),
(177,464,o),
(177,408,cs),
(177,352,o),
(221,308,o),
(277,308,cs),
(333,308,o),
(377,352,o),
(377,408,cs),
(377,464,o),
(333,508,o),
(277,508,cs)
);
},
{
closed = 1;
nodes = (
(257,-88,l),
(197,-88,o),
(187,-57,o),
(187,-32,c),
(187,50,o),
(367,-1,o),
(367,190,c),
(187,190,l),
(187,108,o),
(5,159,o),
(5,-32,cs),
(5,-114,o),
(71,-208,o),
(257,-208,c)
);
},
{
closed = 1;
nodes = (
(346,-72,o),
(317,-88,o),
(257,-88,c),
(257,-208,l),
(371,-208,o),
(431,-153,o),
(463,-125,c),
(388,-36,l)
);
},
{
closed = 1;
nodes = (
(367,250,l),
(187,250,l),
(187,190,l),
(367,190,l)
);
}
);
width = 478;
}
);
note = questiondown;
unicode = 191;
userData = {
KernOnSpecialSpacing = {
R = "spaced-off";
};
};
},
{
glyphname = periodcentered;
lastChange = "2024-12-31 17:20:32 +0000";
layers = (
{
hints = (
{
horizontal = 1;
place = (200,21);
target = up;
type = BottomGhost;
},
{
horizontal = 1;
place = (276,21);
target = up;
type = BottomGhost;
}
);
layerId = m01;
shapes = (
{
closed = 1;
nodes = (
(150,205,o),
(170,225,o),
(170,250,cs),
(170,275,o),
(150,295,o),
(125,295,cs),
(100,295,o),
(80,275,o),
(80,250,cs),
(80,225,o),
(100,205,o),
(125,205,cs)
);
}
);
width = 250;
},
{
layerId = m002;
shapes = (
{
closed = 1;
nodes = (
(305,150,o),
(350,194,o),
(350,250,cs),
(350,305,o),
(305,350,o),
(250,350,cs),
(194,350,o),
(150,305,o),
(150,250,cs),
(150,194,o),
(194,150,o),
(250,150,cs)
);
}
);
width = 500;
}
);
metricRight = "=|";
note = periodcentered;
unicode = (183,8729);
userData = {
KernOnSpecialSpacing = {
L = NoKerning;
R = NoKerning;
};
};
},
{
glyphname = bullet;
lastChange = "2024-12-31 17:20:32 +0000";
layers = (
{
hints = (
{
horizontal = 1;
place = (145,205);
type = Stem;
},
{
place = (98,204);
type = Stem;
}
);
layerId = m01;
shapes = (
{
closed = 1;
nodes = (
(305,150,o),
(350,195,o),
(350,250,cs),
(350,305,o),
(305,350,o),
(250,350,cs),
(195,350,o),
(150,305,o),
(150,250,cs),
(150,195,o),
(195,150,o),
(250,150,cs)
);
}
);
width = 500;
},
{
layerId = m002;
shapes = (
{
closed = 1;
nodes = (
(327,110,o),
(390,173,o),
(390,250,cs),
(390,327,o),
(327,390,o),
(250,390,cs),
(173,390,o),
(110,327,o),
(110,250,cs),
(110,173,o),
(173,110,o),
(250,110,cs)
);
}
);
width = 500;
}
);
note = bullet;
unicode = 8226;
userData = {
KernOnSpecialSpacing = {
L = NoKerning;
R = NoKerning;
};
};
},
{
glyphname = asterisk;
kernLeft = KO_asterisk;
kernRight = KO_asterisk;
lastChange = "2024-12-31 17:20:32 +0000";
layers = (
{
hints = (
{
horizontal = 1;
place = (350,21);
target = up;
type = BottomGhost;
},
{
horizontal = 1;
place = (759,-20);
target = down;
type = TopGhost;
},
{
place = (238,67);
type = Stem;
}
);
layerId = m01;
shapes = (
{
closed = 1;
nodes = (
(223,350,l),
(278,350,l),
(278,700,l),
(223,700,l)
);
},
{
closed = 1;
nodes = (
(85,461,l),
(113,414,l),
(416,589,l),
(388,636,l)
);
},
{
closed = 1;
nodes = (
(113,636,l),
(85,589,l),
(388,414,l),
(416,461,l)
);
}
);
width = 500;
},
{
layerId = m002;
shapes = (
{
closed = 1;
nodes = (
(203,330,l),
(298,330,l),
(298,720,l),
(203,720,l)
);
},
{
closed = 1;
nodes = (
(57,468,l),
(106,387,l),
(444,582,l),
(395,663,l)
);
},
{
closed = 1;
nodes = (
(106,663,l),
(57,582,l),
(395,387,l),
(444,468,l)
);
}
);
width = 500;
}
);
note = asterisk;
unicode = 42;
userData = {
KernOnSpecialSpacing = {
L = quotes;
R = quotes;
};
};
},
{
glyphname = numbersign;
kernLeft = KO_numbersign;
kernRight = KO_numbersign;
lastChange = "2022-10-19 19:48:51 +0000";
layers = (
{
hints = (
{
horizontal = 1;
place = (-8,21);
target = up;
type = BottomGhost;
},
{
horizontal = 1;
place = (133,67);
type = Stem;
},
{
horizontal = 1;
place = (297,66);
type = Stem;
},
{
horizontal = 1;
place = (483,21);
target = up;
type = BottomGhost;
}
);
layerId = m01;
shapes = (
{
closed = 1;
nodes = (
(119,0,l),
(174,0,l),
(280,500,l),
(225,500,l)
);
},
{
closed = 1;
nodes = (
(319,0,l),
(374,0,l),
(481,500,l),
(426,500,l)
);
},
{
closed = 1;
nodes = (
(83,378,l),
(71,323,l),
(571,323,l),
(583,378,l)
);
},
{
closed = 1;
nodes = (
(29,177,l),
(17,122,l),
(517,122,l),
(529,177,l)
);
}
);
width = 600;
},
{
layerId = m002;
shapes = (
{
closed = 1;
nodes = (
(157,0,l),
(273,0,l),
(392,560,l),
(276,560,l)
);
},
{
closed = 1;
nodes = (
(357,0,l),
(473,0,l),
(593,560,l),
(477,560,l)
);
},
{
closed = 1;
nodes = (
(134,438,l),
(109,323,l),
(670,323,l),
(695,438,l)
);
},
{
closed = 1;
nodes = (
(80,237,l),
(55,122,l),
(616,122,l),
(641,237,l)
);
}
);
width = 750;
}
);
note = numbersign;
unicode = 35;
},
{
glyphname = slash;
kernLeft = KO_slash;
kernRight = KO_slash;
lastChange = "2024-12-31 17:36:14 +0000";
layers = (
{
hints = (
{
horizontal = 1;
place = (-37,22);
type = Stem;
},
{
horizontal = 1;
place = (716,21);
target = up;
type = BottomGhost;
}
);
layerId = m01;
shapes = (
{
closed = 1;
nodes = (
(45,-125,l),
(100,-125,l),
(276,700,l),
(221,700,l)
);
}
);
width = 321;
},
{
layerId = m002;
shapes = (
{
closed = 1;
nodes = (
(45,-125,l),
(180,-125,l),
(356,700,l),
(221,700,l)
);
}
);
width = 401;
}
);
note = slash;
unicode = 47;
userData = {
KernOnName = slash;
KernOnSpecialSpacing = {
L = slash;
R = slash;
};
};
},
{
glyphname = backslash;
kernLeft = KO_backslash;
lastChange = "2024-12-31 17:20:32 +0000";
layers = (
{
hints = (
{
horizontal = 1;
place = (-37,22);
type = Stem;
},
{
horizontal = 1;
place = (716,21);
target = up;
type = BottomGhost;
}
);
layerId = m01;
shapes = (
{
closed = 1;
nodes = (
(219,-125,l),
(274,-125,l),
(100,700,l),
(45,700,l)
);
}
);
width = 319;
},
{
layerId = m002;
shapes = (
{
closed = 1;
nodes = (
(219,-125,l),
(334,-125,l),
(160,700,l),
(45,700,l)
);
}
);
width = 379;
}
);
note = backslash;
unicode = 92;
userData = {
KernOnSpecialSpacing = {
L = "spaced-off";
R = "spaced-off";
};
};
},
{
glyphname = hyphen;
kernLeft = KO_hyphen;
kernRight = KO_hyphen;
lastChange = "2024-12-31 17:36:14 +0000";
layers = (
{
layerId = m01;
shapes = (
{
closed = 1;
nodes = (
(82,225,l),
(368,225,l),
(368,275,l),
(82,275,l)
);
}
);
width = 450;
},
{
layerId = m002;
shapes = (
{
closed = 1;
nodes = (
(45,180,l),
(411,180,l),
(411,320,l),
(45,320,l)
);
}
);
width = 456;
}
);
metricLeft = "=H";
metricRight = "=|";
unicode = 45;
userData = {
KernOnName = hyphen;
KernOnSpecialSpacing = {
L = hyphen;
R = hyphen;
};
};
},
{
glyphname = endash;
kernLeft = KO_endash;
kernRight = KO_endash;
lastChange = "2024-12-31 17:36:14 +0000";
layers = (
{
hints = (
{
horizontal = 1;
place = (215,66);
type = Stem;
}
);
layerId = m01;
shapes = (
{
closed = 1;
nodes = (
(82,225,l),
(470,225,l),
(470,275,l),
(82,275,l)
);
}
);
width = 552;
},
{
layerId = m002;
shapes = (
{
closed = 1;
nodes = (
(45,180,l),
(513,180,l),
(513,320,l),
(45,320,l)
);
}
);
width = 558;
}
);
metricLeft = "=H";
metricRight = "=|";
note = endash;
unicode = 8211;
userData = {
KernOnName = endash;
KernOnSpecialSpacing = {
L = dashes;
R = dashes;
};
};
},
{
glyphname = emdash;
kernLeft = KO_endash;
kernRight = KO_endash;
lastChange = "2024-12-31 17:20:32 +0000";
layers = (
{
hints = (
{
horizontal = 1;
place = (215,66);
type = Stem;
}
);
layerId = m01;
shapes = (
{
closed = 1;
nodes = (
(82,225,l),
(726,225,l),
(726,275,l),
(82,275,l)
);
}
);
width = 808;
},
{
layerId = m002;
shapes = (
{
closed = 1;
nodes = (
(45,185,l),
(769,185,l),
(769,315,l),
(45,315,l)
);
}
);
width = 814;
}
);
metricLeft = "=H";
metricRight = "=|";
note = emdash;
unicode = 8212;
userData = {
KernOnSpecialSpacing = {
L = dashes;
R = dashes;
};
};
},
{
glyphname = underscore;
kernLeft = KO_underscore;
kernRight = KO_underscore;
lastChange = "2024-12-31 17:20:32 +0000";
layers = (
{
hints = (
{
horizontal = 1;
place = (-85,66);
type = Stem;
}
);
layerId = m01;
shapes = (
{
closed = 1;
nodes = (
(82,-77,l),
(470,-77,l),
(470,-28,l),
(82,-28,l)
);
}
);
width = 552;
},
{
layerId = m002;
shapes = (
{
closed = 1;
nodes = (
(45,-122,l),
(513,-122,l),
(513,17,l),
(45,17,l)
);
}
);
width = 558;
}
);
metricLeft = "=H";
metricRight = "=|";
note = underscore;
unicode = 95;
userData = {
KernOnSpecialSpacing = {
L = underscore;
R = underscore;
};
};
},
{
glyphname = parenleft;
kernLeft = KO_parenleft;
kernRight = KO_parenleft;
lastChange = "2024-12-31 17:36:14 +0000";
layers = (
{
hints = (
{
horizontal = 1;
place = (-85,22);
type = Stem;
},
{
horizontal = 1;
place = (751,-20);
target = down;
type = TopGhost;
},
{
place = (77,82);
type = Stem;
}
);
layerId = m01;
shapes = (
{
closed = 1;
nodes = (
(106,550,o),
(217,671,o),
(252,699,c),
(224,743,l),
(157,706,o),
(45,563,o),
(45,332,cs),
(45,99,o),
(157,-44,o),
(224,-82,c),
(252,-38,l),
(217,-10,o),
(106,111,o),
(106,332,cs)
);
}
);
width = 277;
},
{
layerId = m002;
shapes = (
{
closed = 1;
nodes = (
(186,550,o),
(297,671,o),
(332,699,c),
(214,783,l),
(147,746,o),
(15,603,o),
(15,332,cs),
(15,59,o),
(147,-84,o),
(214,-122,c),
(332,-38,l),
(297,-10,o),
(186,111,o),
(186,332,cs)
);
}
);
width = 332;
}
);
metricLeft = "=O";
note = parenleft;
unicode = 40;
userData = {
KernOnName = parenleft;
KernOnSpecialSpacing = {
R = parenthesis;
};
};
},
{
glyphname = parenright;
kernLeft = KO_parenright;
kernRight = KO_parenright;
lastChange = "2024-12-31 17:36:14 +0000";
layers = (
{
hints = (
{
horizontal = 1;
place = (-85,22);
type = Stem;
},
{
horizontal = 1;
place = (751,-20);
target = down;
type = TopGhost;
},
{
place = (206,82);
type = Stem;
}
);
layerId = m01;
shapes = (
{
closed = 1;
nodes = (
(191,111,o),
(80,-10,o),
(45,-38,c),
(73,-82,l),
(140,-44,o),
(252,99,o),
(252,332,cs),
(252,563,o),
(140,706,o),
(73,743,c),
(45,699,l),
(80,671,o),
(191,550,o),
(191,332,cs)
);
}
);
width = 297;
},
{
layerId = m002;
shapes = (
{
closed = 1;
nodes = (
(161,111,o),
(50,-10,o),
(15,-38,c),
(133,-122,l),
(200,-84,o),
(332,59,o),
(332,332,cs),
(332,603,o),
(200,746,o),
(133,783,c),
(15,699,l),
(50,671,o),
(161,550,o),
(161,332,cs)
);
}
);
width = 347;
}
);
metricRight = "=O";
note = parenright;
unicode = 41;
userData = {
KernOnName = parenright;
KernOnSpecialSpacing = {
L = parenthesis;
};
};
},
{
glyphname = braceleft;
kernRight = KO_braceleft;
lastChange = "2024-12-31 17:20:32 +0000";
layers = (
{
hints = (
{
horizontal = 1;
place = (312,51);
type = Stem;
},
{
place = (189,184);
type = Stem;
}
);
layerId = m01;
shapes = (
{
closed = 1;
nodes = (
(301,0,l),
(289,-2,o),
(279,-3,o),
(268,-3,cs),
(195,-3,o),
(183,35,o),
(183,93,c),
(186,200,l),
(186,262,o),
(177,317,o),
(110,340,c),
(176,357,o),
(186,411,o),
(186,471,c),
(183,576,l),
(183,632,o),
(195,669,o),
(268,669,cs),
(278,669,o),
(290,668,o),
(301,666,c),
(301,703,l),
(291,705,o),
(271,708,o),
(251,708,cs),
(202,708,o),
(131,690,o),
(131,604,cs),
(131,562,o),
(131,530,o),
(131,490,cs),
(131,421,o),
(126,358,o),
(45,354,c),
(45,321,l),
(129,317,o),
(131,252,o),
(131,178,cs),
(131,144,o),
(131,97,o),
(131,62,cs),
(131,-24,o),
(202,-42,o),
(251,-42,cs),
(270,-42,o),
(301,-36,o),
(301,-36,c)
);
}
);
width = 326;
},
{
layerId = m002;
shapes = (
{
closed = 1;
nodes = (
(351,0,l),
(339,-2,o),
(329,-3,o),
(318,-3,cs),
(245,-3,o),
(233,35,o),
(233,93,c),
(236,200,l),
(236,262,o),
(227,317,o),
(150,340,c),
(226,357,o),
(236,411,o),
(236,471,c),
(233,576,l),
(233,632,o),
(245,669,o),
(318,669,cs),
(328,669,o),
(340,668,o),
(351,666,c),
(351,763,l),
(341,765,o),
(321,768,o),
(301,768,cs),
(172,768,o),
(101,750,o),
(101,604,cs),
(101,562,o),
(101,530,o),
(101,490,cs),
(101,421,o),
(96,378,o),
(15,374,c),
(15,301,l),
(99,297,o),
(101,252,o),
(101,178,cs),
(101,144,o),
(101,97,o),
(101,62,cs),
(101,-84,o),
(172,-102,o),
(301,-102,cs),
(320,-102,o),
(351,-96,o),
(351,-96,c)
);
}
);
width = 351;
}
);
metricLeft = "=O";
note = braceleft;
unicode = 123;
userData = {
KernOnSpecialSpacing = {
R = parenthesis;
};
};
},
{
glyphname = braceright;
kernLeft = KO_braceright;
lastChange = "2024-12-31 17:20:32 +0000";
layers = (
{
hints = (
{
horizontal = 1;
place = (312,51);
type = Stem;
},
{
place = (77,184);
type = Stem;
}
);
layerId = m01;
shapes = (
{
closed = 1;
nodes = (
(25,-36,o),
(56,-42,o),
(75,-42,cs),
(124,-42,o),
(195,-24,o),
(195,62,cs),
(195,97,o),
(195,144,o),
(195,178,cs),
(195,252,o),
(197,317,o),
(281,321,c),
(281,354,l),
(200,358,o),
(195,421,o),
(195,490,cs),
(195,530,o),
(195,562,o),
(195,604,cs),
(195,690,o),
(124,708,o),
(75,708,cs),
(55,708,o),
(35,705,o),
(25,703,c),
(25,666,l),
(36,668,o),
(48,669,o),
(58,669,cs),
(131,669,o),
(143,632,o),
(143,576,c),
(140,471,l),
(140,411,o),
(150,357,o),
(216,340,c),
(149,317,o),
(140,262,o),
(140,200,c),
(143,93,l),
(143,35,o),
(131,-3,o),
(58,-3,cs),
(47,-3,o),
(37,-2,o),
(25,0,c),
(25,-36,l)
);
}
);
width = 326;
},
{
layerId = m002;
shapes = (
{
closed = 1;
nodes = (
(0,-96,o),
(31,-102,o),
(50,-102,cs),
(199,-102,o),
(270,-84,o),
(270,62,cs),
(270,97,o),
(270,144,o),
(270,178,cs),
(270,252,o),
(272,297,o),
(356,301,c),
(356,374,l),
(275,378,o),
(270,421,o),
(270,490,cs),
(270,530,o),
(270,562,o),
(270,604,cs),
(270,750,o),
(199,768,o),
(50,768,cs),
(30,768,o),
(10,765,o),
(0,763,c),
(0,666,l),
(11,668,o),
(23,669,o),
(33,669,cs),
(106,669,o),
(118,632,o),
(118,576,c),
(115,471,l),
(115,411,o),
(125,357,o),
(191,340,c),
(124,317,o),
(115,262,o),
(115,200,c),
(118,93,l),
(118,35,o),
(106,-3,o),
(33,-3,cs),
(22,-3,o),
(12,-2,o),
(0,0,c),
(0,-96,l)
);
}
);
width = 371;
}
);
metricRight = "=O";
note = braceright;
unicode = 125;
userData = {
KernOnSpecialSpacing = {
L = parenthesis;
};
};
},
{
glyphname = bracketleft;
kernRight = KO_bracketleft;
lastChange = "2024-12-31 17:20:32 +0000";
layers = (
{
hints = (
{
horizontal = 1;
place = (-81,72);
type = Stem;
},
{
horizontal = 1;
place = (674,72);
type = Stem;
},
{
place = (78,82);
type = Stem;
},
{
place = (78,184);
type = Stem;
}
);
layerId = m01;
shapes = (
{
closed = 1;
nodes = (
(246,-55,l),
(246,0,l),
(142,0,l),
(142,667,l),
(246,667,l),
(246,722,l),
(82,722,l),
(82,-55,l)
);
}
);
width = 291;
},
{
layerId = m002;
shapes = (
{
closed = 1;
nodes = (
(289,-85,l),
(289,30,l),
(185,30,l),
(185,637,l),
(289,637,l),
(289,752,l),
(45,752,l),
(45,-85,l)
);
}
);
width = 314;
}
);
metricLeft = "=H";
note = bracketleft;
unicode = 91;
userData = {
KernOnSpecialSpacing = {
L = NoKerning;
R = parenthesis;
};
};
},
{
glyphname = bracketright;
kernLeft = KO_bracketright;
lastChange = "2024-12-31 17:20:32 +0000";
layers = (
{
hints = (
{
horizontal = 1;
place = (-81,72);
type = Stem;
},
{
horizontal = 1;
place = (674,72);
type = Stem;
},
{
place = (58,184);
type = Stem;
},
{
place = (160,82);
type = Stem;
}
);
layerId = m01;
shapes = (
{
closed = 1;
nodes = (
(209,-55,l),
(209,722,l),
(45,722,l),
(45,667,l),
(149,667,l),
(149,0,l),
(45,0,l),
(45,-55,l)
);
}
);
width = 291;
},
{
layerId = m002;
shapes = (
{
closed = 1;
nodes = (
(269,-85,l),
(269,752,l),
(25,752,l),
(25,637,l),
(129,637,l),
(129,30,l),
(25,30,l),
(25,-85,l)
);
}
);
width = 314;
}
);
metricRight = "=H";
note = bracketright;
unicode = 93;
userData = {
KernOnSpecialSpacing = {
L = parenthesis;
R = NoKerning;
};
};
},
{
glyphname = quotesinglbase;
kernLeft = KO_quotedblbase;
kernRight = KO_quotedblbase;
lastChange = "2024-12-31 17:20:32 +0000";
layers = (
{
hints = (
{
horizontal = 1;
place = (-80,22);
type = Stem;
},
{
horizontal = 1;
place = (63,21);
target = up;
type = BottomGhost;
}
);
layerId = m01;
shapes = (
{
closed = 1;
nodes = (
(140,-8,o),
(160,12,o),
(160,37,cs),
(160,62,o),
(140,82,o),
(115,82,cs),
(90,82,o),
(70,62,o),
(70,37,cs),
(70,12,o),
(90,-8,o),
(115,-8,cs)
);
},
{
closed = 1;
nodes = (
(102,-133,l),
(132,-108,o),
(215,0,o),
(149,67,c),
(115,-8,l),
(115,-38,o),
(90,-81,o),
(60,-106,c)
);
}
);
width = 234;
},
{
layerId = m002;
shapes = (
{
closed = 1;
nodes = (
(180,-8,o),
(225,37,o),
(225,92,cs),
(225,147,o),
(180,192,o),
(125,192,cs),
(70,192,o),
(25,147,o),
(25,92,c),
(25,37,o),
(70,-8,o),
(125,-8,cs)
);
},
{
closed = 1;
nodes = (
(135,-213,l),
(230,-131,o),
(309,72,o),
(191,167,c),
(125,-8,l),
(125,-63,o),
(88,-113,o),
(53,-146,c)
);
}
);
width = 275;
}
);
metricLeft = "=i";
metricRight = "=i";
note = quotesinglbase;
unicode = 8218;
userData = {
KernOnSpecialSpacing = {
L = quotes;
R = quotes;
};
};
},
